<?xml version="1.0" encoding="UTF-8"?>
<svg id="Capa_1" xmlns="http://www.w3.org/2000/svg" xmlns:xlink="http://www.w3.org/1999/xlink" viewBox="0 0 792 470.64">
  <defs>
    <style>
      .cls-1, .cls-2, .cls-3, .cls-4 {
        font-family: ArialMT, Arial;
      }

      .cls-1, .cls-3 {
        font-size: 7.35px;
      }

      .cls-1, .cls-4 {
        fill: #06476f;
      }

      .cls-5 {
        opacity: .41;
      }

      .cls-2, .cls-4 {
        font-size: 8.82px;
      }

      .cls-6, .cls-7, .cls-8, .cls-9, .cls-10, .cls-11, .cls-12 {
        fill: none;
      }

      .cls-6, .cls-8, .cls-11 {
        stroke-width: .74px;
      }

      .cls-6, .cls-9 {
        stroke: blue;
      }

      .cls-13 {
        fill: #2d2d2d;
      }

      .cls-14 {
        fill: #fff;
      }

      .cls-15 {
        fill: #81bf5f;
      }

      .cls-8, .cls-12 {
        stroke: #06476f;
      }

      .cls-9, .cls-10, .cls-12 {
        stroke-width: 2.21px;
      }

      .cls-10, .cls-11 {
        stroke: #2d2d2d;
      }

      .cls-16 {
        fill: #73acac;
      }

      .cls-17 {
        fill: #477777;
      }

      .cls-18 {
        fill: #dce6dc;
      }

      .cls-19 {
        clip-path: url(#clippath);
      }
    </style>
    <clipPath id="clippath">
      <rect class="cls-7" width="792" height="470.64"/>
    </clipPath>
  </defs>
  <g class="cls-19">
    <rect class="cls-14" width="791.26" height="471.38"/>
    <polygon class="cls-5" points="555.21 18.38 661.1 18.38 663.31 19.12 665.52 19.86 666.25 22.06 666.99 24.27 666.99 122.81 666.25 125.01 665.52 127.22 663.31 127.96 661.1 128.69 555.21 128.69 553 127.96 550.8 127.22 550.06 125.01 549.33 122.81 549.33 24.27 550.06 22.06 550.8 19.86 553 19.12 555.21 18.38"/>
    <polygon class="cls-18" points="551.53 14.71 657.43 14.71 659.63 15.44 661.84 16.18 662.57 18.38 663.31 20.59 663.31 119.13 662.57 121.34 661.84 123.54 659.63 124.28 657.43 125.01 551.53 125.01 549.33 124.28 547.12 123.54 546.38 121.34 545.65 119.13 545.65 20.59 546.38 18.38 547.12 16.18 549.33 15.44 551.53 14.71"/>
    <line class="cls-11" x1="551.53" y1="14.71" x2="657.43" y2="14.71"/>
    <path class="cls-11" d="M663.31,20.59c0-.08,0-.16,0-.25-.07-3.18-2.7-5.71-5.88-5.64"/>
    <line class="cls-11" x1="663.31" y1="20.59" x2="663.31" y2="119.13"/>
    <path class="cls-11" d="M657.43,125.01c.08,0,.16,0,.24,0,3.18-.07,5.71-2.7,5.64-5.88"/>
    <line class="cls-11" x1="657.43" y1="125.01" x2="551.53" y2="125.01"/>
    <path class="cls-11" d="M545.65,119.13c0,.08,0,.16,0,.24.07,3.18,2.7,5.71,5.88,5.64"/>
    <line class="cls-11" x1="545.65" y1="119.13" x2="545.65" y2="20.59"/>
    <path class="cls-11" d="M551.53,14.71c-.08,0-.16,0-.24,0-3.18.07-5.71,2.7-5.64,5.88"/>
    <line class="cls-10" x1="549.33" y1="22.8" x2="558.15" y2="22.8"/>
    <rect class="cls-11" x="547.86" y="16.91" width="11.77" height="11.77"/>
    <text class="cls-2" transform="translate(578.49 11.41)"><tspan x="0" y="0">my_dff:DUT1</tspan></text>
    <line class="cls-8" x1="538.3" y1="58.83" x2="545.65" y2="58.83"/>
    <text class="cls-1" transform="translate(535.19 55.84)"><tspan x="0" y="0">clk</tspan></text>
    <line class="cls-8" x1="538.3" y1="44.12" x2="545.65" y2="44.12"/>
    <text class="cls-1" transform="translate(540.09 41.13)"><tspan x="0" y="0">d</tspan></text>
    <line class="cls-8" x1="538.3" y1="73.54" x2="545.65" y2="73.54"/>
    <text class="cls-1" transform="translate(531.91 70.54)"><tspan x="0" y="0">ena</tspan></text>
    <line class="cls-8" x1="538.3" y1="117.66" x2="545.65" y2="117.66"/>
    <text class="cls-1" transform="translate(536.01 114.67)"><tspan x="0" y="0">rst</tspan></text>
    <line class="cls-8" x1="670.66" y1="66.18" x2="663.31" y2="66.18"/>
    <text class="cls-1" transform="translate(667.72 63.19)"><tspan x="0" y="0">q</tspan></text>
    <line class="cls-8" x1="553" y1="58.83" x2="545.65" y2="58.83"/>
    <line class="cls-8" x1="553" y1="44.12" x2="545.65" y2="44.12"/>
    <line class="cls-8" x1="553" y1="73.54" x2="545.65" y2="73.54"/>
    <line class="cls-8" x1="553" y1="117.66" x2="545.65" y2="117.66"/>
    <line class="cls-8" x1="655.96" y1="66.18" x2="663.31" y2="66.18"/>
    <polygon class="cls-6" points="67.65 455.93 62.51 461.08 52.21 461.08 52.21 450.79 62.51 450.79 67.65 455.93"/>
    <text class="cls-2" transform="translate(29.64 459.1)"><tspan x="0" y="0">Load</tspan></text>
    <polygon class="cls-6" points="67.65 301.5 62.51 306.65 52.21 306.65 52.21 296.36 62.51 296.36 67.65 301.5"/>
    <text class="cls-2" transform="translate(20.34 304.67)"><tspan x="0" y="0">UpDwn</tspan></text>
    <polygon class="cls-5" points="122.81 239 122.81 250.03 141.19 250.03 143.4 250.03 145.6 249.29 147.08 248.56 148.55 247.09 150.75 244.88 151.49 243.41 152.22 241.2 152.22 239 152.22 236.79 151.49 234.59 150.75 233.11 149.28 231.64 147.08 229.44 145.6 228.7 143.4 227.97 141.19 227.97 122.81 227.97 122.81 239"/>
    <polygon class="cls-16" points="119.13 235.32 119.13 246.35 137.52 246.35 139.72 246.35 141.93 245.62 143.4 244.88 144.87 243.41 147.08 241.2 147.81 239.73 148.55 237.53 148.55 235.32 148.55 233.11 147.81 230.91 147.08 229.44 145.6 227.97 143.4 225.76 141.93 225.03 139.72 224.29 137.52 224.29 119.13 224.29 119.13 235.32"/>
    <polyline class="cls-11" points="119.13 235.32 119.13 246.35 137.52 246.35"/>
    <path class="cls-11" d="M137.52,224.29h0c6.09,0,11.03,4.94,11.03,11.03s-4.94,11.03-11.03,11.03"/>
    <polyline class="cls-11" points="137.52 224.29 119.13 224.29 119.13 235.32"/>
    <line class="cls-11" x1="119.13" y1="224.29" x2="119.13" y2="217.67"/>
    <line class="cls-11" x1="119.13" y1="246.35" x2="119.13" y2="252.97"/>
    <text class="cls-2" transform="translate(120.6 221.73)"><tspan x="0" y="0">aux_a[0]</tspan></text>
    <line class="cls-8" x1="111.78" y1="220.61" x2="119.13" y2="220.61"/>
    <line class="cls-8" x1="111.78" y1="235.32" x2="119.13" y2="235.32"/>
    <line class="cls-8" x1="111.78" y1="250.03" x2="119.13" y2="250.03"/>
    <line class="cls-8" x1="155.9" y1="235.32" x2="148.55" y2="235.32"/>
    <polygon class="cls-5" points="122.81 40.45 122.81 51.48 141.19 51.48 143.4 51.48 145.6 50.74 147.08 50.01 148.55 48.53 150.75 46.33 151.49 44.86 152.22 42.65 152.22 40.45 152.22 38.24 151.49 36.03 150.75 34.56 149.28 33.09 147.08 30.89 145.6 30.15 143.4 29.42 141.19 29.42 122.81 29.42 122.81 40.45"/>
    <polygon class="cls-16" points="119.13 36.77 119.13 47.8 137.52 47.8 139.72 47.8 141.93 47.06 143.4 46.33 144.87 44.86 147.08 42.65 147.81 41.18 148.55 38.97 148.55 36.77 148.55 34.56 147.81 32.36 147.08 30.89 145.6 29.42 143.4 27.21 141.93 26.47 139.72 25.74 137.52 25.74 119.13 25.74 119.13 36.77"/>
    <polyline class="cls-11" points="119.13 36.77 119.13 47.8 137.52 47.8"/>
    <path class="cls-11" d="M137.52,25.74h0c6.09,0,11.03,4.94,11.03,11.03s-4.94,11.03-11.03,11.03"/>
    <polyline class="cls-11" points="137.52 25.74 119.13 25.74 119.13 36.77"/>
    <line class="cls-11" x1="119.13" y1="25.74" x2="119.13" y2="19.12"/>
    <line class="cls-11" x1="119.13" y1="47.8" x2="119.13" y2="54.42"/>
    <text class="cls-2" transform="translate(120.6 23.18)"><tspan x="0" y="0">aux_a[1]</tspan></text>
    <line class="cls-8" x1="111.78" y1="22.06" x2="119.13" y2="22.06"/>
    <path class="cls-8" d="M119.13,36.77c0-1.22-.99-2.21-2.21-2.21s-2.21.99-2.21,2.21.99,2.21,2.21,2.21,2.21-.99,2.21-2.21"/>
    <line class="cls-8" x1="111.78" y1="36.77" x2="114.72" y2="36.77"/>
    <path class="cls-8" d="M119.13,51.48c0-1.22-.99-2.21-2.21-2.21s-2.21.99-2.21,2.21.99,2.21,2.21,2.21,2.21-.99,2.21-2.21"/>
    <line class="cls-8" x1="111.78" y1="51.48" x2="114.72" y2="51.48"/>
    <line class="cls-8" x1="155.9" y1="36.77" x2="148.55" y2="36.77"/>
    <polygon class="cls-5" points="122.81 187.52 122.81 198.55 141.19 198.55 143.4 198.55 145.6 197.82 147.08 197.08 148.55 195.61 150.75 193.4 151.49 191.93 152.22 189.73 152.22 187.52 152.22 185.31 151.49 183.11 150.75 181.64 149.28 180.17 147.08 177.96 145.6 177.23 143.4 176.49 141.19 176.49 122.81 176.49 122.81 187.52"/>
    <polygon class="cls-16" points="119.13 183.84 119.13 194.87 137.52 194.87 139.72 194.87 141.93 194.14 143.4 193.4 144.87 191.93 147.08 189.73 147.81 188.26 148.55 186.05 148.55 183.84 148.55 181.64 147.81 179.43 147.08 177.96 145.6 176.49 143.4 174.28 141.93 173.55 139.72 172.81 137.52 172.81 119.13 172.81 119.13 183.84"/>
    <polyline class="cls-11" points="119.13 183.84 119.13 194.87 137.52 194.87"/>
    <path class="cls-11" d="M137.52,172.81h0c6.09,0,11.03,4.94,11.03,11.03s-4.94,11.03-11.03,11.03"/>
    <polyline class="cls-11" points="137.52 172.81 119.13 172.81 119.13 183.84"/>
    <line class="cls-11" x1="119.13" y1="172.81" x2="119.13" y2="158.84"/>
    <line class="cls-11" x1="119.13" y1="194.87" x2="119.13" y2="208.85"/>
    <text class="cls-2" transform="translate(120.6 170.25)"><tspan x="0" y="0">aux_a[2]</tspan></text>
    <line class="cls-8" x1="111.78" y1="161.78" x2="119.13" y2="161.78"/>
    <line class="cls-8" x1="111.78" y1="176.49" x2="119.13" y2="176.49"/>
    <line class="cls-8" x1="111.78" y1="191.2" x2="119.13" y2="191.2"/>
    <line class="cls-8" x1="111.78" y1="205.91" x2="119.13" y2="205.91"/>
    <line class="cls-8" x1="155.9" y1="183.84" x2="148.55" y2="183.84"/>
    <polygon class="cls-5" points="122.81 91.92 122.81 102.95 141.19 102.95 143.4 102.95 145.6 102.22 147.08 101.48 148.55 100.01 150.75 97.81 151.49 96.33 152.22 94.13 152.22 91.92 152.22 89.72 151.49 87.51 150.75 86.04 149.28 84.57 147.08 82.36 145.6 81.63 143.4 80.89 141.19 80.89 122.81 80.89 122.81 91.92"/>
    <polygon class="cls-16" points="119.13 88.25 119.13 99.28 137.52 99.28 139.72 99.28 141.93 98.54 143.4 97.81 144.87 96.33 147.08 94.13 147.81 92.66 148.55 90.45 148.55 88.25 148.55 86.04 147.81 83.83 147.08 82.36 145.6 80.89 143.4 78.69 141.93 77.95 139.72 77.21 137.52 77.21 119.13 77.21 119.13 88.25"/>
    <polyline class="cls-11" points="119.13 88.25 119.13 99.28 137.52 99.28"/>
    <path class="cls-11" d="M137.52,77.21h0c6.09,0,11.03,4.94,11.03,11.03s-4.94,11.03-11.03,11.03"/>
    <polyline class="cls-11" points="137.52 77.21 119.13 77.21 119.13 88.25"/>
    <line class="cls-11" x1="119.13" y1="77.21" x2="119.13" y2="63.24"/>
    <line class="cls-11" x1="119.13" y1="99.28" x2="119.13" y2="113.25"/>
    <text class="cls-2" transform="translate(120.6 74.65)"><tspan x="0" y="0">aux_a[3]</tspan></text>
    <line class="cls-8" x1="111.78" y1="66.18" x2="119.13" y2="66.18"/>
    <path class="cls-8" d="M119.13,80.89c0-1.22-.99-2.21-2.21-2.21s-2.21.99-2.21,2.21.99,2.21,2.21,2.21,2.21-.99,2.21-2.21"/>
    <line class="cls-8" x1="111.78" y1="80.89" x2="114.72" y2="80.89"/>
    <path class="cls-8" d="M119.13,95.6c0-1.22-.99-2.21-2.21-2.21s-2.21.99-2.21,2.21.99,2.21,2.21,2.21,2.21-.99,2.21-2.21"/>
    <line class="cls-8" x1="111.78" y1="95.6" x2="114.72" y2="95.6"/>
    <path class="cls-8" d="M119.13,110.31c0-1.22-.99-2.21-2.21-2.21s-2.21.99-2.21,2.21.99,2.21,2.21,2.21,2.21-.99,2.21-2.21"/>
    <line class="cls-8" x1="111.78" y1="110.31" x2="114.72" y2="110.31"/>
    <line class="cls-8" x1="155.9" y1="88.25" x2="148.55" y2="88.25"/>
    <polygon class="cls-5" points="235.32 255.91 264.74 266.94 264.74 289 235.32 300.03 235.32 255.91"/>
    <polygon class="cls-17" points="232.38 252.97 261.79 264 261.79 286.06 232.38 297.09 232.38 252.97"/>
    <polygon class="cls-11" points="232.38 252.97 261.79 264 261.79 286.06 232.38 297.09 232.38 252.97"/>
    <polygon class="cls-16" points="229.44 250.03 258.85 261.06 258.85 283.12 229.44 294.15 229.44 250.03"/>
    <polygon class="cls-11" points="229.44 250.03 258.85 261.06 258.85 283.12 229.44 294.15 229.44 250.03"/>
    <text class="cls-2" transform="translate(247.09 252.61)"><tspan x="0" y="0">aux_b[2..0]</tspan></text>
    <line class="cls-12" x1="222.08" y1="264.74" x2="229.44" y2="264.74"/>
    <text class="cls-1" transform="translate(223.88 262.48)"><tspan x="0" y="0">0</tspan></text>
    <line class="cls-12" x1="222.08" y1="279.44" x2="229.44" y2="279.44"/>
    <text class="cls-1" transform="translate(223.88 277.19)"><tspan x="0" y="0">1</tspan></text>
    <line class="cls-12" x1="244.14" y1="250.03" x2="244.14" y2="255.91"/>
    <line class="cls-12" x1="266.21" y1="272.09" x2="258.85" y2="272.09"/>
    <polygon class="cls-5" points="122.81 143.4 122.81 154.43 141.19 154.43 143.4 154.43 145.6 153.69 147.08 152.96 148.55 151.49 150.75 149.28 151.49 147.81 152.22 145.6 152.22 143.4 152.22 141.19 151.49 138.99 150.75 137.52 149.28 136.04 147.08 133.84 145.6 133.1 143.4 132.37 141.19 132.37 122.81 132.37 122.81 143.4"/>
    <polygon class="cls-16" points="119.13 139.72 119.13 150.75 137.52 150.75 139.72 150.75 141.93 150.02 143.4 149.28 144.87 147.81 147.08 145.6 147.81 144.13 148.55 141.93 148.55 139.72 148.55 137.52 147.81 135.31 147.08 133.84 145.6 132.37 143.4 130.16 141.93 129.43 139.72 128.69 137.52 128.69 119.13 128.69 119.13 139.72"/>
    <polyline class="cls-11" points="119.13 139.72 119.13 150.75 137.52 150.75"/>
    <path class="cls-11" d="M137.52,128.69h0c6.09,0,11.03,4.94,11.03,11.03s-4.94,11.03-11.03,11.03"/>
    <polyline class="cls-11" points="137.52 128.69 119.13 128.69 119.13 139.72"/>
    <text class="cls-2" transform="translate(120.6 126.13)"><tspan x="0" y="0">aux_b~0</tspan></text>
    <path class="cls-8" d="M119.13,147.08c0-1.22-.99-2.21-2.21-2.21s-2.21.99-2.21,2.21.99,2.21,2.21,2.21,2.21-.99,2.21-2.21"/>
    <line class="cls-8" x1="111.78" y1="147.08" x2="114.72" y2="147.08"/>
    <line class="cls-8" x1="111.78" y1="132.37" x2="119.13" y2="132.37"/>
    <line class="cls-8" x1="155.9" y1="139.72" x2="148.55" y2="139.72"/>
    <polygon class="cls-5" points="122.81 283.12 122.81 294.15 141.19 294.15 143.4 294.15 145.6 293.42 147.08 292.68 148.55 291.21 150.75 289 151.49 287.53 152.22 285.33 152.22 283.12 152.22 280.91 151.49 278.71 150.75 277.24 149.28 275.77 147.08 273.56 145.6 272.82 143.4 272.09 141.19 272.09 122.81 272.09 122.81 283.12"/>
    <polygon class="cls-16" points="119.13 279.44 119.13 290.47 137.52 290.47 139.72 290.47 141.93 289.74 143.4 289 144.87 287.53 147.08 285.33 147.81 283.86 148.55 281.65 148.55 279.44 148.55 277.24 147.81 275.03 147.08 273.56 145.6 272.09 143.4 269.88 141.93 269.15 139.72 268.41 137.52 268.41 119.13 268.41 119.13 279.44"/>
    <polyline class="cls-11" points="119.13 279.44 119.13 290.47 137.52 290.47"/>
    <path class="cls-11" d="M137.52,268.41h0c6.09,0,11.03,4.94,11.03,11.03s-4.94,11.03-11.03,11.03"/>
    <polyline class="cls-11" points="137.52 268.41 119.13 268.41 119.13 279.44"/>
    <text class="cls-2" transform="translate(120.6 265.85)"><tspan x="0" y="0">aux_b~1</tspan></text>
    <line class="cls-8" x1="111.78" y1="286.8" x2="119.13" y2="286.8"/>
    <line class="cls-8" x1="111.78" y1="272.09" x2="119.13" y2="272.09"/>
    <line class="cls-8" x1="155.9" y1="279.44" x2="148.55" y2="279.44"/>
    <polygon class="cls-6" points="67.65 316.21 62.51 321.36 52.21 321.36 52.21 311.06 62.51 311.06 67.65 316.21"/>
    <text class="cls-2" transform="translate(38.49 319.38)"><tspan x="0" y="0">clk</tspan></text>
    <polygon class="cls-9" points="707.43 88.25 707.43 83.1 717.73 83.1 722.87 88.25 717.73 93.39 707.43 93.39 707.43 88.25"/>
    <text class="cls-2" transform="translate(728.76 91.41)"><tspan x="0" y="0">counter[3..0]</tspan></text>
    <polygon class="cls-5" points="375.04 351.51 404.46 362.54 404.46 384.6 375.04 395.63 375.04 351.51"/>
    <polygon class="cls-17" points="372.1 348.57 401.52 359.6 401.52 381.66 372.1 392.69 372.1 348.57"/>
    <polygon class="cls-11" points="372.1 348.57 401.52 359.6 401.52 381.66 372.1 392.69 372.1 348.57"/>
    <polygon class="cls-16" points="369.16 345.63 398.57 356.66 398.57 378.72 369.16 389.75 369.16 345.63"/>
    <polygon class="cls-11" points="369.16 345.63 398.57 356.66 398.57 378.72 369.16 389.75 369.16 345.63"/>
    <text class="cls-2" transform="translate(386.81 348.21)"><tspan x="0" y="0">datain[3..0]</tspan></text>
    <path class="cls-12" d="M369.16,360.33c0-1.22-.99-2.21-2.21-2.21s-2.21.99-2.21,2.21.99,2.21,2.21,2.21,2.21-.99,2.21-2.21"/>
    <line class="cls-12" x1="361.81" y1="360.33" x2="364.75" y2="360.33"/>
    <text class="cls-1" transform="translate(360.66 358.08)"><tspan x="0" y="0">0</tspan></text>
    <line class="cls-12" x1="361.81" y1="375.04" x2="369.16" y2="375.04"/>
    <text class="cls-1" transform="translate(360.66 372.78)"><tspan x="0" y="0">1</tspan></text>
    <line class="cls-12" x1="383.87" y1="345.63" x2="383.87" y2="351.51"/>
    <line class="cls-12" x1="405.93" y1="367.69" x2="398.57" y2="367.69"/>
    <polygon class="cls-5" points="372.84 441.23 374.31 442.7 375.78 444.9 376.51 446.37 377.25 448.58 377.98 450.79 377.98 453.73 377.25 455.93 376.51 458.14 375.78 459.61 374.31 461.82 372.84 463.29 383.87 463.29 386.07 463.29 388.28 462.55 390.48 461.82 391.96 461.08 394.16 460.35 396.37 458.87 397.84 457.4 399.31 455.93 400.78 454.46 402.25 452.26 400.78 450.05 399.31 448.58 397.84 447.11 396.37 445.64 394.16 444.17 391.96 443.43 390.48 442.7 388.28 441.96 386.07 441.23 383.87 441.23 372.84 441.23"/>
    <polygon class="cls-16" points="369.16 437.55 370.63 439.02 372.1 441.23 372.84 442.7 373.57 444.9 374.31 447.11 374.31 450.05 373.57 452.26 372.84 454.46 372.1 455.93 370.63 458.14 369.16 459.61 380.19 459.61 382.4 459.61 384.6 458.87 386.81 458.14 388.28 457.4 390.48 456.67 392.69 455.2 394.16 453.73 395.63 452.26 397.1 450.79 398.57 448.58 397.1 446.37 395.63 444.9 394.16 443.43 392.69 441.96 390.48 440.49 388.28 439.76 386.81 439.02 384.6 438.28 382.4 437.55 380.19 437.55 369.16 437.55"/>
    <path class="cls-11" d="M369.16,459.61c.65-.54,1.24-1.14,1.79-1.79,5.11-6.09,4.31-15.17-1.79-20.28"/>
    <line class="cls-11" x1="369.16" y1="459.61" x2="380.19" y2="459.61"/>
    <path class="cls-11" d="M398.57,448.58c-4.05,6.37-10.86,10.45-18.38,11.03"/>
    <path class="cls-11" d="M380.19,437.55c7.52.58,14.33,4.67,18.38,11.03"/>
    <line class="cls-11" x1="380.19" y1="437.55" x2="369.16" y2="437.55"/>
    <text class="cls-2" transform="translate(370.63 434.99)"><tspan x="0" y="0">enables[0]</tspan></text>
    <line class="cls-8" x1="361.81" y1="441.23" x2="372.1" y2="441.23"/>
    <line class="cls-8" x1="361.81" y1="455.93" x2="372.1" y2="455.93"/>
    <line class="cls-8" x1="405.93" y1="448.58" x2="398.57" y2="448.58"/>
    <polygon class="cls-5" points="375.04 263.26 404.46 274.3 404.46 296.36 375.04 307.39 375.04 263.26"/>
    <polygon class="cls-17" points="372.1 260.32 401.52 271.35 401.52 293.42 372.1 304.45 372.1 260.32"/>
    <polygon class="cls-11" points="372.1 260.32 401.52 271.35 401.52 293.42 372.1 304.45 372.1 260.32"/>
    <polygon class="cls-16" points="369.16 257.38 398.57 268.41 398.57 290.47 369.16 301.5 369.16 257.38"/>
    <polygon class="cls-11" points="369.16 257.38 398.57 268.41 398.57 290.47 369.16 301.5 369.16 257.38"/>
    <text class="cls-2" transform="translate(386.81 259.97)"><tspan x="0" y="0">enables[3..1]</tspan></text>
    <line class="cls-12" x1="361.81" y1="272.09" x2="369.16" y2="272.09"/>
    <text class="cls-1" transform="translate(363.6 269.83)"><tspan x="0" y="0">0</tspan></text>
    <line class="cls-12" x1="361.81" y1="286.8" x2="369.16" y2="286.8"/>
    <text class="cls-1" transform="translate(363.6 284.54)"><tspan x="0" y="0">1</tspan></text>
    <text class="cls-4" transform="translate(344.39 284.23)"><tspan x="0" y="0">3&apos;h7</tspan></text>
    <line class="cls-12" x1="383.87" y1="257.38" x2="383.87" y2="263.26"/>
    <line class="cls-12" x1="405.93" y1="279.44" x2="398.57" y2="279.44"/>
    <polygon class="cls-6" points="67.65 22.06 62.51 27.21 52.21 27.21 52.21 16.91 62.51 16.91 67.65 22.06"/>
    <text class="cls-2" transform="translate(34.55 25.23)"><tspan x="0" y="0">ena</tspan></text>
    <rect class="cls-5" x="549.33" y="340.48" width="44.12" height="75.01"/>
    <rect class="cls-15" x="545.65" y="336.8" width="44.12" height="75.01"/>
    <rect class="cls-11" x="545.65" y="336.8" width="44.12" height="75.01"/>
    <line class="cls-10" x1="553.74" y1="340.48" x2="553.74" y2="349.3"/>
    <line class="cls-10" x1="549.33" y1="344.89" x2="558.15" y2="344.89"/>
    <rect class="cls-11" x="547.86" y="339.01" width="11.77" height="11.77"/>
    <text class="cls-2" transform="translate(541.72 333.51)"><tspan x="0" y="0">my_dff:DUT0</tspan></text>
    <line class="cls-8" x1="538.3" y1="360.33" x2="545.65" y2="360.33"/>
    <text class="cls-1" transform="translate(535.19 358.08)"><tspan x="0" y="0">clk</tspan></text>
    <line class="cls-8" x1="538.3" y1="375.04" x2="545.65" y2="375.04"/>
    <text class="cls-1" transform="translate(540.09 372.78)"><tspan x="0" y="0">d</tspan></text>
    <line class="cls-8" x1="538.3" y1="389.75" x2="545.65" y2="389.75"/>
    <text class="cls-1" transform="translate(531.91 387.49)"><tspan x="0" y="0">ena</tspan></text>
    <line class="cls-8" x1="538.3" y1="404.46" x2="545.65" y2="404.46"/>
    <text class="cls-1" transform="translate(536.01 402.2)"><tspan x="0" y="0">rst</tspan></text>
    <line class="cls-8" x1="597.13" y1="375.04" x2="589.77" y2="375.04"/>
    <text class="cls-1" transform="translate(594.18 372.78)"><tspan x="0" y="0">q</tspan></text>
    <line class="cls-8" x1="553" y1="360.33" x2="545.65" y2="360.33"/>
    <line class="cls-8" x1="553" y1="375.04" x2="545.65" y2="375.04"/>
    <line class="cls-8" x1="553" y1="389.75" x2="545.65" y2="389.75"/>
    <line class="cls-8" x1="553" y1="404.46" x2="545.65" y2="404.46"/>
    <line class="cls-8" x1="582.42" y1="375.04" x2="589.77" y2="375.04"/>
    <polygon class="cls-6" points="67.65 404.46 62.51 409.6 52.21 409.6 52.21 399.31 62.51 399.31 67.65 404.46"/>
    <text class="cls-2" transform="translate(39.47 407.63)"><tspan x="0" y="0">rst</tspan></text>
    <rect class="cls-5" x="593.45" y="33.09" width="44.12" height="73.54"/>
    <rect class="cls-16" x="589.77" y="29.42" width="44.12" height="73.54"/>
    <rect class="cls-11" x="589.77" y="29.42" width="44.12" height="73.54"/>
    <polyline class="cls-11" points="589.77 61.04 594.92 58.83 589.77 56.62"/>
    <text class="cls-2" transform="translate(597.97 26.12)"><tspan x="0" y="0">q~reg0</tspan></text>
    <line class="cls-8" x1="582.42" y1="44.12" x2="589.77" y2="44.12"/>
    <text class="cls-1" transform="translate(591.24 46.76)"><tspan x="0" y="0">D</tspan></text>
    <line class="cls-8" x1="582.42" y1="58.83" x2="589.77" y2="58.83"/>
    <text class="cls-1" transform="translate(596.39 61.47)"><tspan x="0" y="0">CLK</tspan></text>
    <line class="cls-8" x1="604.48" y1="110.31" x2="604.48" y2="102.95"/>
    <text class="cls-1" transform="translate(602.27 99.96)"><tspan x="0" y="0">CLRN</tspan></text>
    <line class="cls-8" x1="582.42" y1="73.54" x2="589.77" y2="73.54"/>
    <text class="cls-1" transform="translate(591.24 76.18)"><tspan x="0" y="0">ENA</tspan></text>
    <line class="cls-8" x1="582.42" y1="88.25" x2="589.77" y2="88.25"/>
    <text class="cls-1" transform="translate(591.24 90.89)"><tspan x="0" y="0">SCLR</tspan></text>
    <text class="cls-4" transform="translate(571.62 85.68)"><tspan x="0" y="0">1&apos;h0</tspan></text>
    <line class="cls-8" x1="641.25" y1="66.18" x2="633.89" y2="66.18"/>
    <text class="cls-1" transform="translate(626.7 68.82)"><tspan x="0" y="0">Q</tspan></text>
    <rect class="cls-5" x="549.33" y="149.28" width="44.12" height="75.01"/>
    <rect class="cls-15" x="545.65" y="145.6" width="44.12" height="75.01"/>
    <rect class="cls-11" x="545.65" y="145.6" width="44.12" height="75.01"/>
    <line class="cls-10" x1="553.74" y1="149.28" x2="553.74" y2="158.11"/>
    <line class="cls-10" x1="549.33" y1="153.69" x2="558.15" y2="153.69"/>
    <rect class="cls-11" x="547.86" y="147.81" width="11.77" height="11.77"/>
    <text class="cls-2" transform="translate(541.72 142.31)"><tspan x="0" y="0">my_dff:DUT2</tspan></text>
    <line class="cls-8" x1="538.3" y1="169.14" x2="545.65" y2="169.14"/>
    <text class="cls-1" transform="translate(535.19 166.88)"><tspan x="0" y="0">clk</tspan></text>
    <line class="cls-8" x1="538.3" y1="183.84" x2="545.65" y2="183.84"/>
    <text class="cls-1" transform="translate(540.09 181.59)"><tspan x="0" y="0">d</tspan></text>
    <line class="cls-8" x1="538.3" y1="198.55" x2="545.65" y2="198.55"/>
    <text class="cls-1" transform="translate(531.91 196.29)"><tspan x="0" y="0">ena</tspan></text>
    <line class="cls-8" x1="538.3" y1="213.26" x2="545.65" y2="213.26"/>
    <text class="cls-1" transform="translate(536.01 211)"><tspan x="0" y="0">rst</tspan></text>
    <line class="cls-8" x1="597.13" y1="183.84" x2="589.77" y2="183.84"/>
    <text class="cls-1" transform="translate(594.18 181.59)"><tspan x="0" y="0">q</tspan></text>
    <line class="cls-8" x1="553" y1="169.14" x2="545.65" y2="169.14"/>
    <line class="cls-8" x1="553" y1="183.84" x2="545.65" y2="183.84"/>
    <line class="cls-8" x1="553" y1="198.55" x2="545.65" y2="198.55"/>
    <line class="cls-8" x1="553" y1="213.26" x2="545.65" y2="213.26"/>
    <line class="cls-8" x1="582.42" y1="183.84" x2="589.77" y2="183.84"/>
    <rect class="cls-5" x="549.33" y="244.88" width="44.12" height="75.01"/>
    <rect class="cls-15" x="545.65" y="241.2" width="44.12" height="75.01"/>
    <rect class="cls-11" x="545.65" y="241.2" width="44.12" height="75.01"/>
    <line class="cls-10" x1="553.74" y1="244.88" x2="553.74" y2="253.7"/>
    <line class="cls-10" x1="549.33" y1="249.29" x2="558.15" y2="249.29"/>
    <rect class="cls-11" x="547.86" y="243.41" width="11.77" height="11.77"/>
    <text class="cls-2" transform="translate(541.72 237.91)"><tspan x="0" y="0">my_dff:DUT3</tspan></text>
    <line class="cls-8" x1="538.3" y1="264.74" x2="545.65" y2="264.74"/>
    <text class="cls-1" transform="translate(535.19 262.48)"><tspan x="0" y="0">clk</tspan></text>
    <line class="cls-8" x1="538.3" y1="279.44" x2="545.65" y2="279.44"/>
    <text class="cls-1" transform="translate(540.09 277.19)"><tspan x="0" y="0">d</tspan></text>
    <line class="cls-8" x1="538.3" y1="294.15" x2="545.65" y2="294.15"/>
    <text class="cls-1" transform="translate(531.91 291.89)"><tspan x="0" y="0">ena</tspan></text>
    <line class="cls-8" x1="538.3" y1="308.86" x2="545.65" y2="308.86"/>
    <text class="cls-1" transform="translate(536.01 306.6)"><tspan x="0" y="0">rst</tspan></text>
    <line class="cls-8" x1="597.13" y1="279.44" x2="589.77" y2="279.44"/>
    <text class="cls-1" transform="translate(594.18 277.19)"><tspan x="0" y="0">q</tspan></text>
    <line class="cls-8" x1="553" y1="264.74" x2="545.65" y2="264.74"/>
    <line class="cls-8" x1="553" y1="279.44" x2="545.65" y2="279.44"/>
    <line class="cls-8" x1="553" y1="294.15" x2="545.65" y2="294.15"/>
    <line class="cls-8" x1="553" y1="308.86" x2="545.65" y2="308.86"/>
    <line class="cls-8" x1="582.42" y1="279.44" x2="589.77" y2="279.44"/>
    <polygon class="cls-9" points="67.65 375.04 62.51 380.19 52.21 380.19 52.21 369.89 62.51 369.89 67.65 375.04"/>
    <text class="cls-2" transform="translate(11.01 378.21)"><tspan x="0" y="0">Data[3..0]</tspan></text>
    <polyline class="cls-10" points="207.38 34.56 207.38 264.74 222.08 264.74"/>
    <line class="cls-11" x1="155.9" y1="36.77" x2="207.38" y2="36.77"/>
    <line class="cls-11" x1="155.9" y1="88.25" x2="207.38" y2="88.25"/>
    <line class="cls-11" x1="155.9" y1="139.72" x2="207.38" y2="139.72"/>
    <polyline points="208.11 33.09 208.11 40.45 200.02 36.77"/>
    <polyline points="208.11 84.57 208.11 91.92 200.02 88.25"/>
    <polyline points="208.11 136.04 208.11 143.4 200.02 139.72"/>
    <line class="cls-10" x1="177.96" y1="181.64" x2="177.96" y2="281.65"/>
    <line class="cls-10" x1="177.96" y1="279.44" x2="222.08" y2="279.44"/>
    <line class="cls-11" x1="155.9" y1="183.84" x2="177.96" y2="183.84"/>
    <line class="cls-11" x1="155.9" y1="235.32" x2="177.96" y2="235.32"/>
    <line class="cls-11" x1="155.9" y1="279.44" x2="177.96" y2="279.44"/>
    <polyline points="178.7 180.17 178.7 187.52 170.61 183.84"/>
    <polyline points="178.7 231.64 178.7 239 170.61 235.32"/>
    <polyline points="178.7 275.77 178.7 283.12 170.61 279.44"/>
    <line class="cls-10" x1="97.07" y1="34.56" x2="97.07" y2="80.89"/>
    <polyline class="cls-10" points="97.07 80.89 97.07 338.27 310.33 338.27 310.33 419.16 692.72 419.16 692.72 63.98"/>
    <line class="cls-10" x1="692.72" y1="88.25" x2="707.43" y2="88.25"/>
    <rect class="cls-13" x="690.52" y="86.04" width="5.15" height="5.15"/>
    <line class="cls-10" x1="310.33" y1="360.33" x2="361.81" y2="360.33"/>
    <rect class="cls-13" x="308.12" y="358.13" width="5.15" height="5.15"/>
    <line class="cls-11" x1="597.13" y1="375.04" x2="692.72" y2="375.04"/>
    <line class="cls-11" x1="597.13" y1="279.44" x2="692.72" y2="279.44"/>
    <line class="cls-11" x1="597.13" y1="183.84" x2="692.72" y2="183.84"/>
    <line class="cls-11" x1="670.66" y1="66.18" x2="692.72" y2="66.18"/>
    <line class="cls-11" x1="97.07" y1="36.77" x2="111.78" y2="36.77"/>
    <line class="cls-11" x1="97.07" y1="51.48" x2="111.78" y2="51.48"/>
    <line class="cls-11" x1="97.07" y1="80.89" x2="111.78" y2="80.89"/>
    <line class="cls-11" x1="97.07" y1="95.6" x2="111.78" y2="95.6"/>
    <line class="cls-11" x1="97.07" y1="110.31" x2="111.78" y2="110.31"/>
    <line class="cls-11" x1="97.07" y1="147.08" x2="111.78" y2="147.08"/>
    <line class="cls-11" x1="97.07" y1="176.49" x2="111.78" y2="176.49"/>
    <line class="cls-11" x1="97.07" y1="191.2" x2="111.78" y2="191.2"/>
    <line class="cls-11" x1="97.07" y1="205.91" x2="111.78" y2="205.91"/>
    <line class="cls-11" x1="97.07" y1="235.32" x2="111.78" y2="235.32"/>
    <line class="cls-11" x1="97.07" y1="250.03" x2="111.78" y2="250.03"/>
    <line class="cls-11" x1="97.07" y1="286.8" x2="111.78" y2="286.8"/>
    <polyline points="693.46 371.37 693.46 378.72 685.37 375.04"/>
    <polyline points="693.46 275.77 693.46 283.12 685.37 279.44"/>
    <polyline points="693.46 180.17 693.46 187.52 685.37 183.84"/>
    <polyline points="693.46 62.51 693.46 69.86 685.37 66.18"/>
    <polyline points="96.33 33.09 96.33 40.45 104.42 36.77"/>
    <polyline points="96.33 47.8 96.33 55.15 104.42 51.48"/>
    <polyline points="96.33 77.21 96.33 84.57 104.42 80.89"/>
    <polyline points="96.33 91.92 96.33 99.28 104.42 95.6"/>
    <polyline points="96.33 106.63 96.33 113.98 104.42 110.31"/>
    <polyline points="96.33 143.4 96.33 150.75 104.42 147.08"/>
    <polyline points="96.33 172.81 96.33 180.17 104.42 176.49"/>
    <polyline points="96.33 187.52 96.33 194.87 104.42 191.2"/>
    <polyline points="96.33 202.23 96.33 209.58 104.42 205.91"/>
    <polyline points="96.33 231.64 96.33 239 104.42 235.32"/>
    <polyline points="96.33 246.35 96.33 253.7 104.42 250.03"/>
    <polyline points="96.33 283.12 96.33 290.47 104.42 286.8"/>
    <polyline class="cls-11" points="405.93 448.58 516.23 448.58 516.23 389.75 538.3 389.75"/>
    <line class="cls-11" x1="67.65" y1="316.21" x2="486.82" y2="316.21"/>
    <rect class="cls-13" x="485.35" y="167.67" width="3.68" height="3.68"/>
    <rect class="cls-13" x="485.35" y="263.26" width="3.68" height="3.68"/>
    <rect class="cls-13" x="485.35" y="314.74" width="3.68" height="3.68"/>
    <polyline class="cls-11" points="538.3 58.83 486.82 58.83 486.82 360.33 538.3 360.33"/>
    <line class="cls-11" x1="486.82" y1="169.14" x2="538.3" y2="169.14"/>
    <line class="cls-11" x1="486.82" y1="264.74" x2="538.3" y2="264.74"/>
    <line class="cls-11" x1="67.65" y1="404.46" x2="501.53" y2="404.46"/>
    <rect class="cls-13" x="500.06" y="211.79" width="3.68" height="3.68"/>
    <rect class="cls-13" x="500.06" y="307.39" width="3.68" height="3.68"/>
    <rect class="cls-13" x="500.06" y="402.99" width="3.68" height="3.68"/>
    <polyline class="cls-11" points="538.3 117.66 501.53 117.66 501.53 404.46 538.3 404.46"/>
    <line class="cls-11" x1="501.53" y1="213.26" x2="538.3" y2="213.26"/>
    <line class="cls-11" x1="501.53" y1="308.86" x2="538.3" y2="308.86"/>
    <polyline class="cls-11" points="67.65 22.06 82.36 22.06 82.36 441.23 361.81 441.23"/>
    <line class="cls-11" x1="82.36" y1="22.06" x2="111.78" y2="22.06"/>
    <line class="cls-11" x1="82.36" y1="66.18" x2="111.78" y2="66.18"/>
    <line class="cls-11" x1="82.36" y1="132.37" x2="111.78" y2="132.37"/>
    <line class="cls-11" x1="82.36" y1="161.78" x2="111.78" y2="161.78"/>
    <line class="cls-11" x1="82.36" y1="220.61" x2="111.78" y2="220.61"/>
    <line class="cls-11" x1="82.36" y1="272.09" x2="111.78" y2="272.09"/>
    <rect class="cls-13" x="80.89" y="20.59" width="3.68" height="3.68"/>
    <rect class="cls-13" x="80.89" y="64.71" width="3.68" height="3.68"/>
    <rect class="cls-13" x="80.89" y="130.9" width="3.68" height="3.68"/>
    <rect class="cls-13" x="80.89" y="160.31" width="3.68" height="3.68"/>
    <rect class="cls-13" x="80.89" y="219.14" width="3.68" height="3.68"/>
    <rect class="cls-13" x="80.89" y="270.62" width="3.68" height="3.68"/>
    <polyline class="cls-11" points="67.65 301.5 192.67 301.5 192.67 235.32 244.14 235.32 244.14 250.03"/>
    <line class="cls-11" x1="67.65" y1="455.93" x2="325.04" y2="455.93"/>
    <rect class="cls-13" x="323.57" y="329.45" width="3.68" height="3.68"/>
    <rect class="cls-13" x="323.57" y="454.46" width="3.68" height="3.68"/>
    <polyline class="cls-11" points="383.87 257.38 383.87 242.67 325.04 242.67 325.04 455.93 361.81 455.93"/>
    <polyline class="cls-11" points="325.04 330.92 383.87 330.92 383.87 345.63"/>
    <line class="cls-10" x1="67.65" y1="375.04" x2="361.81" y2="375.04"/>
    <line class="cls-10" x1="457.4" y1="71.33" x2="457.4" y2="296.36"/>
    <line class="cls-10" x1="405.93" y1="279.44" x2="457.4" y2="279.44"/>
    <rect class="cls-13" x="455.2" y="277.24" width="5.15" height="5.15"/>
    <line class="cls-11" x1="457.4" y1="73.54" x2="538.3" y2="73.54"/>
    <line class="cls-11" x1="457.4" y1="198.55" x2="538.3" y2="198.55"/>
    <line class="cls-11" x1="457.4" y1="294.15" x2="538.3" y2="294.15"/>
    <polyline points="456.67 69.86 456.67 77.21 464.76 73.54"/>
    <polyline points="456.67 194.87 456.67 202.23 464.76 198.55"/>
    <polyline points="456.67 290.47 456.67 297.83 464.76 294.15"/>
    <line class="cls-10" x1="472.11" y1="41.92" x2="472.11" y2="377.25"/>
    <line class="cls-10" x1="405.93" y1="367.69" x2="472.11" y2="367.69"/>
    <rect class="cls-13" x="469.91" y="365.48" width="5.15" height="5.15"/>
    <line class="cls-11" x1="472.11" y1="44.12" x2="538.3" y2="44.12"/>
    <line class="cls-11" x1="472.11" y1="183.84" x2="538.3" y2="183.84"/>
    <line class="cls-11" x1="472.11" y1="279.44" x2="538.3" y2="279.44"/>
    <line class="cls-11" x1="472.11" y1="375.04" x2="538.3" y2="375.04"/>
    <polyline points="471.38 40.45 471.38 47.8 479.47 44.12"/>
    <polyline points="471.38 180.17 471.38 187.52 479.47 183.84"/>
    <polyline points="471.38 275.77 471.38 283.12 479.47 279.44"/>
    <polyline points="471.38 371.37 471.38 378.72 479.47 375.04"/>
    <line class="cls-10" x1="266.21" y1="272.09" x2="361.81" y2="272.09"/>
    <line class="cls-11" x1="553" y1="58.83" x2="582.42" y2="58.83"/>
    <polyline class="cls-11" points="553 117.66 604.48 117.66 604.48 110.31"/>
    <line class="cls-11" x1="553" y1="73.54" x2="582.42" y2="73.54"/>
    <line class="cls-11" x1="553" y1="44.12" x2="582.42" y2="44.12"/>
    <line class="cls-11" x1="641.25" y1="66.18" x2="655.96" y2="66.18"/>
    <text class="cls-3" transform="translate(461.81 71.28)"><tspan x="0" y="0">1</tspan></text>
    <text class="cls-3" transform="translate(461.81 196.29)"><tspan x="0" y="0">2</tspan></text>
    <text class="cls-3" transform="translate(461.81 291.89)"><tspan x="0" y="0">3</tspan></text>
    <text class="cls-3" transform="translate(476.52 41.86)"><tspan x="0" y="0">1</tspan></text>
    <text class="cls-3" transform="translate(476.52 181.59)"><tspan x="0" y="0">2</tspan></text>
    <text class="cls-3" transform="translate(476.52 277.19)"><tspan x="0" y="0">3</tspan></text>
    <text class="cls-3" transform="translate(476.52 372.78)"><tspan x="0" y="0">0</tspan></text>
  </g>
</svg>