<?xml version="1.0" encoding="UTF-8"?>
<svg id="Capa_1" xmlns="http://www.w3.org/2000/svg" xmlns:xlink="http://www.w3.org/1999/xlink" viewBox="0 0 792 188.39">
  <defs>
    <style>
      .cls-1 {
        opacity: .41;
      }

      .cls-2, .cls-3 {
        fill: #2d2d2d;
      }

      .cls-4 {
        fill: #fff;
      }

      .cls-5, .cls-6, .cls-7, .cls-8, .cls-9, .cls-10, .cls-11, .cls-12, .cls-13, .cls-14 {
        fill: none;
      }

      .cls-15, .cls-3, .cls-16, .cls-17, .cls-18 {
        font-family: ArialMT, Arial;
      }

      .cls-15, .cls-3, .cls-17 {
        font-size: 9.04px;
      }

      .cls-6, .cls-8, .cls-11, .cls-12 {
        stroke-width: 2.26px;
      }

      .cls-6, .cls-13 {
        stroke: #06476f;
      }

      .cls-7, .cls-9, .cls-10, .cls-13 {
        stroke-width: .75px;
      }

      .cls-7, .cls-11 {
        stroke: blue;
      }

      .cls-8, .cls-9 {
        stroke: #000;
      }

      .cls-16, .cls-17 {
        fill: #06476f;
      }

      .cls-16, .cls-18 {
        font-size: 7.54px;
      }

      .cls-10, .cls-12, .cls-14 {
        stroke: #2d2d2d;
      }

      .cls-19 {
        fill: #73acac;
      }

      .cls-20 {
        fill: #477777;
      }

      .cls-21 {
        clip-path: url(#clippath);
      }

      .cls-14 {
        stroke-width: 1.51px;
      }
    </style>
    <clipPath id="clippath">
      <rect class="cls-5" width="792" height="188.39"/>
    </clipPath>
  </defs>
  <g class="cls-21">
    <rect class="cls-4" width="791.25" height="189.15"/>
    <polygon class="cls-7" points="42.2 52.75 36.92 58.02 26.37 58.02 26.37 47.47 36.92 47.47 42.2 52.75"/>
    <text class="cls-15" transform="translate(12.31 56)"><tspan x="0" y="0">clk</tspan></text>
    <polygon class="cls-7" points="42.2 67.82 36.92 73.1 26.37 73.1 26.37 62.55 36.92 62.55 42.2 67.82"/>
    <text class="cls-15" transform="translate(8.28 71.07)"><tspan x="0" y="0">ena</tspan></text>
    <polygon class="cls-7" points="42.2 150.71 36.92 155.99 26.37 155.99 26.37 145.44 36.92 145.44 42.2 150.71"/>
    <text class="cls-15" transform="translate(13.31 153.96)"><tspan x="0" y="0">rst</tspan></text>
    <line class="cls-10" x1="72.34" y1="97.96" x2="72.34" y2="94.95"/>
    <line class="cls-10" x1="66.31" y1="94.95" x2="78.37" y2="94.95"/>
    <path class="cls-1" d="M181.61,131.87c0-8.32-6.75-15.07-15.07-15.07s-15.07,6.75-15.07,15.07,6.75,15.07,15.07,15.07,15.07-6.75,15.07-15.07"/>
    <path class="cls-19" d="M177.84,128.11c0-8.32-6.75-15.07-15.07-15.07s-15.07,6.75-15.07,15.07,6.75,15.07,15.07,15.07,15.07-6.75,15.07-15.07"/>
    <path class="cls-10" d="M177.84,128.11c0-8.32-6.75-15.07-15.07-15.07s-15.07,6.75-15.07,15.07,6.75,15.07,15.07,15.07,15.07-6.75,15.07-15.07"/>
    <line class="cls-10" x1="147.7" y1="113.04" x2="152.22" y2="117.56"/>
    <line class="cls-10" x1="147.7" y1="143.18" x2="152.22" y2="138.66"/>
    <text class="cls-3" transform="translate(160.13 131.35)"><tspan x="0" y="0">+</tspan></text>
    <text class="cls-15" transform="translate(159 109.66)"><tspan x="0" y="0">Add0</tspan></text>
    <line class="cls-13" x1="140.16" y1="113.04" x2="147.7" y2="113.04"/>
    <text class="cls-16" transform="translate(133.22 110.72)"><tspan x="0" y="0">CIN</tspan></text>
    <text class="cls-17" transform="translate(113.28 110.41)"><tspan x="0" y="0">1&apos;h0</tspan></text>
    <line class="cls-6" x1="140.16" y1="128.11" x2="147.7" y2="128.11"/>
    <text class="cls-16" transform="translate(124.41 125.79)"><tspan x="0" y="0">A[4..0]</tspan></text>
    <line class="cls-6" x1="140.16" y1="143.18" x2="147.7" y2="143.18"/>
    <text class="cls-16" transform="translate(124.41 140.87)"><tspan x="0" y="0">B[4..0]</tspan></text>
    <text class="cls-17" transform="translate(99.96 140.55)"><tspan x="0" y="0">5&apos;h1d</tspan></text>
    <line class="cls-6" x1="185.38" y1="128.11" x2="177.84" y2="128.11"/>
    <text class="cls-16" transform="translate(182.36 125.79)"><tspan x="0" y="0">OUT[4..0]</tspan></text>
    <polygon class="cls-1" points="281.83 96.46 311.98 107.76 311.98 130.37 281.83 141.67 281.83 96.46"/>
    <polygon class="cls-20" points="278.82 93.44 308.96 104.75 308.96 127.35 278.82 138.66 278.82 93.44"/>
    <polygon class="cls-10" points="278.82 93.44 308.96 104.75 308.96 127.35 278.82 138.66 278.82 93.44"/>
    <polygon class="cls-19" points="275.81 90.43 305.95 101.73 305.95 124.34 275.81 135.64 275.81 90.43"/>
    <polygon class="cls-10" points="275.81 90.43 305.95 101.73 305.95 124.34 275.81 135.64 275.81 90.43"/>
    <text class="cls-15" transform="translate(293.89 93.08)"><tspan x="0" y="0">Count_next~[3..0]</tspan></text>
    <line class="cls-6" x1="268.27" y1="105.5" x2="275.81" y2="105.5"/>
    <text class="cls-16" transform="translate(270.11 103.19)"><tspan x="0" y="0">0</tspan></text>
    <line class="cls-6" x1="268.27" y1="120.57" x2="275.81" y2="120.57"/>
    <text class="cls-16" transform="translate(270.11 118.26)"><tspan x="0" y="0">1</tspan></text>
    <line class="cls-6" x1="290.88" y1="90.43" x2="290.88" y2="96.46"/>
    <line class="cls-6" x1="313.48" y1="113.04" x2="305.95" y2="113.04"/>
    <polygon class="cls-1" points="462.69 141.67 492.83 152.97 492.83 175.58 462.69 186.88 462.69 141.67"/>
    <polygon class="cls-20" points="459.68 138.66 489.82 149.96 489.82 172.57 459.68 183.87 459.68 138.66"/>
    <polygon class="cls-10" points="459.68 138.66 489.82 149.96 489.82 172.57 459.68 183.87 459.68 138.66"/>
    <polygon class="cls-19" points="456.66 135.64 486.8 146.95 486.8 169.55 456.66 180.86 456.66 135.64"/>
    <polygon class="cls-10" points="456.66 135.64 486.8 146.95 486.8 169.55 456.66 180.86 456.66 135.64"/>
    <text class="cls-15" transform="translate(474.75 138.29)"><tspan x="0" y="0">Count_next[3..0]</tspan></text>
    <line class="cls-6" x1="449.13" y1="150.71" x2="456.66" y2="150.71"/>
    <text class="cls-16" transform="translate(450.97 148.4)"><tspan x="0" y="0">0</tspan></text>
    <line class="cls-6" x1="449.13" y1="165.78" x2="456.66" y2="165.78"/>
    <text class="cls-16" transform="translate(450.97 163.47)"><tspan x="0" y="0">1</tspan></text>
    <text class="cls-17" transform="translate(431.28 163.16)"><tspan x="0" y="0">4&apos;h0</tspan></text>
    <line class="cls-6" x1="471.73" y1="135.64" x2="471.73" y2="141.67"/>
    <line class="cls-6" x1="494.34" y1="158.25" x2="486.8" y2="158.25"/>
    <rect class="cls-1" x="628.48" y="36.17" width="45.21" height="75.36"/>
    <rect class="cls-20" x="625.46" y="33.16" width="45.21" height="75.36"/>
    <rect class="cls-10" x="625.46" y="33.16" width="45.21" height="75.36"/>
    <rect class="cls-19" x="622.45" y="30.14" width="45.21" height="75.36"/>
    <rect class="cls-10" x="622.45" y="30.14" width="45.21" height="75.36"/>
    <polyline class="cls-10" points="622.45 62.55 627.72 60.29 622.45 58.02"/>
    <text class="cls-15" transform="translate(625.95 26.76)"><tspan x="0" y="0">reg1[3..0]</tspan></text>
    <line class="cls-6" x1="614.91" y1="45.21" x2="622.45" y2="45.21"/>
    <text class="cls-16" transform="translate(623.95 47.92)"><tspan x="0" y="0">D</tspan></text>
    <line class="cls-6" x1="614.91" y1="60.29" x2="622.45" y2="60.29"/>
    <text class="cls-16" transform="translate(629.23 62.99)"><tspan x="0" y="0">CLK</tspan></text>
    <line class="cls-6" x1="637.52" y1="113.04" x2="637.52" y2="105.5"/>
    <text class="cls-16" transform="translate(635.26 102.43)"><tspan x="0" y="0">CLRN</tspan></text>
    <line class="cls-6" x1="614.91" y1="75.36" x2="622.45" y2="75.36"/>
    <text class="cls-16" transform="translate(623.95 78.06)"><tspan x="0" y="0">ENA</tspan></text>
    <line class="cls-6" x1="614.91" y1="90.43" x2="622.45" y2="90.43"/>
    <text class="cls-16" transform="translate(623.95 93.13)"><tspan x="0" y="0">SCLR</tspan></text>
    <text class="cls-17" transform="translate(603.85 87.8)"><tspan x="0" y="0">4&apos;h0</tspan></text>
    <line class="cls-6" x1="675.2" y1="67.82" x2="667.66" y2="67.82"/>
    <text class="cls-16" transform="translate(660.29 70.53)"><tspan x="0" y="0">Q</tspan></text>
    <polygon class="cls-11" points="705.34 15.07 705.34 9.8 715.89 9.8 721.16 15.07 715.89 20.35 705.34 20.35 705.34 15.07"/>
    <text class="cls-15" transform="translate(727.19 18.32)"><tspan x="0" y="0">counter[3..0]</tspan></text>
    <line class="cls-10" x1="72.34" y1="97.96" x2="72.34" y2="124.34"/>
    <line class="cls-9" x1="72.34" y1="124.34" x2="76.11" y2="128.11"/>
    <line class="cls-14" x1="76.11" y1="128.11" x2="140.16" y2="128.11"/>
    <polyline class="cls-12" points="185.38 128.11 253.2 128.11 253.2 120.57 268.27 120.57"/>
    <polyline class="cls-10" points="42.2 52.75 569.7 52.75 569.7 60.29 614.91 60.29"/>
    <polyline class="cls-10" points="42.2 150.71 411.45 150.71 411.45 120.57 637.52 120.57 637.52 113.04"/>
    <rect class="cls-2" x="470.23" y="119.06" width="3.77" height="3.77"/>
    <line class="cls-10" x1="471.73" y1="120.57" x2="471.73" y2="135.64"/>
    <polyline class="cls-10" points="42.2 67.82 253.2 67.82 253.2 75.36 614.91 75.36"/>
    <rect class="cls-2" x="289.37" y="73.85" width="3.77" height="3.77"/>
    <line class="cls-10" x1="290.88" y1="75.36" x2="290.88" y2="90.43"/>
    <line class="cls-12" x1="140.16" y1="128.11" x2="61.04" y2="128.11"/>
    <line class="cls-8" x1="61.04" y1="128.11" x2="57.27" y2="124.34"/>
    <polyline class="cls-12" points="57.27 124.34 57.27 82.89 238.13 82.89"/>
    <rect class="cls-2" x="235.87" y="80.63" width="5.27" height="5.27"/>
    <polyline class="cls-12" points="268.27 105.5 238.13 105.5 238.13 7.54 690.27 7.54 690.27 67.82 675.2 67.82"/>
    <line class="cls-12" x1="690.27" y1="15.07" x2="705.34" y2="15.07"/>
    <rect class="cls-2" x="688.01" y="12.81" width="5.27" height="5.27"/>
    <polyline class="cls-12" points="494.34 158.25 584.77 158.25 584.77 45.21 614.91 45.21"/>
    <polyline class="cls-12" points="313.48 113.04 396.38 113.04 396.38 135.64 418.98 135.64 418.98 150.71 449.13 150.71"/>
    <text class="cls-18" transform="translate(63.44 124.34) rotate(-90)"><tspan x="0" y="0">3:0</tspan></text>
  </g>
</svg>