<?xml version="1.0" encoding="UTF-8"?>
<svg id="Capa_1" xmlns="http://www.w3.org/2000/svg" xmlns:xlink="http://www.w3.org/1999/xlink" viewBox="0 0 792 515.12">
  <defs>
    <style>
      .cls-1, .cls-2, .cls-3, .cls-4, .cls-5, .cls-6, .cls-7, .cls-8, .cls-9, .cls-10 {
        fill: none;
      }

      .cls-1, .cls-5, .cls-7 {
        stroke: #2d2d2d;
      }

      .cls-1, .cls-6, .cls-9, .cls-10 {
        stroke-width: .72px;
      }

      .cls-11 {
        opacity: .41;
      }

      .cls-2, .cls-4, .cls-7, .cls-8 {
        stroke-width: 2.15px;
      }

      .cls-2, .cls-10 {
        stroke: blue;
      }

      .cls-12 {
        fill: #2d2d2d;
      }

      .cls-13 {
        fill: #fff;
      }

      .cls-14 {
        fill: #81bf5f;
      }

      .cls-15, .cls-16 {
        fill: #06476f;
      }

      .cls-15, .cls-16, .cls-17, .cls-18 {
        font-family: ArialMT, Arial;
      }

      .cls-15, .cls-17 {
        font-size: 8.59px;
      }

      .cls-4, .cls-6 {
        stroke: #000;
      }

      .cls-5 {
        stroke-width: 1.43px;
      }

      .cls-16, .cls-18 {
        font-size: 7.15px;
      }

      .cls-8, .cls-9 {
        stroke: #06476f;
      }

      .cls-19 {
        fill: #73acac;
      }

      .cls-20 {
        fill: #477777;
      }

      .cls-21 {
        fill: #dce6dc;
      }

      .cls-22 {
        clip-path: url(#clippath);
      }
    </style>
    <clipPath id="clippath">
      <rect class="cls-3" width="792" height="515.12"/>
    </clipPath>
  </defs>
  <g class="cls-22">
    <rect class="cls-13" width="791.28" height="515.84"/>
    <polygon class="cls-11" points="561.63 118.05 664.65 118.05 666.8 118.76 668.94 119.48 669.66 121.63 670.37 123.77 670.37 219.64 669.66 221.79 668.94 223.93 666.8 224.65 664.65 225.37 561.63 225.37 559.48 224.65 557.33 223.93 556.62 221.79 555.9 219.64 555.9 123.77 556.62 121.63 557.33 119.48 559.48 118.76 561.63 118.05"/>
    <polygon class="cls-21" points="558.05 114.47 661.07 114.47 663.22 115.19 665.37 115.9 666.08 118.05 666.8 120.2 666.8 216.07 666.08 218.21 665.37 220.36 663.22 221.07 661.07 221.79 558.05 221.79 555.9 221.07 553.76 220.36 553.04 218.21 552.33 216.07 552.33 120.2 553.04 118.05 553.76 115.9 555.9 115.19 558.05 114.47"/>
    <line class="cls-1" x1="558.05" y1="114.47" x2="661.07" y2="114.47"/>
    <path class="cls-1" d="M666.8,120.2c0-.08,0-.16,0-.24-.07-3.1-2.63-5.55-5.72-5.49"/>
    <line class="cls-1" x1="666.8" y1="120.2" x2="666.8" y2="216.07"/>
    <path class="cls-1" d="M661.07,221.79c.08,0,.16,0,.24,0,3.1-.07,5.55-2.63,5.49-5.72"/>
    <line class="cls-1" x1="661.07" y1="221.79" x2="558.05" y2="221.79"/>
    <path class="cls-1" d="M552.33,216.07c0,.08,0,.16,0,.24.07,3.1,2.63,5.55,5.72,5.49"/>
    <line class="cls-1" x1="552.33" y1="216.07" x2="552.33" y2="120.2"/>
    <path class="cls-1" d="M558.05,114.47c-.08,0-.16,0-.24,0-3.1.07-5.55,2.63-5.49,5.72"/>
    <line class="cls-7" x1="555.9" y1="122.34" x2="564.49" y2="122.34"/>
    <rect class="cls-1" x="554.47" y="116.62" width="11.45" height="11.45"/>
    <text class="cls-17" transform="translate(588.33 111.26)"><tspan x="0" y="0">my_dff:dff1</tspan></text>
    <line class="cls-9" x1="545.17" y1="157.4" x2="552.33" y2="157.4"/>
    <text class="cls-16" transform="translate(542.15 154.49)"><tspan x="0" y="0">clk</tspan></text>
    <line class="cls-9" x1="545.17" y1="143.09" x2="552.33" y2="143.09"/>
    <text class="cls-16" transform="translate(546.92 140.18)"><tspan x="0" y="0">d</tspan></text>
    <line class="cls-9" x1="545.17" y1="171.71" x2="552.33" y2="171.71"/>
    <text class="cls-16" transform="translate(538.96 168.8)"><tspan x="0" y="0">ena</tspan></text>
    <line class="cls-9" x1="545.17" y1="214.63" x2="552.33" y2="214.63"/>
    <text class="cls-16" transform="translate(542.95 211.72)"><tspan x="0" y="0">rst</tspan></text>
    <line class="cls-9" x1="673.95" y1="164.55" x2="666.8" y2="164.55"/>
    <text class="cls-16" transform="translate(671.09 161.64)"><tspan x="0" y="0">q</tspan></text>
    <line class="cls-9" x1="559.48" y1="157.4" x2="552.33" y2="157.4"/>
    <line class="cls-9" x1="559.48" y1="143.09" x2="552.33" y2="143.09"/>
    <line class="cls-9" x1="559.48" y1="171.71" x2="552.33" y2="171.71"/>
    <line class="cls-9" x1="559.48" y1="214.63" x2="552.33" y2="214.63"/>
    <line class="cls-9" x1="659.64" y1="164.55" x2="666.8" y2="164.55"/>
    <polygon class="cls-10" points="65.82 329.11 60.81 334.11 50.8 334.11 50.8 324.1 60.81 324.1 65.82 329.11"/>
    <text class="cls-17" transform="translate(28.84 332.19)"><tspan x="0" y="0">Load</tspan></text>
    <polygon class="cls-10" points="65.82 114.47 60.81 119.48 50.8 119.48 50.8 109.46 60.81 109.46 65.82 114.47"/>
    <text class="cls-17" transform="translate(19.79 117.55)"><tspan x="0" y="0">UpDwn</tspan></text>
    <polygon class="cls-11" points="119.48 146.67 119.48 157.4 137.37 157.4 139.51 157.4 141.66 156.68 143.09 155.97 144.52 154.54 146.67 152.39 147.38 150.96 148.1 148.81 148.1 146.67 148.1 144.52 147.38 142.37 146.67 140.94 145.24 139.51 143.09 137.37 141.66 136.65 139.51 135.93 137.37 135.93 119.48 135.93 119.48 146.67"/>
    <polygon class="cls-19" points="115.9 143.09 115.9 153.82 133.79 153.82 135.93 153.82 138.08 153.11 139.51 152.39 140.94 150.96 143.09 148.81 143.8 147.38 144.52 145.24 144.52 143.09 144.52 140.94 143.8 138.8 143.09 137.37 141.66 135.93 139.51 133.79 138.08 133.07 135.93 132.36 133.79 132.36 115.9 132.36 115.9 143.09"/>
    <polyline class="cls-1" points="115.9 143.09 115.9 153.82 133.79 153.82"/>
    <path class="cls-1" d="M133.79,132.36h0c5.93,0,10.73,4.8,10.73,10.73s-4.8,10.73-10.73,10.73"/>
    <polyline class="cls-1" points="133.79 132.36 115.9 132.36 115.9 143.09"/>
    <line class="cls-1" x1="115.9" y1="132.36" x2="115.9" y2="125.92"/>
    <line class="cls-1" x1="115.9" y1="153.82" x2="115.9" y2="160.26"/>
    <text class="cls-17" transform="translate(117.33 129.87)"><tspan x="0" y="0">aux_a0</tspan></text>
    <line class="cls-9" x1="108.75" y1="128.78" x2="115.9" y2="128.78"/>
    <line class="cls-9" x1="108.75" y1="143.09" x2="115.9" y2="143.09"/>
    <line class="cls-9" x1="108.75" y1="157.4" x2="115.9" y2="157.4"/>
    <line class="cls-9" x1="151.67" y1="143.09" x2="144.52" y2="143.09"/>
    <polygon class="cls-11" points="119.48 32.2 119.48 42.93 137.37 42.93 139.51 42.93 141.66 42.21 143.09 41.5 144.52 40.07 146.67 37.92 147.38 36.49 148.1 34.34 148.1 32.2 148.1 30.05 147.38 27.9 146.67 26.47 145.24 25.04 143.09 22.89 141.66 22.18 139.51 21.46 137.37 21.46 119.48 21.46 119.48 32.2"/>
    <polygon class="cls-19" points="115.9 28.62 115.9 39.35 133.79 39.35 135.93 39.35 138.08 38.63 139.51 37.92 140.94 36.49 143.09 34.34 143.8 32.91 144.52 30.76 144.52 28.62 144.52 26.47 143.8 24.33 143.09 22.89 141.66 21.46 139.51 19.32 138.08 18.6 135.93 17.89 133.79 17.89 115.9 17.89 115.9 28.62"/>
    <polyline class="cls-1" points="115.9 28.62 115.9 39.35 133.79 39.35"/>
    <path class="cls-1" d="M133.79,17.89h0c5.93,0,10.73,4.8,10.73,10.73s-4.8,10.73-10.73,10.73"/>
    <polyline class="cls-1" points="133.79 17.89 115.9 17.89 115.9 28.62"/>
    <line class="cls-1" x1="115.9" y1="17.89" x2="115.9" y2="11.45"/>
    <line class="cls-1" x1="115.9" y1="39.35" x2="115.9" y2="45.79"/>
    <text class="cls-17" transform="translate(117.33 15.39)"><tspan x="0" y="0">aux_a1</tspan></text>
    <line class="cls-9" x1="108.75" y1="14.31" x2="115.9" y2="14.31"/>
    <path class="cls-9" d="M115.9,28.62c0-1.19-.96-2.15-2.15-2.15s-2.15.96-2.15,2.15.96,2.15,2.15,2.15,2.15-.96,2.15-2.15"/>
    <line class="cls-9" x1="108.75" y1="28.62" x2="111.61" y2="28.62"/>
    <path class="cls-9" d="M115.9,42.93c0-1.19-.96-2.15-2.15-2.15s-2.15.96-2.15,2.15.96,2.15,2.15,2.15,2.15-.96,2.15-2.15"/>
    <line class="cls-9" x1="108.75" y1="42.93" x2="111.61" y2="42.93"/>
    <line class="cls-9" x1="151.67" y1="28.62" x2="144.52" y2="28.62"/>
    <polygon class="cls-11" points="119.48 196.75 119.48 207.48 137.37 207.48 139.51 207.48 141.66 206.76 143.09 206.05 144.52 204.62 146.67 202.47 147.38 201.04 148.1 198.89 148.1 196.75 148.1 194.6 147.38 192.46 146.67 191.02 145.24 189.59 143.09 187.45 141.66 186.73 139.51 186.02 137.37 186.02 119.48 186.02 119.48 196.75"/>
    <polygon class="cls-19" points="115.9 193.17 115.9 203.9 133.79 203.9 135.93 203.9 138.08 203.19 139.51 202.47 140.94 201.04 143.09 198.89 143.8 197.46 144.52 195.32 144.52 193.17 144.52 191.02 143.8 188.88 143.09 187.45 141.66 186.02 139.51 183.87 138.08 183.15 135.93 182.44 133.79 182.44 115.9 182.44 115.9 193.17"/>
    <polyline class="cls-1" points="115.9 193.17 115.9 203.9 133.79 203.9"/>
    <path class="cls-1" d="M133.79,182.44h0c5.93,0,10.73,4.8,10.73,10.73s-4.8,10.73-10.73,10.73"/>
    <polyline class="cls-1" points="133.79 182.44 115.9 182.44 115.9 193.17"/>
    <line class="cls-1" x1="115.9" y1="182.44" x2="115.9" y2="168.85"/>
    <line class="cls-1" x1="115.9" y1="203.9" x2="115.9" y2="217.5"/>
    <text class="cls-17" transform="translate(117.33 179.95)"><tspan x="0" y="0">aux_a2</tspan></text>
    <line class="cls-9" x1="108.75" y1="171.71" x2="115.9" y2="171.71"/>
    <line class="cls-9" x1="108.75" y1="186.02" x2="115.9" y2="186.02"/>
    <line class="cls-9" x1="108.75" y1="200.33" x2="115.9" y2="200.33"/>
    <line class="cls-9" x1="108.75" y1="214.63" x2="115.9" y2="214.63"/>
    <line class="cls-9" x1="151.67" y1="193.17" x2="144.52" y2="193.17"/>
    <polygon class="cls-11" points="119.48 82.28 119.48 93.01 137.37 93.01 139.51 93.01 141.66 92.29 143.09 91.58 144.52 90.15 146.67 88 147.38 86.57 148.1 84.42 148.1 82.28 148.1 80.13 147.38 77.98 146.67 76.55 145.24 75.12 143.09 72.98 141.66 72.26 139.51 71.54 137.37 71.54 119.48 71.54 119.48 82.28"/>
    <polygon class="cls-19" points="115.9 78.7 115.9 89.43 133.79 89.43 135.93 89.43 138.08 88.72 139.51 88 140.94 86.57 143.09 84.42 143.8 82.99 144.52 80.85 144.52 78.7 144.52 76.55 143.8 74.41 143.09 72.98 141.66 71.54 139.51 69.4 138.08 68.68 135.93 67.97 133.79 67.97 115.9 67.97 115.9 78.7"/>
    <polyline class="cls-1" points="115.9 78.7 115.9 89.43 133.79 89.43"/>
    <path class="cls-1" d="M133.79,67.97h0c5.93,0,10.73,4.8,10.73,10.73s-4.8,10.73-10.73,10.73"/>
    <polyline class="cls-1" points="133.79 67.97 115.9 67.97 115.9 78.7"/>
    <line class="cls-1" x1="115.9" y1="67.97" x2="115.9" y2="54.37"/>
    <line class="cls-1" x1="115.9" y1="89.43" x2="115.9" y2="103.02"/>
    <text class="cls-17" transform="translate(117.33 65.47)"><tspan x="0" y="0">aux_a3</tspan></text>
    <line class="cls-9" x1="108.75" y1="100.16" x2="115.9" y2="100.16"/>
    <path class="cls-9" d="M115.9,57.24c0-1.19-.96-2.15-2.15-2.15s-2.15.96-2.15,2.15.96,2.15,2.15,2.15,2.15-.96,2.15-2.15"/>
    <line class="cls-9" x1="108.75" y1="57.24" x2="111.61" y2="57.24"/>
    <path class="cls-9" d="M115.9,71.54c0-1.19-.96-2.15-2.15-2.15s-2.15.96-2.15,2.15.96,2.15,2.15,2.15,2.15-.96,2.15-2.15"/>
    <line class="cls-9" x1="108.75" y1="71.54" x2="111.61" y2="71.54"/>
    <path class="cls-9" d="M115.9,85.85c0-1.19-.96-2.15-2.15-2.15s-2.15.96-2.15,2.15.96,2.15,2.15,2.15,2.15-.96,2.15-2.15"/>
    <line class="cls-9" x1="108.75" y1="85.85" x2="111.61" y2="85.85"/>
    <line class="cls-9" x1="151.67" y1="78.7" x2="144.52" y2="78.7"/>
    <polygon class="cls-11" points="236.1 148.81 264.72 159.54 264.72 181.01 236.1 191.74 236.1 148.81"/>
    <polygon class="cls-20" points="233.24 145.95 261.85 156.68 261.85 178.15 233.24 188.88 233.24 145.95"/>
    <polygon class="cls-1" points="233.24 145.95 261.85 156.68 261.85 178.15 233.24 188.88 233.24 145.95"/>
    <polygon class="cls-19" points="230.37 143.09 258.99 153.82 258.99 175.28 230.37 186.02 230.37 143.09"/>
    <polygon class="cls-1" points="230.37 143.09 258.99 153.82 258.99 175.28 230.37 186.02 230.37 143.09"/>
    <text class="cls-17" transform="translate(247.54 145.61)"><tspan x="0" y="0">aux_b[2..1]</tspan></text>
    <line class="cls-8" x1="223.22" y1="157.4" x2="230.37" y2="157.4"/>
    <text class="cls-16" transform="translate(224.97 155.2)"><tspan x="0" y="0">0</tspan></text>
    <line class="cls-8" x1="223.22" y1="171.71" x2="230.37" y2="171.71"/>
    <text class="cls-16" transform="translate(224.97 169.51)"><tspan x="0" y="0">1</tspan></text>
    <path class="cls-8" d="M246.83,146.67c0-1.19-.96-2.15-2.15-2.15s-2.15.96-2.15,2.15.96,2.15,2.15,2.15,2.15-.96,2.15-2.15"/>
    <line class="cls-8" x1="244.68" y1="143.09" x2="244.68" y2="144.52"/>
    <line class="cls-8" x1="266.15" y1="164.55" x2="258.99" y2="164.55"/>
    <polygon class="cls-11" points="233.95 218.21 262.57 228.94 262.57 250.41 233.95 261.14 233.95 218.21"/>
    <polygon class="cls-19" points="230.37 214.63 258.99 225.37 258.99 246.83 230.37 257.56 230.37 214.63"/>
    <polygon class="cls-1" points="230.37 214.63 258.99 225.37 258.99 246.83 230.37 257.56 230.37 214.63"/>
    <text class="cls-17" transform="translate(247.54 217.15)"><tspan x="0" y="0">aux_b0</tspan></text>
    <line class="cls-9" x1="223.22" y1="228.94" x2="230.37" y2="228.94"/>
    <text class="cls-16" transform="translate(224.97 226.75)"><tspan x="0" y="0">0</tspan></text>
    <line class="cls-9" x1="223.22" y1="243.25" x2="230.37" y2="243.25"/>
    <text class="cls-16" transform="translate(224.97 241.06)"><tspan x="0" y="0">1</tspan></text>
    <path class="cls-9" d="M246.83,218.21c0-1.19-.96-2.15-2.15-2.15s-2.15.96-2.15,2.15.96,2.15,2.15,2.15,2.15-.96,2.15-2.15"/>
    <line class="cls-9" x1="244.68" y1="214.63" x2="244.68" y2="216.07"/>
    <line class="cls-9" x1="266.15" y1="236.1" x2="258.99" y2="236.1"/>
    <polygon class="cls-11" points="119.48 246.83 119.48 257.56 137.37 257.56 139.51 257.56 141.66 256.85 143.09 256.13 144.52 254.7 146.67 252.55 147.38 251.12 148.1 248.98 148.1 246.83 148.1 244.68 147.38 242.54 146.67 241.11 145.24 239.67 143.09 237.53 141.66 236.81 139.51 236.1 137.37 236.1 119.48 236.1 119.48 246.83"/>
    <polygon class="cls-19" points="115.9 243.25 115.9 253.98 133.79 253.98 135.93 253.98 138.08 253.27 139.51 252.55 140.94 251.12 143.09 248.98 143.8 247.54 144.52 245.4 144.52 243.25 144.52 241.11 143.8 238.96 143.09 237.53 141.66 236.1 139.51 233.95 138.08 233.24 135.93 232.52 133.79 232.52 115.9 232.52 115.9 243.25"/>
    <polyline class="cls-1" points="115.9 243.25 115.9 253.98 133.79 253.98"/>
    <path class="cls-1" d="M133.79,232.52h0c5.93,0,10.73,4.8,10.73,10.73s-4.8,10.73-10.73,10.73"/>
    <polyline class="cls-1" points="133.79 232.52 115.9 232.52 115.9 243.25"/>
    <text class="cls-17" transform="translate(117.33 230.03)"><tspan x="0" y="0">aux_b0~0</tspan></text>
    <path class="cls-9" d="M115.9,250.41c0-1.19-.96-2.15-2.15-2.15s-2.15.96-2.15,2.15.96,2.15,2.15,2.15,2.15-.96,2.15-2.15"/>
    <line class="cls-9" x1="108.75" y1="250.41" x2="111.61" y2="250.41"/>
    <line class="cls-9" x1="108.75" y1="236.1" x2="115.9" y2="236.1"/>
    <line class="cls-9" x1="151.67" y1="243.25" x2="144.52" y2="243.25"/>
    <polygon class="cls-11" points="119.48 282.6 119.48 293.33 137.37 293.33 139.51 293.33 141.66 292.62 143.09 291.9 144.52 290.47 146.67 288.33 147.38 286.89 148.1 284.75 148.1 282.6 148.1 280.46 147.38 278.31 146.67 276.88 145.24 275.45 143.09 273.3 141.66 272.59 139.51 271.87 137.37 271.87 119.48 271.87 119.48 282.6"/>
    <polygon class="cls-19" points="115.9 279.02 115.9 289.76 133.79 289.76 135.93 289.76 138.08 289.04 139.51 288.33 140.94 286.89 143.09 284.75 143.8 283.32 144.52 281.17 144.52 279.02 144.52 276.88 143.8 274.73 143.09 273.3 141.66 271.87 139.51 269.72 138.08 269.01 135.93 268.29 133.79 268.29 115.9 268.29 115.9 279.02"/>
    <polyline class="cls-1" points="115.9 279.02 115.9 289.76 133.79 289.76"/>
    <path class="cls-1" d="M133.79,268.29h0c5.93,0,10.73,4.8,10.73,10.73s-4.8,10.73-10.73,10.73"/>
    <polyline class="cls-1" points="133.79 268.29 115.9 268.29 115.9 279.02"/>
    <text class="cls-17" transform="translate(117.33 265.8)"><tspan x="0" y="0">aux_b0~1</tspan></text>
    <line class="cls-9" x1="108.75" y1="286.18" x2="115.9" y2="286.18"/>
    <line class="cls-9" x1="108.75" y1="271.87" x2="115.9" y2="271.87"/>
    <line class="cls-9" x1="151.67" y1="279.02" x2="144.52" y2="279.02"/>
    <polygon class="cls-10" points="65.82 429.27 60.81 434.28 50.8 434.28 50.8 424.26 60.81 424.26 65.82 429.27"/>
    <text class="cls-17" transform="translate(37.44 432.35)"><tspan x="0" y="0">clk</tspan></text>
    <polygon class="cls-2" points="709.72 186.02 709.72 181.01 719.74 181.01 724.75 186.02 719.74 191.02 709.72 191.02 709.72 186.02"/>
    <text class="cls-17" transform="translate(730.47 189.1)"><tspan x="0" y="0">counter[3..0]</tspan></text>
    <polygon class="cls-11" points="386.34 363.45 414.96 374.18 414.96 395.64 386.34 406.37 386.34 363.45"/>
    <polygon class="cls-20" points="383.48 360.59 412.1 371.32 412.1 392.78 383.48 403.51 383.48 360.59"/>
    <polygon class="cls-1" points="383.48 360.59 412.1 371.32 412.1 392.78 383.48 403.51 383.48 360.59"/>
    <polygon class="cls-19" points="380.62 357.72 409.24 368.46 409.24 389.92 380.62 400.65 380.62 357.72"/>
    <polygon class="cls-1" points="380.62 357.72 409.24 368.46 409.24 389.92 380.62 400.65 380.62 357.72"/>
    <text class="cls-17" transform="translate(397.79 360.24)"><tspan x="0" y="0">datain[3..0]</tspan></text>
    <line class="cls-8" x1="373.46" y1="372.03" x2="380.62" y2="372.03"/>
    <text class="cls-16" transform="translate(372.35 369.84)"><tspan x="0" y="0">0</tspan></text>
    <path class="cls-8" d="M380.62,386.34c0-1.19-.96-2.15-2.15-2.15s-2.15.96-2.15,2.15.96,2.15,2.15,2.15,2.15-.96,2.15-2.15"/>
    <line class="cls-8" x1="373.46" y1="386.34" x2="376.33" y2="386.34"/>
    <text class="cls-16" transform="translate(372.35 384.15)"><tspan x="0" y="0">1</tspan></text>
    <path class="cls-8" d="M397.07,361.3c0-1.19-.96-2.15-2.15-2.15s-2.15.96-2.15,2.15.96,2.15,2.15,2.15,2.15-.96,2.15-2.15"/>
    <line class="cls-8" x1="394.93" y1="357.72" x2="394.93" y2="359.15"/>
    <line class="cls-8" x1="416.39" y1="379.19" x2="409.24" y2="379.19"/>
    <polygon class="cls-11" points="386.34 213.2 414.96 223.93 414.96 245.4 386.34 256.13 386.34 213.2"/>
    <polygon class="cls-20" points="383.48 210.34 412.1 221.07 412.1 242.54 383.48 253.27 383.48 210.34"/>
    <polygon class="cls-1" points="383.48 210.34 412.1 221.07 412.1 242.54 383.48 253.27 383.48 210.34"/>
    <polygon class="cls-19" points="380.62 207.48 409.24 218.21 409.24 239.67 380.62 250.41 380.62 207.48"/>
    <polygon class="cls-1" points="380.62 207.48 409.24 218.21 409.24 239.67 380.62 250.41 380.62 207.48"/>
    <text class="cls-17" transform="translate(397.79 210)"><tspan x="0" y="0">enables[3..1]</tspan></text>
    <line class="cls-8" x1="373.46" y1="221.79" x2="380.62" y2="221.79"/>
    <text class="cls-16" transform="translate(375.21 219.59)"><tspan x="0" y="0">0</tspan></text>
    <text class="cls-15" transform="translate(356.52 219.3)"><tspan x="0" y="0">3&apos;h7</tspan></text>
    <line class="cls-8" x1="373.46" y1="236.1" x2="380.62" y2="236.1"/>
    <text class="cls-16" transform="translate(375.21 233.9)"><tspan x="0" y="0">1</tspan></text>
    <path class="cls-8" d="M397.07,211.06c0-1.19-.96-2.15-2.15-2.15s-2.15.96-2.15,2.15.96,2.15,2.15,2.15,2.15-.96,2.15-2.15"/>
    <line class="cls-8" x1="394.93" y1="207.48" x2="394.93" y2="208.91"/>
    <line class="cls-8" x1="416.39" y1="228.94" x2="409.24" y2="228.94"/>
    <polygon class="cls-11" points="384.2 314.8 385.63 316.23 387.06 318.37 387.77 319.8 388.49 321.95 389.2 324.1 389.2 326.96 388.49 329.11 387.77 331.25 387.06 332.68 385.63 334.83 384.2 336.26 394.93 336.26 397.07 336.26 399.22 335.54 401.37 334.83 402.8 334.11 404.94 333.4 407.09 331.97 408.52 330.54 409.95 329.11 411.38 327.67 412.81 325.53 411.38 323.38 409.95 321.95 408.52 320.52 407.09 319.09 404.94 317.66 402.8 316.94 401.37 316.23 399.22 315.51 397.07 314.8 394.93 314.8 384.2 314.8"/>
    <polygon class="cls-19" points="380.62 311.22 382.05 312.65 383.48 314.8 384.2 316.23 384.91 318.37 385.63 320.52 385.63 323.38 384.91 325.53 384.2 327.67 383.48 329.11 382.05 331.25 380.62 332.68 391.35 332.68 393.5 332.68 395.64 331.97 397.79 331.25 399.22 330.54 401.37 329.82 403.51 328.39 404.94 326.96 406.37 325.53 407.8 324.1 409.24 321.95 407.8 319.8 406.37 318.37 404.94 316.94 403.51 315.51 401.37 314.08 399.22 313.37 397.79 312.65 395.64 311.94 393.5 311.22 391.35 311.22 380.62 311.22"/>
    <path class="cls-1" d="M380.62,332.68c.63-.53,1.21-1.11,1.74-1.74,4.97-5.93,4.19-14.76-1.74-19.73"/>
    <line class="cls-1" x1="380.62" y1="332.68" x2="391.35" y2="332.68"/>
    <path class="cls-1" d="M409.24,321.95c-3.94,6.19-10.57,10.17-17.89,10.73"/>
    <path class="cls-1" d="M391.35,311.22c7.32.56,13.95,4.54,17.89,10.73"/>
    <line class="cls-1" x1="391.35" y1="311.22" x2="380.62" y2="311.22"/>
    <text class="cls-17" transform="translate(382.05 308.73)"><tspan x="0" y="0">enables0</tspan></text>
    <line class="cls-9" x1="373.46" y1="314.8" x2="383.48" y2="314.8"/>
    <line class="cls-9" x1="373.46" y1="329.11" x2="383.48" y2="329.11"/>
    <line class="cls-9" x1="416.39" y1="321.95" x2="409.24" y2="321.95"/>
    <polygon class="cls-10" points="65.82 128.78 60.81 133.79 50.8 133.79 50.8 123.77 60.81 123.77 65.82 128.78"/>
    <text class="cls-17" transform="translate(33.61 131.86)"><tspan x="0" y="0">ena</tspan></text>
    <rect class="cls-11" x="555.9" y="438.57" width="42.93" height="72.98"/>
    <rect class="cls-14" x="552.33" y="434.99" width="42.93" height="72.98"/>
    <rect class="cls-1" x="552.33" y="434.99" width="42.93" height="72.98"/>
    <line class="cls-7" x1="560.2" y1="438.57" x2="560.2" y2="447.15"/>
    <line class="cls-7" x1="555.9" y1="442.86" x2="564.49" y2="442.86"/>
    <rect class="cls-1" x="554.47" y="437.14" width="11.45" height="11.45"/>
    <text class="cls-17" transform="translate(552.55 431.79)"><tspan x="0" y="0">my_dff:dff0</tspan></text>
    <line class="cls-9" x1="545.17" y1="457.89" x2="552.33" y2="457.89"/>
    <text class="cls-16" transform="translate(542.15 455.69)"><tspan x="0" y="0">clk</tspan></text>
    <line class="cls-9" x1="545.17" y1="472.2" x2="552.33" y2="472.2"/>
    <text class="cls-16" transform="translate(546.92 470)"><tspan x="0" y="0">d</tspan></text>
    <line class="cls-9" x1="545.17" y1="486.5" x2="552.33" y2="486.5"/>
    <text class="cls-16" transform="translate(538.96 484.31)"><tspan x="0" y="0">ena</tspan></text>
    <line class="cls-9" x1="545.17" y1="500.81" x2="552.33" y2="500.81"/>
    <text class="cls-16" transform="translate(542.95 498.62)"><tspan x="0" y="0">rst</tspan></text>
    <line class="cls-9" x1="602.41" y1="472.2" x2="595.25" y2="472.2"/>
    <text class="cls-16" transform="translate(599.54 470)"><tspan x="0" y="0">q</tspan></text>
    <line class="cls-9" x1="559.48" y1="457.89" x2="552.33" y2="457.89"/>
    <line class="cls-9" x1="559.48" y1="472.2" x2="552.33" y2="472.2"/>
    <line class="cls-9" x1="559.48" y1="486.5" x2="552.33" y2="486.5"/>
    <line class="cls-9" x1="559.48" y1="500.81" x2="552.33" y2="500.81"/>
    <line class="cls-9" x1="588.1" y1="472.2" x2="595.25" y2="472.2"/>
    <polygon class="cls-10" points="65.82 443.58 60.81 448.59 50.8 448.59 50.8 438.57 60.81 438.57 65.82 443.58"/>
    <text class="cls-17" transform="translate(38.4 446.66)"><tspan x="0" y="0">rst</tspan></text>
    <rect class="cls-11" x="598.83" y="132.36" width="42.93" height="71.54"/>
    <rect class="cls-19" x="595.25" y="128.78" width="42.93" height="71.54"/>
    <rect class="cls-1" x="595.25" y="128.78" width="42.93" height="71.54"/>
    <polyline class="cls-1" points="595.25 159.54 600.26 157.4 595.25 155.25"/>
    <text class="cls-17" transform="translate(603.23 125.57)"><tspan x="0" y="0">q~reg0</tspan></text>
    <line class="cls-9" x1="588.1" y1="143.09" x2="595.25" y2="143.09"/>
    <text class="cls-16" transform="translate(596.68 145.66)"><tspan x="0" y="0">D</tspan></text>
    <line class="cls-9" x1="588.1" y1="157.4" x2="595.25" y2="157.4"/>
    <text class="cls-16" transform="translate(601.69 159.97)"><tspan x="0" y="0">CLK</tspan></text>
    <line class="cls-9" x1="609.56" y1="207.48" x2="609.56" y2="200.33"/>
    <text class="cls-16" transform="translate(607.42 197.41)"><tspan x="0" y="0">CLRN</tspan></text>
    <line class="cls-9" x1="588.1" y1="171.71" x2="595.25" y2="171.71"/>
    <text class="cls-16" transform="translate(596.68 174.28)"><tspan x="0" y="0">ENA</tspan></text>
    <line class="cls-9" x1="588.1" y1="186.02" x2="595.25" y2="186.02"/>
    <text class="cls-16" transform="translate(596.68 188.59)"><tspan x="0" y="0">SCLR</tspan></text>
    <text class="cls-15" transform="translate(577.6 183.52)"><tspan x="0" y="0">1&apos;h0</tspan></text>
    <line class="cls-9" x1="645.33" y1="164.55" x2="638.18" y2="164.55"/>
    <text class="cls-16" transform="translate(631.18 167.12)"><tspan x="0" y="0">Q</tspan></text>
    <rect class="cls-11" x="555.9" y="245.4" width="42.93" height="72.98"/>
    <rect class="cls-14" x="552.33" y="241.82" width="42.93" height="72.98"/>
    <rect class="cls-1" x="552.33" y="241.82" width="42.93" height="72.98"/>
    <line class="cls-7" x1="560.2" y1="245.4" x2="560.2" y2="253.98"/>
    <line class="cls-7" x1="555.9" y1="249.69" x2="564.49" y2="249.69"/>
    <rect class="cls-1" x="554.47" y="243.97" width="11.45" height="11.45"/>
    <text class="cls-17" transform="translate(552.55 238.61)"><tspan x="0" y="0">my_dff:dff2</tspan></text>
    <line class="cls-9" x1="545.17" y1="264.72" x2="552.33" y2="264.72"/>
    <text class="cls-16" transform="translate(542.15 262.52)"><tspan x="0" y="0">clk</tspan></text>
    <line class="cls-9" x1="545.17" y1="279.02" x2="552.33" y2="279.02"/>
    <text class="cls-16" transform="translate(546.92 276.83)"><tspan x="0" y="0">d</tspan></text>
    <line class="cls-9" x1="545.17" y1="293.33" x2="552.33" y2="293.33"/>
    <text class="cls-16" transform="translate(538.96 291.14)"><tspan x="0" y="0">ena</tspan></text>
    <line class="cls-9" x1="545.17" y1="307.64" x2="552.33" y2="307.64"/>
    <text class="cls-16" transform="translate(542.95 305.45)"><tspan x="0" y="0">rst</tspan></text>
    <line class="cls-9" x1="602.41" y1="279.02" x2="595.25" y2="279.02"/>
    <text class="cls-16" transform="translate(599.54 276.83)"><tspan x="0" y="0">q</tspan></text>
    <line class="cls-9" x1="559.48" y1="264.72" x2="552.33" y2="264.72"/>
    <line class="cls-9" x1="559.48" y1="279.02" x2="552.33" y2="279.02"/>
    <line class="cls-9" x1="559.48" y1="293.33" x2="552.33" y2="293.33"/>
    <line class="cls-9" x1="559.48" y1="307.64" x2="552.33" y2="307.64"/>
    <line class="cls-9" x1="588.1" y1="279.02" x2="595.25" y2="279.02"/>
    <rect class="cls-11" x="555.9" y="338.41" width="42.93" height="72.98"/>
    <rect class="cls-14" x="552.33" y="334.83" width="42.93" height="72.98"/>
    <rect class="cls-1" x="552.33" y="334.83" width="42.93" height="72.98"/>
    <line class="cls-7" x1="560.2" y1="338.41" x2="560.2" y2="346.99"/>
    <line class="cls-7" x1="555.9" y1="342.7" x2="564.49" y2="342.7"/>
    <rect class="cls-1" x="554.47" y="336.98" width="11.45" height="11.45"/>
    <text class="cls-17" transform="translate(552.55 331.62)"><tspan x="0" y="0">my_dff:dff3</tspan></text>
    <line class="cls-9" x1="545.17" y1="357.72" x2="552.33" y2="357.72"/>
    <text class="cls-16" transform="translate(542.15 355.53)"><tspan x="0" y="0">clk</tspan></text>
    <line class="cls-9" x1="545.17" y1="372.03" x2="552.33" y2="372.03"/>
    <text class="cls-16" transform="translate(546.92 369.84)"><tspan x="0" y="0">d</tspan></text>
    <line class="cls-9" x1="545.17" y1="386.34" x2="552.33" y2="386.34"/>
    <text class="cls-16" transform="translate(538.96 384.15)"><tspan x="0" y="0">ena</tspan></text>
    <line class="cls-9" x1="545.17" y1="400.65" x2="552.33" y2="400.65"/>
    <text class="cls-16" transform="translate(542.95 398.45)"><tspan x="0" y="0">rst</tspan></text>
    <line class="cls-9" x1="602.41" y1="372.03" x2="595.25" y2="372.03"/>
    <text class="cls-16" transform="translate(599.54 369.84)"><tspan x="0" y="0">q</tspan></text>
    <line class="cls-9" x1="559.48" y1="357.72" x2="552.33" y2="357.72"/>
    <line class="cls-9" x1="559.48" y1="372.03" x2="552.33" y2="372.03"/>
    <line class="cls-9" x1="559.48" y1="386.34" x2="552.33" y2="386.34"/>
    <line class="cls-9" x1="559.48" y1="400.65" x2="552.33" y2="400.65"/>
    <line class="cls-9" x1="588.1" y1="372.03" x2="595.25" y2="372.03"/>
    <polygon class="cls-2" points="65.82 372.03 60.81 377.04 50.8 377.04 50.8 367.02 60.81 367.02 65.82 372.03"/>
    <text class="cls-17" transform="translate(10.71 375.12)"><tspan x="0" y="0">Data[3..0]</tspan></text>
    <line class="cls-7" x1="180.29" y1="140.94" x2="180.29" y2="195.32"/>
    <line class="cls-7" x1="180.29" y1="157.4" x2="223.22" y2="157.4"/>
    <rect class="cls-12" x="178.15" y="155.25" width="5.01" height="5.01"/>
    <line class="cls-1" x1="151.67" y1="143.09" x2="180.29" y2="143.09"/>
    <line class="cls-1" x1="151.67" y1="193.17" x2="180.29" y2="193.17"/>
    <polyline points="181.01 139.51 181.01 146.67 173.14 143.09"/>
    <polyline points="181.01 189.59 181.01 196.75 173.14 193.17"/>
    <polyline class="cls-7" points="208.91 26.47 208.91 171.71 223.22 171.71"/>
    <line class="cls-1" x1="151.67" y1="28.62" x2="208.91" y2="28.62"/>
    <line class="cls-1" x1="151.67" y1="78.7" x2="208.91" y2="78.7"/>
    <polyline points="209.63 25.04 209.63 32.2 201.76 28.62"/>
    <polyline points="209.63 75.12 209.63 82.28 201.76 78.7"/>
    <polyline class="cls-7" points="94.44 26.47 94.44 300.49 309.07 300.49 309.07 414.96 695.41 414.96"/>
    <rect class="cls-12" x="693.27" y="183.87" width="5.01" height="5.01"/>
    <rect class="cls-12" x="693.27" y="412.81" width="5.01" height="5.01"/>
    <line class="cls-7" x1="309.07" y1="386.34" x2="373.46" y2="386.34"/>
    <rect class="cls-12" x="306.93" y="384.2" width="5.01" height="5.01"/>
    <line class="cls-7" x1="695.41" y1="162.41" x2="695.41" y2="474.34"/>
    <line class="cls-7" x1="695.41" y1="186.02" x2="709.72" y2="186.02"/>
    <line class="cls-1" x1="602.41" y1="472.2" x2="695.41" y2="472.2"/>
    <line class="cls-1" x1="94.44" y1="28.62" x2="108.75" y2="28.62"/>
    <line class="cls-1" x1="94.44" y1="42.93" x2="108.75" y2="42.93"/>
    <line class="cls-1" x1="94.44" y1="57.24" x2="108.75" y2="57.24"/>
    <line class="cls-1" x1="94.44" y1="71.54" x2="108.75" y2="71.54"/>
    <line class="cls-1" x1="94.44" y1="85.85" x2="108.75" y2="85.85"/>
    <line class="cls-1" x1="94.44" y1="143.09" x2="108.75" y2="143.09"/>
    <line class="cls-1" x1="94.44" y1="157.4" x2="108.75" y2="157.4"/>
    <line class="cls-1" x1="94.44" y1="186.02" x2="108.75" y2="186.02"/>
    <line class="cls-1" x1="94.44" y1="200.33" x2="108.75" y2="200.33"/>
    <line class="cls-1" x1="94.44" y1="214.63" x2="108.75" y2="214.63"/>
    <line class="cls-1" x1="94.44" y1="250.41" x2="108.75" y2="250.41"/>
    <line class="cls-1" x1="94.44" y1="286.18" x2="108.75" y2="286.18"/>
    <line class="cls-1" x1="673.95" y1="164.55" x2="695.41" y2="164.55"/>
    <line class="cls-1" x1="602.41" y1="279.02" x2="695.41" y2="279.02"/>
    <line class="cls-1" x1="602.41" y1="372.03" x2="695.41" y2="372.03"/>
    <polyline points="696.13 160.98 696.13 168.13 688.26 164.55"/>
    <polyline points="696.13 275.45 696.13 282.6 688.26 279.02"/>
    <polyline points="696.13 368.46 696.13 375.61 688.26 372.03"/>
    <polyline points="696.13 468.62 696.13 475.77 688.26 472.2"/>
    <polyline points="93.72 25.04 93.72 32.2 101.59 28.62"/>
    <polyline points="93.72 39.35 93.72 46.5 101.59 42.93"/>
    <polyline points="93.72 53.66 93.72 60.81 101.59 57.24"/>
    <polyline points="93.72 67.97 93.72 75.12 101.59 71.54"/>
    <polyline points="93.72 82.28 93.72 89.43 101.59 85.85"/>
    <polyline points="93.72 139.51 93.72 146.67 101.59 143.09"/>
    <polyline points="93.72 153.82 93.72 160.98 101.59 157.4"/>
    <polyline points="93.72 182.44 93.72 189.59 101.59 186.02"/>
    <polyline points="93.72 196.75 93.72 203.9 101.59 200.33"/>
    <polyline points="93.72 211.06 93.72 218.21 101.59 214.63"/>
    <polyline points="93.72 246.83 93.72 253.98 101.59 250.41"/>
    <polyline points="93.72 282.6 93.72 289.76 101.59 286.18"/>
    <polyline class="cls-1" points="151.67 279.02 194.6 279.02 194.6 228.94 223.22 228.94"/>
    <line class="cls-1" x1="151.67" y1="243.25" x2="223.22" y2="243.25"/>
    <polyline class="cls-1" points="416.39 321.95 466.47 321.95 466.47 486.5 545.17 486.5"/>
    <line class="cls-1" x1="266.15" y1="236.1" x2="309.07" y2="236.1"/>
    <line class="cls-6" x1="309.07" y1="236.1" x2="312.65" y2="236.1"/>
    <line class="cls-5" x1="312.65" y1="236.1" x2="373.46" y2="236.1"/>
    <line class="cls-1" x1="65.82" y1="429.27" x2="509.4" y2="429.27"/>
    <rect class="cls-12" x="507.97" y="263.28" width="3.58" height="3.58"/>
    <rect class="cls-12" x="507.97" y="356.29" width="3.58" height="3.58"/>
    <rect class="cls-12" x="507.97" y="427.84" width="3.58" height="3.58"/>
    <polyline class="cls-1" points="545.17 157.4 509.4 157.4 509.4 457.89 545.17 457.89"/>
    <line class="cls-1" x1="509.4" y1="264.72" x2="545.17" y2="264.72"/>
    <line class="cls-1" x1="509.4" y1="357.72" x2="545.17" y2="357.72"/>
    <line class="cls-1" x1="65.82" y1="443.58" x2="495.09" y2="443.58"/>
    <rect class="cls-12" x="493.66" y="306.21" width="3.58" height="3.58"/>
    <rect class="cls-12" x="493.66" y="399.22" width="3.58" height="3.58"/>
    <rect class="cls-12" x="493.66" y="442.15" width="3.58" height="3.58"/>
    <polyline class="cls-1" points="545.17 214.63 495.09 214.63 495.09 500.81 545.17 500.81"/>
    <line class="cls-1" x1="495.09" y1="307.64" x2="545.17" y2="307.64"/>
    <line class="cls-1" x1="495.09" y1="400.65" x2="545.17" y2="400.65"/>
    <polyline class="cls-1" points="108.75 14.31 80.13 14.31 80.13 314.8 373.46 314.8"/>
    <line class="cls-1" x1="80.13" y1="100.16" x2="108.75" y2="100.16"/>
    <line class="cls-1" x1="65.82" y1="128.78" x2="80.13" y2="128.78"/>
    <line class="cls-1" x1="80.13" y1="128.78" x2="108.75" y2="128.78"/>
    <line class="cls-1" x1="80.13" y1="171.71" x2="108.75" y2="171.71"/>
    <line class="cls-1" x1="80.13" y1="236.1" x2="108.75" y2="236.1"/>
    <line class="cls-1" x1="80.13" y1="271.87" x2="108.75" y2="271.87"/>
    <rect class="cls-12" x="78.7" y="98.73" width="3.58" height="3.58"/>
    <rect class="cls-12" x="78.7" y="127.35" width="3.58" height="3.58"/>
    <rect class="cls-12" x="78.7" y="170.28" width="3.58" height="3.58"/>
    <rect class="cls-12" x="78.7" y="234.67" width="3.58" height="3.58"/>
    <rect class="cls-12" x="78.7" y="270.44" width="3.58" height="3.58"/>
    <polyline class="cls-1" points="65.82 114.47 194.6 114.47 194.6 200.33 244.68 200.33 244.68 214.63"/>
    <polyline class="cls-1" points="194.6 128.78 244.68 128.78 244.68 143.09"/>
    <rect class="cls-12" x="193.17" y="127.35" width="3.58" height="3.58"/>
    <line class="cls-1" x1="65.82" y1="329.11" x2="337.69" y2="329.11"/>
    <line class="cls-1" x1="337.69" y1="329.11" x2="373.46" y2="329.11"/>
    <rect class="cls-12" x="336.26" y="327.67" width="3.58" height="3.58"/>
    <polyline class="cls-1" points="394.93 207.48 394.93 193.17 337.69 193.17 337.69 343.41 394.93 343.41 394.93 357.72"/>
    <line class="cls-7" x1="65.82" y1="372.03" x2="373.46" y2="372.03"/>
    <polyline class="cls-7" points="266.15 164.55 323.38 164.55 323.38 232.52"/>
    <line class="cls-4" x1="323.38" y1="232.52" x2="326.96" y2="236.1"/>
    <line class="cls-7" x1="326.96" y1="236.1" x2="373.46" y2="236.1"/>
    <line class="cls-7" x1="480.78" y1="140.94" x2="480.78" y2="474.34"/>
    <line class="cls-7" x1="416.39" y1="379.19" x2="480.78" y2="379.19"/>
    <rect class="cls-12" x="478.63" y="377.04" width="5.01" height="5.01"/>
    <line class="cls-1" x1="480.78" y1="143.09" x2="545.17" y2="143.09"/>
    <line class="cls-1" x1="480.78" y1="279.02" x2="545.17" y2="279.02"/>
    <line class="cls-1" x1="480.78" y1="372.03" x2="545.17" y2="372.03"/>
    <line class="cls-1" x1="480.78" y1="472.2" x2="545.17" y2="472.2"/>
    <polyline points="480.07 139.51 480.07 146.67 487.94 143.09"/>
    <polyline points="480.07 275.45 480.07 282.6 487.94 279.02"/>
    <polyline points="480.07 368.46 480.07 375.61 487.94 372.03"/>
    <polyline points="480.07 468.62 480.07 475.77 487.94 472.2"/>
    <line class="cls-7" x1="523.71" y1="169.56" x2="523.71" y2="388.49"/>
    <line class="cls-7" x1="416.39" y1="228.94" x2="523.71" y2="228.94"/>
    <rect class="cls-12" x="521.56" y="226.8" width="5.01" height="5.01"/>
    <line class="cls-1" x1="523.71" y1="171.71" x2="545.17" y2="171.71"/>
    <line class="cls-1" x1="523.71" y1="293.33" x2="545.17" y2="293.33"/>
    <line class="cls-1" x1="523.71" y1="386.34" x2="545.17" y2="386.34"/>
    <polyline points="522.99 168.13 522.99 175.28 530.86 171.71"/>
    <polyline points="522.99 289.76 522.99 296.91 530.86 293.33"/>
    <polyline points="522.99 382.76 522.99 389.92 530.86 386.34"/>
    <line class="cls-1" x1="559.48" y1="157.4" x2="588.1" y2="157.4"/>
    <polyline class="cls-1" points="559.48 214.63 609.56 214.63 609.56 207.48"/>
    <line class="cls-1" x1="559.48" y1="171.71" x2="588.1" y2="171.71"/>
    <line class="cls-1" x1="559.48" y1="143.09" x2="588.1" y2="143.09"/>
    <line class="cls-1" x1="645.33" y1="164.55" x2="659.64" y2="164.55"/>
    <text class="cls-18" transform="translate(329.24 232.52) rotate(-90)"><tspan x="0" y="0">2:1</tspan></text>
    <text class="cls-18" transform="translate(485.07 140.89)"><tspan x="0" y="0">1</tspan></text>
    <text class="cls-18" transform="translate(485.07 276.83)"><tspan x="0" y="0">2</tspan></text>
    <text class="cls-18" transform="translate(485.07 369.84)"><tspan x="0" y="0">3</tspan></text>
    <text class="cls-18" transform="translate(485.07 470)"><tspan x="0" y="0">0</tspan></text>
    <text class="cls-18" transform="translate(528 169.51)"><tspan x="0" y="0">1</tspan></text>
    <text class="cls-18" transform="translate(528 291.14)"><tspan x="0" y="0">2</tspan></text>
    <text class="cls-18" transform="translate(528 384.15)"><tspan x="0" y="0">3</tspan></text>
  </g>
</svg>