<?xml version="1.0" encoding="UTF-8"?>
<svg id="Capa_1" xmlns="http://www.w3.org/2000/svg" xmlns:xlink="http://www.w3.org/1999/xlink" viewBox="0 0 665.81 612">
  <defs>
    <style>
      .cls-1, .cls-2, .cls-3, .cls-4, .cls-5, .cls-6 {
        fill: none;
      }

      .cls-1, .cls-4, .cls-5 {
        stroke-width: 1.06px;
      }

      .cls-1, .cls-6 {
        stroke: blue;
      }

      .cls-7 {
        opacity: .41;
      }

      .cls-8 {
        font-size: 10.55px;
      }

      .cls-8, .cls-9 {
        fill: #06476f;
      }

      .cls-8, .cls-9, .cls-10 {
        font-family: ArialMT, Arial;
      }

      .cls-11 {
        fill: #2d2d2d;
      }

      .cls-12 {
        fill: #fff;
      }

      .cls-9, .cls-10 {
        font-size: 12.66px;
      }

      .cls-13 {
        fill: #81bf5f;
      }

      .cls-3, .cls-4 {
        stroke: #2d2d2d;
      }

      .cls-3, .cls-6 {
        stroke-width: 3.17px;
      }

      .cls-5 {
        stroke: #06476f;
      }

      .cls-14 {
        fill: #73acac;
      }

      .cls-15 {
        fill: #dce6dc;
      }

      .cls-16 {
        clip-path: url(#clippath);
      }
    </style>
    <clipPath id="clippath">
      <rect class="cls-2" width="665.81" height="612"/>
    </clipPath>
  </defs>
  <g class="cls-16">
    <rect class="cls-12" width="664.76" height="613.06"/>
    <polygon class="cls-7" points="326.05 26.38 477.99 26.38 481.16 27.43 484.32 28.49 485.38 31.66 486.44 34.82 486.44 176.21 485.38 179.38 484.32 182.55 481.16 183.6 477.99 184.66 326.05 184.66 322.88 183.6 319.72 182.55 318.66 179.38 317.61 176.21 317.61 34.82 318.66 31.66 319.72 28.49 322.88 27.43 326.05 26.38"/>
    <polygon class="cls-15" points="320.77 21.1 472.72 21.1 475.88 22.16 479.05 23.21 480.1 26.38 481.16 29.54 481.16 170.94 480.1 174.1 479.05 177.27 475.88 178.32 472.72 179.38 320.77 179.38 317.61 178.32 314.44 177.27 313.39 174.1 312.33 170.94 312.33 29.54 313.39 26.38 314.44 23.21 317.61 22.16 320.77 21.1"/>
    <line class="cls-4" x1="320.77" y1="21.1" x2="472.72" y2="21.1"/>
    <path class="cls-4" d="M481.16,29.54c0-.12,0-.23,0-.35-.1-4.56-3.88-8.19-8.44-8.09"/>
    <line class="cls-4" x1="481.16" y1="29.54" x2="481.16" y2="170.94"/>
    <path class="cls-4" d="M472.72,179.38c.12,0,.23,0,.35,0,4.57-.1,8.19-3.88,8.09-8.44"/>
    <line class="cls-4" x1="472.72" y1="179.38" x2="320.77" y2="179.38"/>
    <path class="cls-4" d="M312.33,170.94c0,.12,0,.23,0,.35.1,4.57,3.88,8.19,8.44,8.09"/>
    <line class="cls-4" x1="312.33" y1="170.94" x2="312.33" y2="29.54"/>
    <path class="cls-4" d="M320.77,21.1c-.12,0-.23,0-.35,0-4.57.1-8.19,3.88-8.09,8.44"/>
    <line class="cls-3" x1="317.61" y1="32.71" x2="330.27" y2="32.71"/>
    <rect class="cls-4" x="315.5" y="24.27" width="16.88" height="16.88"/>
    <text class="cls-10" transform="translate(359.46 16.37)"><tspan x="0" y="0">my_dff:DUT0</tspan></text>
    <line class="cls-5" x1="301.78" y1="84.41" x2="312.33" y2="84.41"/>
    <text class="cls-8" transform="translate(297.33 80.12)"><tspan x="0" y="0">clk</tspan></text>
    <path class="cls-5" d="M312.33,63.31c0-1.75-1.42-3.17-3.17-3.17s-3.17,1.42-3.17,3.17,1.42,3.17,3.17,3.17,3.17-1.42,3.17-3.17"/>
    <line class="cls-5" x1="301.78" y1="63.31" x2="306" y2="63.31"/>
    <text class="cls-8" transform="translate(304.35 59.02)"><tspan x="0" y="0">d</tspan></text>
    <line class="cls-5" x1="301.78" y1="105.52" x2="312.33" y2="105.52"/>
    <text class="cls-8" transform="translate(292.62 101.22)"><tspan x="0" y="0">ena</tspan></text>
    <line class="cls-5" x1="301.78" y1="168.83" x2="312.33" y2="168.83"/>
    <text class="cls-8" transform="translate(298.5 164.53)"><tspan x="0" y="0">rst</tspan></text>
    <line class="cls-5" x1="491.71" y1="94.97" x2="481.16" y2="94.97"/>
    <text class="cls-8" transform="translate(487.49 90.67)"><tspan x="0" y="0">q</tspan></text>
    <line class="cls-5" x1="322.88" y1="84.41" x2="312.33" y2="84.41"/>
    <line class="cls-5" x1="322.88" y1="63.31" x2="312.33" y2="63.31"/>
    <line class="cls-5" x1="322.88" y1="105.52" x2="312.33" y2="105.52"/>
    <line class="cls-5" x1="322.88" y1="168.83" x2="312.33" y2="168.83"/>
    <line class="cls-5" x1="470.61" y1="94.97" x2="481.16" y2="94.97"/>
    <polygon class="cls-6" points="544.47 84.41 544.47 77.03 559.24 77.03 566.63 84.41 559.24 91.8 544.47 91.8 544.47 84.41"/>
    <text class="cls-10" transform="translate(575.07 88.96)"><tspan x="0" y="0">counter[3..0]</tspan></text>
    <polygon class="cls-7" points="117.12 247.97 117.12 263.79 143.5 263.79 146.67 263.79 149.83 262.74 151.95 261.68 154.06 259.57 157.22 256.41 158.28 254.3 159.33 251.13 159.33 247.97 159.33 244.8 158.28 241.63 157.22 239.52 155.11 237.41 151.95 234.25 149.83 233.19 146.67 232.14 143.5 232.14 117.12 232.14 117.12 247.97"/>
    <polygon class="cls-14" points="111.85 242.69 111.85 258.52 138.23 258.52 141.39 258.52 144.56 257.46 146.67 256.41 148.78 254.3 151.95 251.13 153 249.02 154.06 245.86 154.06 242.69 154.06 239.52 153 236.36 151.95 234.25 149.83 232.14 146.67 228.97 144.56 227.92 141.39 226.86 138.23 226.86 111.85 226.86 111.85 242.69"/>
    <polyline class="cls-4" points="111.85 242.69 111.85 258.52 138.23 258.52"/>
    <path class="cls-4" d="M138.23,226.86h0c8.74,0,15.83,7.09,15.83,15.83s-7.09,15.83-15.83,15.83"/>
    <polyline class="cls-4" points="138.23 226.86 111.85 226.86 111.85 242.69"/>
    <text class="cls-10" transform="translate(113.96 223.19)"><tspan x="0" y="0">enables[2]</tspan></text>
    <line class="cls-5" x1="101.3" y1="232.14" x2="111.85" y2="232.14"/>
    <line class="cls-5" x1="101.3" y1="253.24" x2="111.85" y2="253.24"/>
    <line class="cls-5" x1="164.61" y1="242.69" x2="154.06" y2="242.69"/>
    <polygon class="cls-7" points="117.12 385.14 117.12 400.97 143.5 400.97 146.67 400.97 149.83 399.91 151.95 398.86 154.06 396.75 157.22 393.58 158.28 391.47 159.33 388.3 159.33 385.14 159.33 381.97 158.28 378.81 157.22 376.7 155.11 374.59 151.95 371.42 149.83 370.37 146.67 369.31 143.5 369.31 117.12 369.31 117.12 385.14"/>
    <polygon class="cls-14" points="111.85 379.86 111.85 395.69 138.23 395.69 141.39 395.69 144.56 394.64 146.67 393.58 148.78 391.47 151.95 388.3 153 386.19 154.06 383.03 154.06 379.86 154.06 376.7 153 373.53 151.95 371.42 149.83 369.31 146.67 366.15 144.56 365.09 141.39 364.04 138.23 364.04 111.85 364.04 111.85 379.86"/>
    <polyline class="cls-4" points="111.85 379.86 111.85 395.69 138.23 395.69"/>
    <path class="cls-4" d="M138.23,364.04h0c8.74,0,15.83,7.09,15.83,15.83s-7.09,15.83-15.83,15.83"/>
    <polyline class="cls-4" points="138.23 364.04 111.85 364.04 111.85 379.86"/>
    <line class="cls-4" x1="111.85" y1="364.04" x2="111.85" y2="354.54"/>
    <line class="cls-4" x1="111.85" y1="395.69" x2="111.85" y2="405.19"/>
    <text class="cls-10" transform="translate(113.96 360.36)"><tspan x="0" y="0">enables[3]</tspan></text>
    <line class="cls-5" x1="101.3" y1="358.76" x2="111.85" y2="358.76"/>
    <line class="cls-5" x1="101.3" y1="379.86" x2="111.85" y2="379.86"/>
    <line class="cls-5" x1="101.3" y1="400.97" x2="111.85" y2="400.97"/>
    <line class="cls-5" x1="164.61" y1="379.86" x2="154.06" y2="379.86"/>
    <polygon class="cls-1" points="59.09 105.52 51.7 112.9 36.93 112.9 36.93 98.13 51.7 98.13 59.09 105.52"/>
    <text class="cls-10" transform="translate(11.59 110.06)"><tspan x="0" y="0">ena</tspan></text>
    <polygon class="cls-1" points="59.09 126.62 51.7 134.01 36.93 134.01 36.93 119.23 51.7 119.23 59.09 126.62"/>
    <text class="cls-10" transform="translate(18.64 131.17)"><tspan x="0" y="0">rst</tspan></text>
    <rect class="cls-7" x="380.92" y="47.48" width="63.31" height="105.52"/>
    <rect class="cls-14" x="375.64" y="42.21" width="63.31" height="105.52"/>
    <rect class="cls-4" x="375.64" y="42.21" width="63.31" height="105.52"/>
    <polyline class="cls-4" points="375.64 87.58 383.03 84.41 375.64 81.25"/>
    <text class="cls-10" transform="translate(387.41 37.48)"><tspan x="0" y="0">q~reg0</tspan></text>
    <line class="cls-5" x1="365.09" y1="63.31" x2="375.64" y2="63.31"/>
    <text class="cls-8" transform="translate(377.75 67.1)"><tspan x="0" y="0">D</tspan></text>
    <line class="cls-5" x1="365.09" y1="84.41" x2="375.64" y2="84.41"/>
    <text class="cls-8" transform="translate(385.14 88.2)"><tspan x="0" y="0">CLK</tspan></text>
    <line class="cls-5" x1="396.75" y1="158.28" x2="396.75" y2="147.72"/>
    <text class="cls-8" transform="translate(393.58 143.43)"><tspan x="0" y="0">CLRN</tspan></text>
    <line class="cls-5" x1="365.09" y1="105.52" x2="375.64" y2="105.52"/>
    <text class="cls-8" transform="translate(377.75 109.31)"><tspan x="0" y="0">ENA</tspan></text>
    <line class="cls-5" x1="365.09" y1="126.62" x2="375.64" y2="126.62"/>
    <text class="cls-8" transform="translate(377.75 130.41)"><tspan x="0" y="0">SCLR</tspan></text>
    <text class="cls-9" transform="translate(349.6 122.95)"><tspan x="0" y="0">1&apos;h0</tspan></text>
    <line class="cls-5" x1="449.5" y1="94.97" x2="438.95" y2="94.97"/>
    <text class="cls-8" transform="translate(428.63 98.75)"><tspan x="0" y="0">Q</tspan></text>
    <rect class="cls-7" x="317.61" y="499.1" width="63.31" height="107.63"/>
    <rect class="cls-13" x="312.33" y="493.82" width="63.31" height="107.63"/>
    <rect class="cls-4" x="312.33" y="493.82" width="63.31" height="107.63"/>
    <line class="cls-3" x1="323.94" y1="499.1" x2="323.94" y2="511.76"/>
    <line class="cls-3" x1="317.61" y1="505.43" x2="330.27" y2="505.43"/>
    <rect class="cls-4" x="315.5" y="496.99" width="16.88" height="16.88"/>
    <text class="cls-10" transform="translate(306.7 489.09)"><tspan x="0" y="0">my_dff:DUT1</tspan></text>
    <line class="cls-5" x1="301.78" y1="527.59" x2="312.33" y2="527.59"/>
    <text class="cls-8" transform="translate(297.33 524.35)"><tspan x="0" y="0">clk</tspan></text>
    <path class="cls-5" d="M312.33,548.69c0-1.75-1.42-3.17-3.17-3.17s-3.17,1.42-3.17,3.17,1.42,3.17,3.17,3.17,3.17-1.42,3.17-3.17"/>
    <line class="cls-5" x1="301.78" y1="548.69" x2="306" y2="548.69"/>
    <text class="cls-8" transform="translate(300.13 545.45)"><tspan x="0" y="0">d</tspan></text>
    <line class="cls-5" x1="301.78" y1="569.79" x2="312.33" y2="569.79"/>
    <text class="cls-8" transform="translate(292.62 566.55)"><tspan x="0" y="0">ena</tspan></text>
    <line class="cls-5" x1="301.78" y1="590.9" x2="312.33" y2="590.9"/>
    <text class="cls-8" transform="translate(298.5 587.66)"><tspan x="0" y="0">rst</tspan></text>
    <line class="cls-5" x1="386.19" y1="548.69" x2="375.64" y2="548.69"/>
    <text class="cls-8" transform="translate(381.97 545.45)"><tspan x="0" y="0">q</tspan></text>
    <line class="cls-5" x1="322.88" y1="527.59" x2="312.33" y2="527.59"/>
    <line class="cls-5" x1="322.88" y1="548.69" x2="312.33" y2="548.69"/>
    <line class="cls-5" x1="322.88" y1="569.79" x2="312.33" y2="569.79"/>
    <line class="cls-5" x1="322.88" y1="590.9" x2="312.33" y2="590.9"/>
    <line class="cls-5" x1="365.09" y1="548.69" x2="375.64" y2="548.69"/>
    <rect class="cls-7" x="317.61" y="214.2" width="63.31" height="107.63"/>
    <rect class="cls-13" x="312.33" y="208.92" width="63.31" height="107.63"/>
    <rect class="cls-4" x="312.33" y="208.92" width="63.31" height="107.63"/>
    <line class="cls-3" x1="323.94" y1="214.2" x2="323.94" y2="226.86"/>
    <line class="cls-3" x1="317.61" y1="220.53" x2="330.27" y2="220.53"/>
    <rect class="cls-4" x="315.5" y="212.09" width="16.88" height="16.88"/>
    <text class="cls-10" transform="translate(306.7 204.19)"><tspan x="0" y="0">my_dff:DUT2</tspan></text>
    <line class="cls-5" x1="301.78" y1="242.69" x2="312.33" y2="242.69"/>
    <text class="cls-8" transform="translate(297.33 239.45)"><tspan x="0" y="0">clk</tspan></text>
    <path class="cls-5" d="M312.33,263.79c0-1.75-1.42-3.17-3.17-3.17s-3.17,1.42-3.17,3.17,1.42,3.17,3.17,3.17,3.17-1.42,3.17-3.17"/>
    <line class="cls-5" x1="301.78" y1="263.79" x2="306" y2="263.79"/>
    <text class="cls-8" transform="translate(300.13 260.55)"><tspan x="0" y="0">d</tspan></text>
    <line class="cls-5" x1="301.78" y1="284.9" x2="312.33" y2="284.9"/>
    <text class="cls-8" transform="translate(292.62 281.66)"><tspan x="0" y="0">ena</tspan></text>
    <line class="cls-5" x1="301.78" y1="306" x2="312.33" y2="306"/>
    <text class="cls-8" transform="translate(298.5 302.76)"><tspan x="0" y="0">rst</tspan></text>
    <line class="cls-5" x1="386.19" y1="263.79" x2="375.64" y2="263.79"/>
    <text class="cls-8" transform="translate(381.97 260.55)"><tspan x="0" y="0">q</tspan></text>
    <line class="cls-5" x1="322.88" y1="242.69" x2="312.33" y2="242.69"/>
    <line class="cls-5" x1="322.88" y1="263.79" x2="312.33" y2="263.79"/>
    <line class="cls-5" x1="322.88" y1="284.9" x2="312.33" y2="284.9"/>
    <line class="cls-5" x1="322.88" y1="306" x2="312.33" y2="306"/>
    <line class="cls-5" x1="365.09" y1="263.79" x2="375.64" y2="263.79"/>
    <rect class="cls-7" x="317.61" y="351.37" width="63.31" height="107.63"/>
    <rect class="cls-13" x="312.33" y="346.1" width="63.31" height="107.63"/>
    <rect class="cls-4" x="312.33" y="346.1" width="63.31" height="107.63"/>
    <line class="cls-3" x1="323.94" y1="351.37" x2="323.94" y2="364.04"/>
    <line class="cls-3" x1="317.61" y1="357.7" x2="330.27" y2="357.7"/>
    <rect class="cls-4" x="315.5" y="349.26" width="16.88" height="16.88"/>
    <text class="cls-10" transform="translate(306.7 341.37)"><tspan x="0" y="0">my_dff:DUT3</tspan></text>
    <line class="cls-5" x1="301.78" y1="379.86" x2="312.33" y2="379.86"/>
    <text class="cls-8" transform="translate(297.33 376.62)"><tspan x="0" y="0">clk</tspan></text>
    <path class="cls-5" d="M312.33,400.97c0-1.75-1.42-3.17-3.17-3.17s-3.17,1.42-3.17,3.17,1.42,3.17,3.17,3.17,3.17-1.42,3.17-3.17"/>
    <line class="cls-5" x1="301.78" y1="400.97" x2="306" y2="400.97"/>
    <text class="cls-8" transform="translate(300.13 397.73)"><tspan x="0" y="0">d</tspan></text>
    <line class="cls-5" x1="301.78" y1="422.07" x2="312.33" y2="422.07"/>
    <text class="cls-8" transform="translate(292.62 418.83)"><tspan x="0" y="0">ena</tspan></text>
    <line class="cls-5" x1="301.78" y1="443.17" x2="312.33" y2="443.17"/>
    <text class="cls-8" transform="translate(298.5 439.93)"><tspan x="0" y="0">rst</tspan></text>
    <line class="cls-5" x1="386.19" y1="400.97" x2="375.64" y2="400.97"/>
    <text class="cls-8" transform="translate(381.97 397.73)"><tspan x="0" y="0">q</tspan></text>
    <line class="cls-5" x1="322.88" y1="379.86" x2="312.33" y2="379.86"/>
    <line class="cls-5" x1="322.88" y1="400.97" x2="312.33" y2="400.97"/>
    <line class="cls-5" x1="322.88" y1="422.07" x2="312.33" y2="422.07"/>
    <line class="cls-5" x1="322.88" y1="443.17" x2="312.33" y2="443.17"/>
    <line class="cls-5" x1="365.09" y1="400.97" x2="375.64" y2="400.97"/>
    <polygon class="cls-1" points="59.09 63.31 51.7 70.7 36.93 70.7 36.93 55.92 51.7 55.92 59.09 63.31"/>
    <text class="cls-10" transform="translate(17.24 67.86)"><tspan x="0" y="0">clk</tspan></text>
    <polyline class="cls-3" points="80.19 404.13 80.19 200.48 270.12 200.48"/>
    <line class="cls-3" x1="270.12" y1="464.28" x2="523.37" y2="464.28"/>
    <rect class="cls-11" x="520.2" y="461.11" width="7.39" height="7.39"/>
    <line class="cls-3" x1="270.12" y1="60.14" x2="270.12" y2="572.96"/>
    <rect class="cls-11" x="266.96" y="197.32" width="7.39" height="7.39"/>
    <rect class="cls-11" x="266.96" y="461.11" width="7.39" height="7.39"/>
    <polyline class="cls-3" points="523.37 551.86 523.37 84.41 544.47 84.41"/>
    <line class="cls-4" x1="270.12" y1="263.79" x2="301.78" y2="263.79"/>
    <line class="cls-4" x1="270.12" y1="400.97" x2="301.78" y2="400.97"/>
    <line class="cls-4" x1="386.19" y1="400.97" x2="523.37" y2="400.97"/>
    <line class="cls-4" x1="386.19" y1="263.79" x2="523.37" y2="263.79"/>
    <line class="cls-4" x1="491.71" y1="94.97" x2="523.37" y2="94.97"/>
    <line class="cls-4" x1="80.19" y1="400.97" x2="101.3" y2="400.97"/>
    <line class="cls-4" x1="80.19" y1="379.86" x2="101.3" y2="379.86"/>
    <line class="cls-4" x1="80.19" y1="358.76" x2="101.3" y2="358.76"/>
    <line class="cls-4" x1="80.19" y1="253.24" x2="101.3" y2="253.24"/>
    <line class="cls-4" x1="80.19" y1="232.14" x2="101.3" y2="232.14"/>
    <line class="cls-4" x1="270.12" y1="63.31" x2="301.78" y2="63.31"/>
    <line class="cls-4" x1="270.12" y1="548.69" x2="301.78" y2="548.69"/>
    <line class="cls-4" x1="270.12" y1="569.79" x2="301.78" y2="569.79"/>
    <line class="cls-4" x1="386.19" y1="548.69" x2="523.37" y2="548.69"/>
    <polyline points="524.42 543.41 524.42 553.97 512.81 548.69"/>
    <polyline points="524.42 395.69 524.42 406.24 512.81 400.97"/>
    <polyline points="524.42 258.52 524.42 269.07 512.81 263.79"/>
    <polyline points="524.42 89.69 524.42 100.24 512.81 94.97"/>
    <polyline points="79.14 395.69 79.14 406.24 90.74 400.97"/>
    <polyline points="79.14 374.59 79.14 385.14 90.74 379.86"/>
    <polyline points="79.14 353.48 79.14 364.04 90.74 358.76"/>
    <polyline points="79.14 247.97 79.14 258.52 90.74 253.24"/>
    <polyline points="79.14 226.86 79.14 237.41 90.74 232.14"/>
    <polyline points="269.07 58.03 269.07 68.59 280.68 63.31"/>
    <polyline points="269.07 258.52 269.07 269.07 280.68 263.79"/>
    <polyline points="269.07 395.69 269.07 406.24 280.68 400.97"/>
    <polyline points="269.07 543.41 269.07 553.97 280.68 548.69"/>
    <polyline points="269.07 564.52 269.07 575.07 280.68 569.79"/>
    <polyline class="cls-4" points="164.61 242.69 227.92 242.69 227.92 284.9 301.78 284.9"/>
    <polyline class="cls-4" points="164.61 379.86 227.92 379.86 227.92 422.07 301.78 422.07"/>
    <polyline class="cls-4" points="59.09 63.31 249.02 63.31 249.02 527.59 301.78 527.59"/>
    <line class="cls-4" x1="249.02" y1="84.41" x2="301.78" y2="84.41"/>
    <line class="cls-4" x1="249.02" y1="242.69" x2="301.78" y2="242.69"/>
    <line class="cls-4" x1="249.02" y1="379.86" x2="301.78" y2="379.86"/>
    <rect class="cls-11" x="246.91" y="82.3" width="5.28" height="5.28"/>
    <rect class="cls-11" x="246.91" y="240.58" width="5.28" height="5.28"/>
    <rect class="cls-11" x="246.91" y="377.75" width="5.28" height="5.28"/>
    <polyline class="cls-4" points="59.09 126.62 206.81 126.62 206.81 590.9 301.78 590.9"/>
    <line class="cls-4" x1="206.81" y1="168.83" x2="301.78" y2="168.83"/>
    <line class="cls-4" x1="206.81" y1="306" x2="301.78" y2="306"/>
    <line class="cls-4" x1="206.81" y1="443.17" x2="301.78" y2="443.17"/>
    <rect class="cls-11" x="204.7" y="166.72" width="5.28" height="5.28"/>
    <rect class="cls-11" x="204.7" y="303.89" width="5.28" height="5.28"/>
    <rect class="cls-11" x="204.7" y="441.06" width="5.28" height="5.28"/>
    <line class="cls-4" x1="59.09" y1="105.52" x2="301.78" y2="105.52"/>
    <line class="cls-4" x1="322.88" y1="84.41" x2="365.09" y2="84.41"/>
    <polyline class="cls-4" points="322.88 168.83 396.75 168.83 396.75 158.28"/>
    <line class="cls-4" x1="322.88" y1="105.52" x2="365.09" y2="105.52"/>
    <line class="cls-4" x1="322.88" y1="63.31" x2="365.09" y2="63.31"/>
    <line class="cls-4" x1="449.5" y1="94.97" x2="470.61" y2="94.97"/>
  </g>
</svg>