<?xml version="1.0" encoding="UTF-8"?>
<svg id="Capa_1" xmlns="http://www.w3.org/2000/svg" xmlns:xlink="http://www.w3.org/1999/xlink" viewBox="0 0 792 202.64">
  <defs>
    <style>
      .cls-1, .cls-2, .cls-3 {
        stroke-width: .81px;
      }

      .cls-1, .cls-2, .cls-3, .cls-4, .cls-5, .cls-6, .cls-7 {
        fill: none;
      }

      .cls-1, .cls-6 {
        stroke: blue;
      }

      .cls-8 {
        opacity: .41;
      }

      .cls-2, .cls-4 {
        stroke: #2d2d2d;
      }

      .cls-9, .cls-10, .cls-11, .cls-12 {
        font-family: ArialMT, Arial;
      }

      .cls-9, .cls-10, .cls-12 {
        font-size: 9.69px;
      }

      .cls-3, .cls-7 {
        stroke: #06476f;
      }

      .cls-13, .cls-10 {
        fill: #2d2d2d;
      }

      .cls-14 {
        fill: #fff;
      }

      .cls-4, .cls-6, .cls-7 {
        stroke-width: 2.42px;
      }

      .cls-11 {
        font-size: 8.07px;
      }

      .cls-11, .cls-12 {
        fill: #06476f;
      }

      .cls-15 {
        fill: #73acac;
      }

      .cls-16 {
        fill: #477777;
      }

      .cls-17 {
        clip-path: url(#clippath);
      }
    </style>
    <clipPath id="clippath">
      <rect class="cls-5" width="792" height="201.83"/>
    </clipPath>
  </defs>
  <g class="cls-17">
    <rect class="cls-14" width="791.19" height="202.64"/>
    <polygon class="cls-1" points="45.21 64.59 39.56 70.24 28.26 70.24 28.26 58.94 39.56 58.94 45.21 64.59"/>
    <text class="cls-9" transform="translate(13.19 68.07)"><tspan x="0" y="0">clk</tspan></text>
    <polygon class="cls-1" points="45.21 80.73 39.56 86.39 28.26 86.39 28.26 75.08 39.56 75.08 45.21 80.73"/>
    <text class="cls-9" transform="translate(8.87 84.21)"><tspan x="0" y="0">ena</tspan></text>
    <polygon class="cls-1" points="45.21 161.47 39.56 167.12 28.26 167.12 28.26 155.82 39.56 155.82 45.21 161.47"/>
    <text class="cls-9" transform="translate(14.26 164.95)"><tspan x="0" y="0">rst</tspan></text>
    <path class="cls-8" d="M170.35,141.28c0-8.92-7.23-16.15-16.15-16.15s-16.15,7.23-16.15,16.15,7.23,16.15,16.15,16.15,16.15-7.23,16.15-16.15"/>
    <path class="cls-15" d="M166.31,137.25c0-8.92-7.23-16.15-16.15-16.15s-16.15,7.23-16.15,16.15,7.23,16.15,16.15,16.15,16.15-7.23,16.15-16.15"/>
    <path class="cls-2" d="M166.31,137.25c0-8.92-7.23-16.15-16.15-16.15s-16.15,7.23-16.15,16.15,7.23,16.15,16.15,16.15,16.15-7.23,16.15-16.15"/>
    <line class="cls-2" x1="134.02" y1="121.1" x2="138.86" y2="125.94"/>
    <line class="cls-2" x1="134.02" y1="153.39" x2="138.86" y2="148.55"/>
    <text class="cls-10" transform="translate(147.34 140.73)"><tspan x="0" y="0">+</tspan></text>
    <text class="cls-9" transform="translate(146.13 117.48)"><tspan x="0" y="0">Add0</tspan></text>
    <line class="cls-3" x1="125.94" y1="121.1" x2="134.02" y2="121.1"/>
    <text class="cls-11" transform="translate(118.5 118.62)"><tspan x="0" y="0">CIN</tspan></text>
    <text class="cls-12" transform="translate(97.14 118.29)"><tspan x="0" y="0">1&apos;h0</tspan></text>
    <line class="cls-7" x1="125.94" y1="137.25" x2="134.02" y2="137.25"/>
    <text class="cls-11" transform="translate(109.06 134.77)"><tspan x="0" y="0">A[3..0]</tspan></text>
    <line class="cls-7" x1="125.94" y1="153.39" x2="134.02" y2="153.39"/>
    <text class="cls-11" transform="translate(109.06 150.92)"><tspan x="0" y="0">B[3..0]</tspan></text>
    <text class="cls-12" transform="translate(88.26 150.58)"><tspan x="0" y="0">4&apos;h1</tspan></text>
    <line class="cls-7" x1="174.39" y1="137.25" x2="166.31" y2="137.25"/>
    <text class="cls-11" transform="translate(171.16 134.77)"><tspan x="0" y="0">OUT[3..0]</tspan></text>
    <polygon class="cls-8" points="261.58 103.34 293.87 115.45 293.87 139.67 261.58 151.78 261.58 103.34"/>
    <polygon class="cls-16" points="258.35 100.11 290.64 112.22 290.64 136.44 258.35 148.55 258.35 100.11"/>
    <polygon class="cls-2" points="258.35 100.11 290.64 112.22 290.64 136.44 258.35 148.55 258.35 100.11"/>
    <polygon class="cls-15" points="255.12 96.88 287.41 108.99 287.41 133.21 255.12 145.32 255.12 96.88"/>
    <polygon class="cls-2" points="255.12 96.88 287.41 108.99 287.41 133.21 255.12 145.32 255.12 96.88"/>
    <text class="cls-9" transform="translate(274.5 99.72)"><tspan x="0" y="0">Count_next~[3..0]</tspan></text>
    <line class="cls-7" x1="247.05" y1="113.03" x2="255.12" y2="113.03"/>
    <text class="cls-11" transform="translate(249.02 110.55)"><tspan x="0" y="0">0</tspan></text>
    <line class="cls-7" x1="247.05" y1="129.17" x2="255.12" y2="129.17"/>
    <text class="cls-11" transform="translate(249.02 126.7)"><tspan x="0" y="0">1</tspan></text>
    <line class="cls-7" x1="271.27" y1="96.88" x2="271.27" y2="103.34"/>
    <line class="cls-7" x1="295.49" y1="121.1" x2="287.41" y2="121.1"/>
    <polygon class="cls-8" points="455.34 151.78 487.63 163.89 487.63 188.11 455.34 200.22 455.34 151.78"/>
    <polygon class="cls-16" points="452.11 148.55 484.4 160.66 484.4 184.88 452.11 196.99 452.11 148.55"/>
    <polygon class="cls-2" points="452.11 148.55 484.4 160.66 484.4 184.88 452.11 196.99 452.11 148.55"/>
    <polygon class="cls-15" points="448.88 145.32 481.17 157.43 481.17 181.65 448.88 193.76 448.88 145.32"/>
    <polygon class="cls-2" points="448.88 145.32 481.17 157.43 481.17 181.65 448.88 193.76 448.88 145.32"/>
    <text class="cls-9" transform="translate(468.26 148.16)"><tspan x="0" y="0">Count_next[3..0]</tspan></text>
    <line class="cls-7" x1="440.81" y1="161.47" x2="448.88" y2="161.47"/>
    <text class="cls-11" transform="translate(442.78 158.99)"><tspan x="0" y="0">0</tspan></text>
    <line class="cls-7" x1="440.81" y1="177.61" x2="448.88" y2="177.61"/>
    <text class="cls-11" transform="translate(442.78 175.14)"><tspan x="0" y="0">1</tspan></text>
    <text class="cls-12" transform="translate(421.69 174.8)"><tspan x="0" y="0">4&apos;h0</tspan></text>
    <line class="cls-7" x1="465.03" y1="145.32" x2="465.03" y2="151.78"/>
    <line class="cls-7" x1="489.25" y1="169.54" x2="481.17" y2="169.54"/>
    <rect class="cls-8" x="616.81" y="38.75" width="48.44" height="80.73"/>
    <rect class="cls-16" x="613.58" y="35.52" width="48.44" height="80.73"/>
    <rect class="cls-2" x="613.58" y="35.52" width="48.44" height="80.73"/>
    <rect class="cls-15" x="610.35" y="32.29" width="48.44" height="80.73"/>
    <rect class="cls-2" x="610.35" y="32.29" width="48.44" height="80.73"/>
    <polyline class="cls-2" points="610.35 67.01 616 64.59 610.35 62.17"/>
    <text class="cls-9" transform="translate(614.1 28.67)"><tspan x="0" y="0">reg1[3..0]</tspan></text>
    <line class="cls-7" x1="602.28" y1="48.44" x2="610.35" y2="48.44"/>
    <text class="cls-11" transform="translate(611.96 51.34)"><tspan x="0" y="0">D</tspan></text>
    <line class="cls-7" x1="602.28" y1="64.59" x2="610.35" y2="64.59"/>
    <text class="cls-11" transform="translate(617.61 67.49)"><tspan x="0" y="0">CLK</tspan></text>
    <line class="cls-7" x1="626.5" y1="121.1" x2="626.5" y2="113.03"/>
    <text class="cls-11" transform="translate(624.07 109.74)"><tspan x="0" y="0">CLRN</tspan></text>
    <line class="cls-7" x1="602.28" y1="80.73" x2="610.35" y2="80.73"/>
    <text class="cls-11" transform="translate(611.96 83.63)"><tspan x="0" y="0">ENA</tspan></text>
    <line class="cls-7" x1="602.28" y1="96.88" x2="610.35" y2="96.88"/>
    <text class="cls-11" transform="translate(611.96 99.78)"><tspan x="0" y="0">SCLR</tspan></text>
    <text class="cls-12" transform="translate(590.42 94.07)"><tspan x="0" y="0">4&apos;h0</tspan></text>
    <line class="cls-7" x1="666.86" y1="72.66" x2="658.79" y2="72.66"/>
    <text class="cls-11" transform="translate(650.89 75.56)"><tspan x="0" y="0">Q</tspan></text>
    <polygon class="cls-6" points="699.16 16.15 699.16 10.5 710.46 10.5 716.11 16.15 710.46 21.8 699.16 21.8 699.16 16.15"/>
    <text class="cls-9" transform="translate(722.57 19.62)"><tspan x="0" y="0">counter[3..0]</tspan></text>
    <polyline class="cls-4" points="174.39 137.25 230.9 137.25 230.9 129.17 247.05 129.17"/>
    <line class="cls-2" x1="45.21" y1="64.59" x2="602.28" y2="64.59"/>
    <polyline class="cls-2" points="45.21 161.47 400.44 161.47 400.44 129.17 626.5 129.17 626.5 121.1"/>
    <rect class="cls-13" x="463.41" y="127.56" width="4.04" height="4.04"/>
    <line class="cls-2" x1="465.03" y1="129.17" x2="465.03" y2="145.32"/>
    <line class="cls-2" x1="45.21" y1="80.73" x2="602.28" y2="80.73"/>
    <rect class="cls-13" x="269.65" y="79.12" width="4.04" height="4.04"/>
    <line class="cls-2" x1="271.27" y1="80.73" x2="271.27" y2="96.88"/>
    <polyline class="cls-4" points="489.25 169.54 569.98 169.54 569.98 48.44 602.28 48.44"/>
    <polyline class="cls-4" points="125.94 137.25 61.36 137.25 61.36 96.88 230.9 96.88"/>
    <rect class="cls-13" x="228.48" y="94.46" width="5.65" height="5.65"/>
    <polyline class="cls-4" points="247.05 113.03 230.9 113.03 230.9 8.07 683.01 8.07 683.01 72.66 666.86 72.66"/>
    <line class="cls-4" x1="683.01" y1="16.15" x2="699.16" y2="16.15"/>
    <rect class="cls-13" x="680.59" y="13.72" width="5.65" height="5.65"/>
    <polyline class="cls-4" points="295.49 121.1 384.29 121.1 384.29 145.32 408.51 145.32 408.51 161.47 440.81 161.47"/>
  </g>
</svg>