<?xml version="1.0" encoding="UTF-8"?>
<svg id="Capa_1" xmlns="http://www.w3.org/2000/svg" xmlns:xlink="http://www.w3.org/1999/xlink" viewBox="0 0 697.47 612">
  <defs>
    <style>
      .cls-1 {
        opacity: .41;
      }

      .cls-2, .cls-3, .cls-4, .cls-5, .cls-6, .cls-7 {
        fill: none;
      }

      .cls-2, .cls-6 {
        stroke-width: 3.17px;
      }

      .cls-2, .cls-7 {
        stroke: blue;
      }

      .cls-8 {
        fill: #2d2d2d;
      }

      .cls-9 {
        fill: #fff;
      }

      .cls-10 {
        fill: #81bf5f;
      }

      .cls-11 {
        font-size: 10.55px;
      }

      .cls-11, .cls-12, .cls-13 {
        font-family: ArialMT, Arial;
      }

      .cls-11, .cls-13 {
        fill: #06476f;
      }

      .cls-12, .cls-13 {
        font-size: 12.66px;
      }

      .cls-4, .cls-5, .cls-7 {
        stroke-width: 1.06px;
      }

      .cls-4, .cls-6 {
        stroke: #2d2d2d;
      }

      .cls-5 {
        stroke: #06476f;
      }

      .cls-14 {
        fill: #73acac;
      }

      .cls-15 {
        fill: #dce6dc;
      }

      .cls-16 {
        clip-path: url(#clippath);
      }
    </style>
    <clipPath id="clippath">
      <rect class="cls-3" width="697.47" height="612"/>
    </clipPath>
  </defs>
  <g class="cls-16">
    <rect class="cls-9" width="696.41" height="613.05"/>
    <polygon class="cls-1" points="357.7 26.38 509.65 26.38 512.81 27.43 515.98 28.49 517.03 31.66 518.09 34.82 518.09 176.21 517.03 179.38 515.98 182.54 512.81 183.6 509.65 184.65 357.7 184.65 354.54 183.6 351.37 182.54 350.32 179.38 349.26 176.21 349.26 34.82 350.32 31.66 351.37 28.49 354.54 27.43 357.7 26.38"/>
    <polygon class="cls-15" points="352.43 21.1 504.37 21.1 507.54 22.16 510.7 23.21 511.76 26.38 512.81 29.54 512.81 170.94 511.76 174.1 510.7 177.27 507.54 178.32 504.37 179.38 352.43 179.38 349.26 178.32 346.1 177.27 345.04 174.1 343.99 170.94 343.99 29.54 345.04 26.38 346.1 23.21 349.26 22.16 352.43 21.1"/>
    <line class="cls-4" x1="352.43" y1="21.1" x2="504.37" y2="21.1"/>
    <path class="cls-4" d="M512.81,29.54c0-.12,0-.23,0-.35-.1-4.56-3.88-8.19-8.44-8.09"/>
    <line class="cls-4" x1="512.81" y1="29.54" x2="512.81" y2="170.94"/>
    <path class="cls-4" d="M504.37,179.38c.12,0,.23,0,.35,0,4.57-.1,8.19-3.88,8.09-8.44"/>
    <line class="cls-4" x1="504.37" y1="179.38" x2="352.43" y2="179.38"/>
    <path class="cls-4" d="M343.99,170.94c0,.12,0,.23,0,.35.1,4.57,3.88,8.19,8.44,8.09"/>
    <line class="cls-4" x1="343.99" y1="170.94" x2="343.99" y2="29.54"/>
    <path class="cls-4" d="M352.43,21.1c-.12,0-.23,0-.35,0-4.57.1-8.19,3.88-8.09,8.44"/>
    <line class="cls-6" x1="349.26" y1="32.71" x2="361.92" y2="32.71"/>
    <rect class="cls-4" x="347.15" y="24.27" width="16.88" height="16.88"/>
    <text class="cls-12" transform="translate(397.08 16.37)"><tspan x="0" y="0">my_dff:dff1</tspan></text>
    <line class="cls-5" x1="333.43" y1="84.41" x2="343.99" y2="84.41"/>
    <text class="cls-11" transform="translate(328.98 80.12)"><tspan x="0" y="0">clk</tspan></text>
    <path class="cls-5" d="M343.99,63.31c0-1.75-1.42-3.17-3.17-3.17s-3.17,1.42-3.17,3.17,1.42,3.17,3.17,3.17,3.17-1.42,3.17-3.17"/>
    <line class="cls-5" x1="333.43" y1="63.31" x2="337.65" y2="63.31"/>
    <text class="cls-11" transform="translate(336.01 59.02)"><tspan x="0" y="0">d</tspan></text>
    <line class="cls-5" x1="333.43" y1="105.52" x2="343.99" y2="105.52"/>
    <text class="cls-11" transform="translate(324.28 101.22)"><tspan x="0" y="0">ena</tspan></text>
    <line class="cls-5" x1="333.43" y1="168.83" x2="343.99" y2="168.83"/>
    <text class="cls-11" transform="translate(330.15 164.53)"><tspan x="0" y="0">rst</tspan></text>
    <line class="cls-5" x1="523.36" y1="94.97" x2="512.81" y2="94.97"/>
    <text class="cls-11" transform="translate(519.14 90.67)"><tspan x="0" y="0">q</tspan></text>
    <line class="cls-5" x1="354.54" y1="84.41" x2="343.99" y2="84.41"/>
    <line class="cls-5" x1="354.54" y1="63.31" x2="343.99" y2="63.31"/>
    <line class="cls-5" x1="354.54" y1="105.52" x2="343.99" y2="105.52"/>
    <line class="cls-5" x1="354.54" y1="168.83" x2="343.99" y2="168.83"/>
    <line class="cls-5" x1="502.26" y1="94.97" x2="512.81" y2="94.97"/>
    <polygon class="cls-2" points="576.12 84.41 576.12 77.03 590.9 77.03 598.28 84.41 590.9 91.8 576.12 91.8 576.12 84.41"/>
    <text class="cls-12" transform="translate(606.72 88.96)"><tspan x="0" y="0">counter[3..0]</tspan></text>
    <polygon class="cls-1" points="138.23 184.65 138.23 200.48 164.61 200.48 167.77 200.48 170.94 199.43 173.05 198.37 175.16 196.26 178.32 193.1 179.38 190.99 180.43 187.82 180.43 184.65 180.43 181.49 179.38 178.32 178.32 176.21 176.21 174.1 173.05 170.94 170.94 169.88 167.77 168.83 164.61 168.83 138.23 168.83 138.23 184.65"/>
    <polygon class="cls-14" points="132.95 179.38 132.95 195.21 159.33 195.21 162.5 195.21 165.66 194.15 167.77 193.1 169.88 190.99 173.05 187.82 174.1 185.71 175.16 182.54 175.16 179.38 175.16 176.21 174.1 173.05 173.05 170.94 170.94 168.83 167.77 165.66 165.66 164.61 162.5 163.55 159.33 163.55 132.95 163.55 132.95 179.38"/>
    <polyline class="cls-4" points="132.95 179.38 132.95 195.21 159.33 195.21"/>
    <path class="cls-4" d="M159.33,163.55h0c8.74,0,15.83,7.09,15.83,15.83s-7.09,15.83-15.83,15.83"/>
    <polyline class="cls-4" points="159.33 163.55 132.95 163.55 132.95 179.38"/>
    <text class="cls-12" transform="translate(135.06 159.88)"><tspan x="0" y="0">enables1</tspan></text>
    <path class="cls-5" d="M132.95,189.93c0-1.75-1.42-3.17-3.17-3.17s-3.17,1.42-3.17,3.17,1.42,3.17,3.17,3.17,3.17-1.42,3.17-3.17"/>
    <line class="cls-5" x1="122.4" y1="189.93" x2="126.62" y2="189.93"/>
    <line class="cls-5" x1="122.4" y1="168.83" x2="132.95" y2="168.83"/>
    <line class="cls-5" x1="185.71" y1="179.38" x2="175.16" y2="179.38"/>
    <polygon class="cls-1" points="138.23 237.41 138.23 253.24 164.61 253.24 167.77 253.24 170.94 252.19 173.05 251.13 175.16 249.02 178.32 245.85 179.38 243.74 180.43 240.58 180.43 237.41 180.43 234.25 179.38 231.08 178.32 228.97 176.21 226.86 173.05 223.7 170.94 222.64 167.77 221.59 164.61 221.59 138.23 221.59 138.23 237.41"/>
    <polygon class="cls-14" points="132.95 232.14 132.95 247.97 159.33 247.97 162.5 247.97 165.66 246.91 167.77 245.85 169.88 243.74 173.05 240.58 174.1 238.47 175.16 235.3 175.16 232.14 175.16 228.97 174.1 225.81 173.05 223.7 170.94 221.59 167.77 218.42 165.66 217.37 162.5 216.31 159.33 216.31 132.95 216.31 132.95 232.14"/>
    <polyline class="cls-4" points="132.95 232.14 132.95 247.97 159.33 247.97"/>
    <path class="cls-4" d="M159.33,216.31h0c8.74,0,15.83,7.09,15.83,15.83s-7.09,15.83-15.83,15.83"/>
    <polyline class="cls-4" points="159.33 216.31 132.95 216.31 132.95 232.14"/>
    <line class="cls-4" x1="132.95" y1="216.31" x2="132.95" y2="206.81"/>
    <line class="cls-4" x1="132.95" y1="247.97" x2="132.95" y2="257.46"/>
    <text class="cls-12" transform="translate(135.06 212.63)"><tspan x="0" y="0">enables2</tspan></text>
    <line class="cls-5" x1="122.4" y1="211.03" x2="132.95" y2="211.03"/>
    <path class="cls-5" d="M132.95,232.14c0-1.75-1.42-3.17-3.17-3.17s-3.17,1.42-3.17,3.17,1.42,3.17,3.17,3.17,3.17-1.42,3.17-3.17"/>
    <line class="cls-5" x1="122.4" y1="232.14" x2="126.62" y2="232.14"/>
    <path class="cls-5" d="M132.95,253.24c0-1.75-1.42-3.17-3.17-3.17s-3.17,1.42-3.17,3.17,1.42,3.17,3.17,3.17,3.17-1.42,3.17-3.17"/>
    <line class="cls-5" x1="122.4" y1="253.24" x2="126.62" y2="253.24"/>
    <line class="cls-5" x1="185.71" y1="232.14" x2="175.16" y2="232.14"/>
    <polygon class="cls-1" points="138.23 332.38 138.23 348.21 164.61 348.21 167.77 348.21 170.94 347.15 173.05 346.1 175.16 343.99 178.32 340.82 179.38 338.71 180.43 335.54 180.43 332.38 180.43 329.21 179.38 326.05 178.32 323.94 176.21 321.83 173.05 318.66 170.94 317.61 167.77 316.55 164.61 316.55 138.23 316.55 138.23 332.38"/>
    <polygon class="cls-14" points="132.95 327.1 132.95 342.93 159.33 342.93 162.5 342.93 165.66 341.88 167.77 340.82 169.88 338.71 173.05 335.54 174.1 333.43 175.16 330.27 175.16 327.1 175.16 323.94 174.1 320.77 173.05 318.66 170.94 316.55 167.77 313.39 165.66 312.33 162.5 311.28 159.33 311.28 132.95 311.28 132.95 327.1"/>
    <polyline class="cls-4" points="132.95 327.1 132.95 342.93 159.33 342.93"/>
    <path class="cls-4" d="M159.33,311.28h0c8.74,0,15.83,7.09,15.83,15.83s-7.09,15.83-15.83,15.83"/>
    <polyline class="cls-4" points="159.33 311.28 132.95 311.28 132.95 327.1"/>
    <line class="cls-4" x1="132.95" y1="311.28" x2="132.95" y2="291.23"/>
    <line class="cls-4" x1="132.95" y1="342.93" x2="132.95" y2="362.98"/>
    <text class="cls-12" transform="translate(135.06 307.6)"><tspan x="0" y="0">enables3</tspan></text>
    <line class="cls-5" x1="122.4" y1="358.76" x2="132.95" y2="358.76"/>
    <path class="cls-5" d="M132.95,295.45c0-1.75-1.42-3.17-3.17-3.17s-3.17,1.42-3.17,3.17,1.42,3.17,3.17,3.17,3.17-1.42,3.17-3.17"/>
    <line class="cls-5" x1="122.4" y1="295.45" x2="126.62" y2="295.45"/>
    <path class="cls-5" d="M132.95,316.55c0-1.75-1.42-3.17-3.17-3.17s-3.17,1.42-3.17,3.17,1.42,3.17,3.17,3.17,3.17-1.42,3.17-3.17"/>
    <line class="cls-5" x1="122.4" y1="316.55" x2="126.62" y2="316.55"/>
    <path class="cls-5" d="M132.95,337.65c0-1.75-1.42-3.17-3.17-3.17s-3.17,1.42-3.17,3.17,1.42,3.17,3.17,3.17,3.17-1.42,3.17-3.17"/>
    <line class="cls-5" x1="122.4" y1="337.65" x2="126.62" y2="337.65"/>
    <line class="cls-5" x1="185.71" y1="327.1" x2="175.16" y2="327.1"/>
    <polygon class="cls-7" points="59.09 168.83 51.7 176.21 36.93 176.21 36.93 161.44 51.7 161.44 59.09 168.83"/>
    <text class="cls-12" transform="translate(11.59 173.37)"><tspan x="0" y="0">ena</tspan></text>
    <rect class="cls-1" x="349.26" y="351.37" width="63.31" height="107.63"/>
    <rect class="cls-10" x="343.99" y="346.1" width="63.31" height="107.63"/>
    <rect class="cls-4" x="343.99" y="346.1" width="63.31" height="107.63"/>
    <line class="cls-6" x1="355.59" y1="351.37" x2="355.59" y2="364.03"/>
    <line class="cls-6" x1="349.26" y1="357.7" x2="361.92" y2="357.7"/>
    <rect class="cls-4" x="347.15" y="349.26" width="16.88" height="16.88"/>
    <text class="cls-12" transform="translate(344.32 341.37)"><tspan x="0" y="0">my_dff:dff0</tspan></text>
    <line class="cls-5" x1="333.43" y1="379.86" x2="343.99" y2="379.86"/>
    <text class="cls-11" transform="translate(328.98 376.62)"><tspan x="0" y="0">clk</tspan></text>
    <path class="cls-5" d="M343.99,400.97c0-1.75-1.42-3.17-3.17-3.17s-3.17,1.42-3.17,3.17,1.42,3.17,3.17,3.17,3.17-1.42,3.17-3.17"/>
    <line class="cls-5" x1="333.43" y1="400.97" x2="337.65" y2="400.97"/>
    <text class="cls-11" transform="translate(331.79 397.72)"><tspan x="0" y="0">d</tspan></text>
    <line class="cls-5" x1="333.43" y1="422.07" x2="343.99" y2="422.07"/>
    <text class="cls-11" transform="translate(324.28 418.83)"><tspan x="0" y="0">ena</tspan></text>
    <line class="cls-5" x1="333.43" y1="443.17" x2="343.99" y2="443.17"/>
    <text class="cls-11" transform="translate(330.15 439.93)"><tspan x="0" y="0">rst</tspan></text>
    <line class="cls-5" x1="417.85" y1="400.97" x2="407.3" y2="400.97"/>
    <text class="cls-11" transform="translate(413.63 397.72)"><tspan x="0" y="0">q</tspan></text>
    <line class="cls-5" x1="354.54" y1="379.86" x2="343.99" y2="379.86"/>
    <line class="cls-5" x1="354.54" y1="400.97" x2="343.99" y2="400.97"/>
    <line class="cls-5" x1="354.54" y1="422.07" x2="343.99" y2="422.07"/>
    <line class="cls-5" x1="354.54" y1="443.17" x2="343.99" y2="443.17"/>
    <line class="cls-5" x1="396.74" y1="400.97" x2="407.3" y2="400.97"/>
    <polygon class="cls-7" points="59.09 400.97 51.7 408.35 36.93 408.35 36.93 393.58 51.7 393.58 59.09 400.97"/>
    <text class="cls-12" transform="translate(18.64 405.51)"><tspan x="0" y="0">rst</tspan></text>
    <rect class="cls-1" x="412.57" y="47.48" width="63.31" height="105.52"/>
    <rect class="cls-14" x="407.3" y="42.21" width="63.31" height="105.52"/>
    <rect class="cls-4" x="407.3" y="42.21" width="63.31" height="105.52"/>
    <polyline class="cls-4" points="407.3 87.58 414.68 84.41 407.3 81.25"/>
    <text class="cls-12" transform="translate(419.07 37.48)"><tspan x="0" y="0">q~reg0</tspan></text>
    <line class="cls-5" x1="396.74" y1="63.31" x2="407.3" y2="63.31"/>
    <text class="cls-11" transform="translate(409.41 67.1)"><tspan x="0" y="0">D</tspan></text>
    <line class="cls-5" x1="396.74" y1="84.41" x2="407.3" y2="84.41"/>
    <text class="cls-11" transform="translate(416.79 88.2)"><tspan x="0" y="0">CLK</tspan></text>
    <line class="cls-5" x1="428.4" y1="158.28" x2="428.4" y2="147.72"/>
    <text class="cls-11" transform="translate(425.23 143.43)"><tspan x="0" y="0">CLRN</tspan></text>
    <line class="cls-5" x1="396.74" y1="105.52" x2="407.3" y2="105.52"/>
    <text class="cls-11" transform="translate(409.41 109.3)"><tspan x="0" y="0">ENA</tspan></text>
    <line class="cls-5" x1="396.74" y1="126.62" x2="407.3" y2="126.62"/>
    <text class="cls-11" transform="translate(409.41 130.41)"><tspan x="0" y="0">SCLR</tspan></text>
    <text class="cls-13" transform="translate(381.25 122.94)"><tspan x="0" y="0">1&apos;h0</tspan></text>
    <line class="cls-5" x1="481.16" y1="94.97" x2="470.61" y2="94.97"/>
    <text class="cls-11" transform="translate(460.29 98.75)"><tspan x="0" y="0">Q</tspan></text>
    <rect class="cls-1" x="349.26" y="214.2" width="63.31" height="107.63"/>
    <rect class="cls-10" x="343.99" y="208.92" width="63.31" height="107.63"/>
    <rect class="cls-4" x="343.99" y="208.92" width="63.31" height="107.63"/>
    <line class="cls-6" x1="355.59" y1="214.2" x2="355.59" y2="226.86"/>
    <line class="cls-6" x1="349.26" y1="220.53" x2="361.92" y2="220.53"/>
    <rect class="cls-4" x="347.15" y="212.09" width="16.88" height="16.88"/>
    <text class="cls-12" transform="translate(344.32 204.19)"><tspan x="0" y="0">my_dff:dff2</tspan></text>
    <line class="cls-5" x1="333.43" y1="242.69" x2="343.99" y2="242.69"/>
    <text class="cls-11" transform="translate(328.98 239.45)"><tspan x="0" y="0">clk</tspan></text>
    <path class="cls-5" d="M343.99,263.79c0-1.75-1.42-3.17-3.17-3.17s-3.17,1.42-3.17,3.17,1.42,3.17,3.17,3.17,3.17-1.42,3.17-3.17"/>
    <line class="cls-5" x1="333.43" y1="263.79" x2="337.65" y2="263.79"/>
    <text class="cls-11" transform="translate(331.79 260.55)"><tspan x="0" y="0">d</tspan></text>
    <line class="cls-5" x1="333.43" y1="284.9" x2="343.99" y2="284.9"/>
    <text class="cls-11" transform="translate(324.28 281.66)"><tspan x="0" y="0">ena</tspan></text>
    <line class="cls-5" x1="333.43" y1="306" x2="343.99" y2="306"/>
    <text class="cls-11" transform="translate(330.15 302.76)"><tspan x="0" y="0">rst</tspan></text>
    <line class="cls-5" x1="417.85" y1="263.79" x2="407.3" y2="263.79"/>
    <text class="cls-11" transform="translate(413.63 260.55)"><tspan x="0" y="0">q</tspan></text>
    <line class="cls-5" x1="354.54" y1="242.69" x2="343.99" y2="242.69"/>
    <line class="cls-5" x1="354.54" y1="263.79" x2="343.99" y2="263.79"/>
    <line class="cls-5" x1="354.54" y1="284.9" x2="343.99" y2="284.9"/>
    <line class="cls-5" x1="354.54" y1="306" x2="343.99" y2="306"/>
    <line class="cls-5" x1="396.74" y1="263.79" x2="407.3" y2="263.79"/>
    <rect class="cls-1" x="349.26" y="499.1" width="63.31" height="107.63"/>
    <rect class="cls-10" x="343.99" y="493.82" width="63.31" height="107.63"/>
    <rect class="cls-4" x="343.99" y="493.82" width="63.31" height="107.63"/>
    <line class="cls-6" x1="355.59" y1="499.1" x2="355.59" y2="511.76"/>
    <line class="cls-6" x1="349.26" y1="505.43" x2="361.92" y2="505.43"/>
    <rect class="cls-4" x="347.15" y="496.99" width="16.88" height="16.88"/>
    <text class="cls-12" transform="translate(344.32 489.09)"><tspan x="0" y="0">my_dff:dff3</tspan></text>
    <line class="cls-5" x1="333.43" y1="527.59" x2="343.99" y2="527.59"/>
    <text class="cls-11" transform="translate(328.98 524.35)"><tspan x="0" y="0">clk</tspan></text>
    <path class="cls-5" d="M343.99,548.69c0-1.75-1.42-3.17-3.17-3.17s-3.17,1.42-3.17,3.17,1.42,3.17,3.17,3.17,3.17-1.42,3.17-3.17"/>
    <line class="cls-5" x1="333.43" y1="548.69" x2="337.65" y2="548.69"/>
    <text class="cls-11" transform="translate(331.79 545.45)"><tspan x="0" y="0">d</tspan></text>
    <line class="cls-5" x1="333.43" y1="569.79" x2="343.99" y2="569.79"/>
    <text class="cls-11" transform="translate(324.28 566.55)"><tspan x="0" y="0">ena</tspan></text>
    <line class="cls-5" x1="333.43" y1="590.9" x2="343.99" y2="590.9"/>
    <text class="cls-11" transform="translate(330.15 587.66)"><tspan x="0" y="0">rst</tspan></text>
    <line class="cls-5" x1="417.85" y1="548.69" x2="407.3" y2="548.69"/>
    <text class="cls-11" transform="translate(413.63 545.45)"><tspan x="0" y="0">q</tspan></text>
    <line class="cls-5" x1="354.54" y1="527.59" x2="343.99" y2="527.59"/>
    <line class="cls-5" x1="354.54" y1="548.69" x2="343.99" y2="548.69"/>
    <line class="cls-5" x1="354.54" y1="569.79" x2="343.99" y2="569.79"/>
    <line class="cls-5" x1="354.54" y1="590.9" x2="343.99" y2="590.9"/>
    <line class="cls-5" x1="396.74" y1="548.69" x2="407.3" y2="548.69"/>
    <polygon class="cls-7" points="59.09 63.31 51.7 70.7 36.93 70.7 36.93 55.92 51.7 55.92 59.09 63.31"/>
    <text class="cls-12" transform="translate(17.24 67.86)"><tspan x="0" y="0">clk</tspan></text>
    <line class="cls-6" x1="101.3" y1="186.77" x2="101.3" y2="340.82"/>
    <line class="cls-6" x1="101.3" y1="274.34" x2="301.78" y2="274.34"/>
    <line class="cls-6" x1="301.78" y1="464.28" x2="555.02" y2="464.28"/>
    <rect class="cls-8" x="551.85" y="461.11" width="7.39" height="7.39"/>
    <rect class="cls-8" x="98.13" y="271.18" width="7.39" height="7.39"/>
    <line class="cls-6" x1="301.78" y1="60.14" x2="301.78" y2="551.85"/>
    <rect class="cls-8" x="298.61" y="271.18" width="7.39" height="7.39"/>
    <rect class="cls-8" x="298.61" y="461.11" width="7.39" height="7.39"/>
    <polyline class="cls-6" points="555.02 551.85 555.02 84.41 576.12 84.41"/>
    <line class="cls-4" x1="101.3" y1="189.93" x2="122.4" y2="189.93"/>
    <line class="cls-4" x1="101.3" y1="232.14" x2="122.4" y2="232.14"/>
    <line class="cls-4" x1="101.3" y1="253.24" x2="122.4" y2="253.24"/>
    <line class="cls-4" x1="301.78" y1="400.97" x2="333.43" y2="400.97"/>
    <line class="cls-4" x1="417.85" y1="400.97" x2="555.02" y2="400.97"/>
    <line class="cls-4" x1="417.85" y1="263.79" x2="555.02" y2="263.79"/>
    <line class="cls-4" x1="523.36" y1="94.97" x2="555.02" y2="94.97"/>
    <line class="cls-4" x1="101.3" y1="295.45" x2="122.4" y2="295.45"/>
    <line class="cls-4" x1="101.3" y1="316.55" x2="122.4" y2="316.55"/>
    <line class="cls-4" x1="101.3" y1="337.65" x2="122.4" y2="337.65"/>
    <line class="cls-4" x1="301.78" y1="63.31" x2="333.43" y2="63.31"/>
    <line class="cls-4" x1="301.78" y1="263.79" x2="333.43" y2="263.79"/>
    <line class="cls-4" x1="301.78" y1="548.69" x2="333.43" y2="548.69"/>
    <line class="cls-4" x1="417.85" y1="548.69" x2="555.02" y2="548.69"/>
    <polyline points="556.08 543.41 556.08 553.96 544.47 548.69"/>
    <polyline points="556.08 395.69 556.08 406.24 544.47 400.97"/>
    <polyline points="556.08 258.52 556.08 269.07 544.47 263.79"/>
    <polyline points="556.08 89.69 556.08 100.24 544.47 94.97"/>
    <polyline points="100.24 184.65 100.24 195.21 111.85 189.93"/>
    <polyline points="100.24 226.86 100.24 237.41 111.85 232.14"/>
    <polyline points="100.24 247.97 100.24 258.52 111.85 253.24"/>
    <polyline points="100.24 290.17 100.24 300.72 111.85 295.45"/>
    <polyline points="100.24 311.28 100.24 321.83 111.85 316.55"/>
    <polyline points="100.24 332.38 100.24 342.93 111.85 337.65"/>
    <polyline points="300.72 58.03 300.72 68.59 312.33 63.31"/>
    <polyline points="300.72 258.52 300.72 269.07 312.33 263.79"/>
    <polyline points="300.72 395.69 300.72 406.24 312.33 400.97"/>
    <polyline points="300.72 543.41 300.72 553.96 312.33 548.69"/>
    <polyline class="cls-4" points="185.71 179.38 217.37 179.38 217.37 105.52 333.43 105.52"/>
    <polyline class="cls-4" points="185.71 232.14 259.57 232.14 259.57 284.9 333.43 284.9"/>
    <polyline class="cls-4" points="185.71 327.1 217.37 327.1 217.37 569.79 333.43 569.79"/>
    <polyline class="cls-4" points="59.09 63.31 280.68 63.31 280.68 527.59 333.43 527.59"/>
    <line class="cls-4" x1="280.68" y1="84.41" x2="333.43" y2="84.41"/>
    <line class="cls-4" x1="280.68" y1="242.69" x2="333.43" y2="242.69"/>
    <line class="cls-4" x1="280.68" y1="379.86" x2="333.43" y2="379.86"/>
    <rect class="cls-8" x="278.57" y="82.3" width="5.28" height="5.28"/>
    <rect class="cls-8" x="278.57" y="240.58" width="5.28" height="5.28"/>
    <rect class="cls-8" x="278.57" y="377.75" width="5.28" height="5.28"/>
    <line class="cls-4" x1="59.09" y1="400.97" x2="238.47" y2="400.97"/>
    <line class="cls-4" x1="238.47" y1="443.17" x2="333.43" y2="443.17"/>
    <rect class="cls-8" x="236.36" y="303.89" width="5.28" height="5.28"/>
    <rect class="cls-8" x="236.36" y="398.85" width="5.28" height="5.28"/>
    <rect class="cls-8" x="236.36" y="441.06" width="5.28" height="5.28"/>
    <polyline class="cls-4" points="333.43 168.83 238.47 168.83 238.47 590.9 333.43 590.9"/>
    <line class="cls-4" x1="238.47" y1="306" x2="333.43" y2="306"/>
    <polyline class="cls-4" points="59.09 168.83 80.19 168.83 80.19 379.86 259.57 379.86 259.57 422.07 333.43 422.07"/>
    <line class="cls-4" x1="80.19" y1="168.83" x2="122.4" y2="168.83"/>
    <line class="cls-4" x1="80.19" y1="211.03" x2="122.4" y2="211.03"/>
    <line class="cls-4" x1="80.19" y1="358.76" x2="122.4" y2="358.76"/>
    <rect class="cls-8" x="78.08" y="166.72" width="5.28" height="5.28"/>
    <rect class="cls-8" x="78.08" y="208.92" width="5.28" height="5.28"/>
    <rect class="cls-8" x="78.08" y="356.65" width="5.28" height="5.28"/>
    <line class="cls-4" x1="354.54" y1="84.41" x2="396.74" y2="84.41"/>
    <polyline class="cls-4" points="354.54 168.83 428.4 168.83 428.4 158.28"/>
    <line class="cls-4" x1="354.54" y1="105.52" x2="396.74" y2="105.52"/>
    <line class="cls-4" x1="354.54" y1="63.31" x2="396.74" y2="63.31"/>
    <line class="cls-4" x1="481.16" y1="94.97" x2="502.26" y2="94.97"/>
  </g>
</svg>