<?xml version="1.0" encoding="UTF-8"?>
<svg id="Capa_1" xmlns="http://www.w3.org/2000/svg" xmlns:xlink="http://www.w3.org/1999/xlink" viewBox="0 0 706 612">
  <defs>
    <style>
      .cls-1 {
        opacity: .41;
      }

      .cls-2, .cls-3 {
        font-size: 12.63px;
      }

      .cls-2, .cls-3, .cls-4 {
        font-family: ArialMT, Arial;
      }

      .cls-2, .cls-4 {
        fill: #06476f;
      }

      .cls-5 {
        fill: #2d2d2d;
      }

      .cls-6 {
        fill: #fff;
      }

      .cls-7 {
        fill: #81bf5f;
      }

      .cls-8, .cls-9, .cls-10, .cls-11, .cls-12, .cls-13 {
        fill: none;
      }

      .cls-9, .cls-10 {
        stroke: #2d2d2d;
      }

      .cls-9, .cls-13 {
        stroke-width: 3.16px;
      }

      .cls-10, .cls-11, .cls-12 {
        stroke-width: 1.05px;
      }

      .cls-11 {
        stroke: #06476f;
      }

      .cls-12, .cls-13 {
        stroke: blue;
      }

      .cls-4 {
        font-size: 10.52px;
      }

      .cls-14 {
        fill: #73acac;
      }

      .cls-15 {
        fill: #dce6dc;
      }

      .cls-16 {
        clip-path: url(#clippath);
      }
    </style>
    <clipPath id="clippath">
      <rect class="cls-8" x="0" y=".87" width="706" height="610.25"/>
    </clipPath>
  </defs>
  <g class="cls-16">
    <rect class="cls-6" x="0" y=".87" width="704.95" height="611.31"/>
    <polygon class="cls-1" points="367.2 27.18 518.72 27.18 521.87 28.23 525.03 29.28 526.08 32.44 527.13 35.59 527.13 176.58 526.08 179.74 525.03 182.9 521.87 183.95 518.72 185 367.2 185 364.05 183.95 360.89 182.9 359.84 179.74 358.79 176.58 358.79 35.59 359.84 32.44 360.89 29.28 364.05 28.23 367.2 27.18"/>
    <polygon class="cls-15" points="361.94 21.92 513.45 21.92 516.61 22.97 519.77 24.02 520.82 27.18 521.87 30.33 521.87 171.32 520.82 174.48 519.77 177.64 516.61 178.69 513.45 179.74 361.94 179.74 358.79 178.69 355.63 177.64 354.58 174.48 353.53 171.32 353.53 30.33 354.58 27.18 355.63 24.02 358.79 22.97 361.94 21.92"/>
    <line class="cls-10" x1="361.94" y1="21.92" x2="513.45" y2="21.92"/>
    <path class="cls-10" d="M521.87,30.33c0-.12,0-.23,0-.35-.1-4.55-3.87-8.16-8.42-8.07"/>
    <line class="cls-10" x1="521.87" y1="30.33" x2="521.87" y2="171.32"/>
    <path class="cls-10" d="M513.45,179.74c.12,0,.23,0,.35,0,4.55-.1,8.16-3.87,8.07-8.42"/>
    <line class="cls-10" x1="513.45" y1="179.74" x2="361.94" y2="179.74"/>
    <path class="cls-10" d="M353.53,171.32c0,.12,0,.23,0,.35.1,4.55,3.87,8.16,8.42,8.07"/>
    <line class="cls-10" x1="353.53" y1="171.32" x2="353.53" y2="30.33"/>
    <path class="cls-10" d="M361.94,21.92c-.12,0-.23,0-.35,0-4.55.1-8.16,3.87-8.07,8.42"/>
    <line class="cls-9" x1="358.79" y1="33.49" x2="371.41" y2="33.49"/>
    <rect class="cls-10" x="356.68" y="25.07" width="16.83" height="16.83"/>
    <text class="cls-3" transform="translate(400.52 17.2)"><tspan x="0" y="0">my_dff:DUT1</tspan></text>
    <line class="cls-11" x1="343" y1="85.05" x2="353.53" y2="85.05"/>
    <text class="cls-4" transform="translate(338.56 80.76)"><tspan x="0" y="0">clk</tspan></text>
    <path class="cls-11" d="M353.53,64c0-1.74-1.41-3.16-3.16-3.16s-3.16,1.41-3.16,3.16,1.41,3.16,3.16,3.16,3.16-1.41,3.16-3.16"/>
    <line class="cls-11" x1="343" y1="64" x2="347.21" y2="64"/>
    <text class="cls-4" transform="translate(345.57 59.72)"><tspan x="0" y="0">d</tspan></text>
    <line class="cls-11" x1="343" y1="106.09" x2="353.53" y2="106.09"/>
    <text class="cls-4" transform="translate(333.87 101.81)"><tspan x="0" y="0">ena</tspan></text>
    <line class="cls-11" x1="343" y1="169.22" x2="353.53" y2="169.22"/>
    <text class="cls-4" transform="translate(339.73 164.94)"><tspan x="0" y="0">rst</tspan></text>
    <line class="cls-11" x1="532.39" y1="95.57" x2="521.87" y2="95.57"/>
    <text class="cls-4" transform="translate(528.18 91.29)"><tspan x="0" y="0">q</tspan></text>
    <line class="cls-11" x1="364.05" y1="85.05" x2="353.53" y2="85.05"/>
    <line class="cls-11" x1="364.05" y1="64" x2="353.53" y2="64"/>
    <line class="cls-11" x1="364.05" y1="106.09" x2="353.53" y2="106.09"/>
    <line class="cls-11" x1="364.05" y1="169.22" x2="353.53" y2="169.22"/>
    <line class="cls-11" x1="511.35" y1="95.57" x2="521.87" y2="95.57"/>
    <polygon class="cls-13" points="585 85.05 585 77.68 599.73 77.68 607.1 85.05 599.73 92.41 585 92.41 585 85.05"/>
    <text class="cls-3" transform="translate(615.51 89.58)"><tspan x="0" y="0">counter[3..0]</tspan></text>
    <polygon class="cls-1" points="137.83 185 137.83 200.78 164.14 200.78 167.29 200.78 170.45 199.73 172.55 198.68 174.66 196.58 177.82 193.42 178.87 191.31 179.92 188.16 179.92 185 179.92 181.85 178.87 178.69 177.82 176.58 175.71 174.48 172.55 171.32 170.45 170.27 167.29 169.22 164.14 169.22 137.83 169.22 137.83 185"/>
    <polygon class="cls-14" points="132.57 179.74 132.57 195.52 158.88 195.52 162.03 195.52 165.19 194.47 167.29 193.42 169.4 191.31 172.55 188.16 173.61 186.05 174.66 182.9 174.66 179.74 174.66 176.58 173.61 173.43 172.55 171.32 170.45 169.22 167.29 166.06 165.19 165.01 162.03 163.96 158.88 163.96 132.57 163.96 132.57 179.74"/>
    <polyline class="cls-10" points="132.57 179.74 132.57 195.52 158.88 195.52"/>
    <path class="cls-10" d="M158.88,163.96h0c8.72,0,15.78,7.07,15.78,15.78s-7.07,15.78-15.78,15.78"/>
    <polyline class="cls-10" points="158.88 163.96 132.57 163.96 132.57 179.74"/>
    <text class="cls-3" transform="translate(134.68 160.29)"><tspan x="0" y="0">enables[1]</tspan></text>
    <path class="cls-11" d="M132.57,190.26c0-1.74-1.41-3.16-3.16-3.16s-3.16,1.41-3.16,3.16,1.41,3.16,3.16,3.16,3.16-1.41,3.16-3.16"/>
    <line class="cls-11" x1="122.05" y1="190.26" x2="126.26" y2="190.26"/>
    <line class="cls-11" x1="122.05" y1="169.22" x2="132.57" y2="169.22"/>
    <line class="cls-11" x1="185.18" y1="179.74" x2="174.66" y2="179.74"/>
    <polygon class="cls-1" points="137.83 237.61 137.83 253.39 164.14 253.39 167.29 253.39 170.45 252.34 172.55 251.29 174.66 249.18 177.82 246.03 178.87 243.92 179.92 240.77 179.92 237.61 179.92 234.45 178.87 231.3 177.82 229.19 175.71 227.09 172.55 223.93 170.45 222.88 167.29 221.83 164.14 221.83 137.83 221.83 137.83 237.61"/>
    <polygon class="cls-14" points="132.57 232.35 132.57 248.13 158.88 248.13 162.03 248.13 165.19 247.08 167.29 246.03 169.4 243.92 172.55 240.77 173.61 238.66 174.66 235.51 174.66 232.35 174.66 229.19 173.61 226.04 172.55 223.93 170.45 221.83 167.29 218.67 165.19 217.62 162.03 216.57 158.88 216.57 132.57 216.57 132.57 232.35"/>
    <polyline class="cls-10" points="132.57 232.35 132.57 248.13 158.88 248.13"/>
    <path class="cls-10" d="M158.88,216.57h0c8.72,0,15.78,7.07,15.78,15.78s-7.07,15.78-15.78,15.78"/>
    <polyline class="cls-10" points="158.88 216.57 132.57 216.57 132.57 232.35"/>
    <line class="cls-10" x1="132.57" y1="216.57" x2="132.57" y2="207.1"/>
    <line class="cls-10" x1="132.57" y1="248.13" x2="132.57" y2="257.6"/>
    <text class="cls-3" transform="translate(134.68 212.9)"><tspan x="0" y="0">enables[2]</tspan></text>
    <line class="cls-11" x1="122.05" y1="211.31" x2="132.57" y2="211.31"/>
    <path class="cls-11" d="M132.57,232.35c0-1.74-1.41-3.16-3.16-3.16s-3.16,1.41-3.16,3.16,1.41,3.16,3.16,3.16,3.16-1.41,3.16-3.16"/>
    <line class="cls-11" x1="122.05" y1="232.35" x2="126.26" y2="232.35"/>
    <path class="cls-11" d="M132.57,253.39c0-1.74-1.41-3.16-3.16-3.16s-3.16,1.41-3.16,3.16,1.41,3.16,3.16,3.16,3.16-1.41,3.16-3.16"/>
    <line class="cls-11" x1="122.05" y1="253.39" x2="126.26" y2="253.39"/>
    <line class="cls-11" x1="185.18" y1="232.35" x2="174.66" y2="232.35"/>
    <polygon class="cls-1" points="137.83 332.3 137.83 348.09 164.14 348.09 167.29 348.09 170.45 347.03 172.55 345.98 174.66 343.88 177.82 340.72 178.87 338.62 179.92 335.46 179.92 332.3 179.92 329.15 178.87 325.99 177.82 323.89 175.71 321.78 172.55 318.63 170.45 317.57 167.29 316.52 164.14 316.52 137.83 316.52 137.83 332.3"/>
    <polygon class="cls-14" points="132.57 327.04 132.57 342.83 158.88 342.83 162.03 342.83 165.19 341.77 167.29 340.72 169.4 338.62 172.55 335.46 173.61 333.36 174.66 330.2 174.66 327.04 174.66 323.89 173.61 320.73 172.55 318.63 170.45 316.52 167.29 313.37 165.19 312.31 162.03 311.26 158.88 311.26 132.57 311.26 132.57 327.04"/>
    <polyline class="cls-10" points="132.57 327.04 132.57 342.83 158.88 342.83"/>
    <path class="cls-10" d="M158.88,311.26h0c8.72,0,15.78,7.07,15.78,15.78s-7.07,15.78-15.78,15.78"/>
    <polyline class="cls-10" points="158.88 311.26 132.57 311.26 132.57 327.04"/>
    <line class="cls-10" x1="132.57" y1="311.26" x2="132.57" y2="291.27"/>
    <line class="cls-10" x1="132.57" y1="342.83" x2="132.57" y2="362.82"/>
    <text class="cls-3" transform="translate(134.68 307.6)"><tspan x="0" y="0">enables[3]</tspan></text>
    <line class="cls-11" x1="122.05" y1="358.61" x2="132.57" y2="358.61"/>
    <path class="cls-11" d="M132.57,295.48c0-1.74-1.41-3.16-3.16-3.16s-3.16,1.41-3.16,3.16,1.41,3.16,3.16,3.16,3.16-1.41,3.16-3.16"/>
    <line class="cls-11" x1="122.05" y1="295.48" x2="126.26" y2="295.48"/>
    <path class="cls-11" d="M132.57,316.52c0-1.74-1.41-3.16-3.16-3.16s-3.16,1.41-3.16,3.16,1.41,3.16,3.16,3.16,3.16-1.41,3.16-3.16"/>
    <line class="cls-11" x1="122.05" y1="316.52" x2="126.26" y2="316.52"/>
    <path class="cls-11" d="M132.57,337.57c0-1.74-1.41-3.16-3.16-3.16s-3.16,1.41-3.16,3.16,1.41,3.16,3.16,3.16,3.16-1.41,3.16-3.16"/>
    <line class="cls-11" x1="122.05" y1="337.57" x2="126.26" y2="337.57"/>
    <line class="cls-11" x1="185.18" y1="327.04" x2="174.66" y2="327.04"/>
    <polygon class="cls-12" points="58.92 169.22 51.56 176.58 36.83 176.58 36.83 161.85 51.56 161.85 58.92 169.22"/>
    <text class="cls-3" transform="translate(11.56 173.75)"><tspan x="0" y="0">ena</tspan></text>
    <rect class="cls-1" x="358.79" y="351.24" width="63.13" height="107.32"/>
    <rect class="cls-7" x="353.53" y="345.98" width="63.13" height="107.32"/>
    <rect class="cls-10" x="353.53" y="345.98" width="63.13" height="107.32"/>
    <line class="cls-9" x1="365.1" y1="351.24" x2="365.1" y2="363.87"/>
    <line class="cls-9" x1="358.79" y1="357.56" x2="371.41" y2="357.56"/>
    <rect class="cls-10" x="356.68" y="349.14" width="16.83" height="16.83"/>
    <text class="cls-3" transform="translate(347.91 341.26)"><tspan x="0" y="0">my_dff:DUT0</tspan></text>
    <line class="cls-11" x1="343" y1="379.65" x2="353.53" y2="379.65"/>
    <text class="cls-4" transform="translate(338.56 376.42)"><tspan x="0" y="0">clk</tspan></text>
    <path class="cls-11" d="M353.53,400.69c0-1.74-1.41-3.16-3.16-3.16s-3.16,1.41-3.16,3.16,1.41,3.16,3.16,3.16,3.16-1.41,3.16-3.16"/>
    <line class="cls-11" x1="343" y1="400.69" x2="347.21" y2="400.69"/>
    <text class="cls-4" transform="translate(341.36 397.46)"><tspan x="0" y="0">d</tspan></text>
    <line class="cls-11" x1="343" y1="421.74" x2="353.53" y2="421.74"/>
    <text class="cls-4" transform="translate(333.87 418.51)"><tspan x="0" y="0">ena</tspan></text>
    <line class="cls-11" x1="343" y1="442.78" x2="353.53" y2="442.78"/>
    <text class="cls-4" transform="translate(339.73 439.55)"><tspan x="0" y="0">rst</tspan></text>
    <line class="cls-11" x1="427.18" y1="400.69" x2="416.66" y2="400.69"/>
    <text class="cls-4" transform="translate(422.97 397.46)"><tspan x="0" y="0">q</tspan></text>
    <line class="cls-11" x1="364.05" y1="379.65" x2="353.53" y2="379.65"/>
    <line class="cls-11" x1="364.05" y1="400.69" x2="353.53" y2="400.69"/>
    <line class="cls-11" x1="364.05" y1="421.74" x2="353.53" y2="421.74"/>
    <line class="cls-11" x1="364.05" y1="442.78" x2="353.53" y2="442.78"/>
    <line class="cls-11" x1="406.13" y1="400.69" x2="416.66" y2="400.69"/>
    <polygon class="cls-12" points="58.92 400.69 51.56 408.06 36.83 408.06 36.83 393.33 51.56 393.33 58.92 400.69"/>
    <text class="cls-3" transform="translate(18.59 405.23)"><tspan x="0" y="0">rst</tspan></text>
    <rect class="cls-1" x="421.92" y="48.22" width="63.13" height="105.22"/>
    <rect class="cls-14" x="416.66" y="42.96" width="63.13" height="105.22"/>
    <rect class="cls-10" x="416.66" y="42.96" width="63.13" height="105.22"/>
    <polyline class="cls-10" points="416.66 88.2 424.02 85.05 416.66 81.89"/>
    <text class="cls-3" transform="translate(428.39 38.24)"><tspan x="0" y="0">q~reg0</tspan></text>
    <line class="cls-11" x1="406.13" y1="64" x2="416.66" y2="64"/>
    <text class="cls-4" transform="translate(418.76 67.78)"><tspan x="0" y="0">D</tspan></text>
    <line class="cls-11" x1="406.13" y1="85.05" x2="416.66" y2="85.05"/>
    <text class="cls-4" transform="translate(426.13 88.82)"><tspan x="0" y="0">CLK</tspan></text>
    <line class="cls-11" x1="437.7" y1="158.7" x2="437.7" y2="148.18"/>
    <text class="cls-4" transform="translate(434.54 143.89)"><tspan x="0" y="0">CLRN</tspan></text>
    <line class="cls-11" x1="406.13" y1="106.09" x2="416.66" y2="106.09"/>
    <text class="cls-4" transform="translate(418.76 109.87)"><tspan x="0" y="0">ENA</tspan></text>
    <line class="cls-11" x1="406.13" y1="127.13" x2="416.66" y2="127.13"/>
    <text class="cls-4" transform="translate(418.76 130.91)"><tspan x="0" y="0">SCLR</tspan></text>
    <text class="cls-2" transform="translate(390.69 123.47)"><tspan x="0" y="0">1&apos;h0</tspan></text>
    <line class="cls-11" x1="490.31" y1="95.57" x2="479.79" y2="95.57"/>
    <text class="cls-4" transform="translate(469.5 99.35)"><tspan x="0" y="0">Q</tspan></text>
    <rect class="cls-1" x="358.79" y="214.46" width="63.13" height="107.32"/>
    <rect class="cls-7" x="353.53" y="209.2" width="63.13" height="107.32"/>
    <rect class="cls-10" x="353.53" y="209.2" width="63.13" height="107.32"/>
    <line class="cls-9" x1="365.1" y1="214.46" x2="365.1" y2="227.09"/>
    <line class="cls-9" x1="358.79" y1="220.78" x2="371.41" y2="220.78"/>
    <rect class="cls-10" x="356.68" y="212.36" width="16.83" height="16.83"/>
    <text class="cls-3" transform="translate(347.91 204.48)"><tspan x="0" y="0">my_dff:DUT2</tspan></text>
    <line class="cls-11" x1="343" y1="242.87" x2="353.53" y2="242.87"/>
    <text class="cls-4" transform="translate(338.56 239.64)"><tspan x="0" y="0">clk</tspan></text>
    <path class="cls-11" d="M353.53,263.91c0-1.74-1.41-3.16-3.16-3.16s-3.16,1.41-3.16,3.16,1.41,3.16,3.16,3.16,3.16-1.41,3.16-3.16"/>
    <line class="cls-11" x1="343" y1="263.91" x2="347.21" y2="263.91"/>
    <text class="cls-4" transform="translate(341.36 260.68)"><tspan x="0" y="0">d</tspan></text>
    <line class="cls-11" x1="343" y1="284.96" x2="353.53" y2="284.96"/>
    <text class="cls-4" transform="translate(333.87 281.73)"><tspan x="0" y="0">ena</tspan></text>
    <line class="cls-11" x1="343" y1="306" x2="353.53" y2="306"/>
    <text class="cls-4" transform="translate(339.73 302.77)"><tspan x="0" y="0">rst</tspan></text>
    <line class="cls-11" x1="427.18" y1="263.91" x2="416.66" y2="263.91"/>
    <text class="cls-4" transform="translate(422.97 260.68)"><tspan x="0" y="0">q</tspan></text>
    <line class="cls-11" x1="364.05" y1="242.87" x2="353.53" y2="242.87"/>
    <line class="cls-11" x1="364.05" y1="263.91" x2="353.53" y2="263.91"/>
    <line class="cls-11" x1="364.05" y1="284.96" x2="353.53" y2="284.96"/>
    <line class="cls-11" x1="364.05" y1="306" x2="353.53" y2="306"/>
    <line class="cls-11" x1="406.13" y1="263.91" x2="416.66" y2="263.91"/>
    <rect class="cls-1" x="358.79" y="498.55" width="63.13" height="107.32"/>
    <rect class="cls-7" x="353.53" y="493.28" width="63.13" height="107.32"/>
    <rect class="cls-10" x="353.53" y="493.28" width="63.13" height="107.32"/>
    <line class="cls-9" x1="365.1" y1="498.55" x2="365.1" y2="511.17"/>
    <line class="cls-9" x1="358.79" y1="504.86" x2="371.41" y2="504.86"/>
    <rect class="cls-10" x="356.68" y="496.44" width="16.83" height="16.83"/>
    <text class="cls-3" transform="translate(347.91 488.57)"><tspan x="0" y="0">my_dff:DUT3</tspan></text>
    <line class="cls-11" x1="343" y1="526.95" x2="353.53" y2="526.95"/>
    <text class="cls-4" transform="translate(338.56 523.72)"><tspan x="0" y="0">clk</tspan></text>
    <path class="cls-11" d="M353.53,548c0-1.74-1.41-3.16-3.16-3.16s-3.16,1.41-3.16,3.16,1.41,3.16,3.16,3.16,3.16-1.41,3.16-3.16"/>
    <line class="cls-11" x1="343" y1="548" x2="347.21" y2="548"/>
    <text class="cls-4" transform="translate(341.36 544.77)"><tspan x="0" y="0">d</tspan></text>
    <line class="cls-11" x1="343" y1="569.04" x2="353.53" y2="569.04"/>
    <text class="cls-4" transform="translate(333.87 565.81)"><tspan x="0" y="0">ena</tspan></text>
    <line class="cls-11" x1="343" y1="590.08" x2="353.53" y2="590.08"/>
    <text class="cls-4" transform="translate(339.73 586.85)"><tspan x="0" y="0">rst</tspan></text>
    <line class="cls-11" x1="427.18" y1="548" x2="416.66" y2="548"/>
    <text class="cls-4" transform="translate(422.97 544.77)"><tspan x="0" y="0">q</tspan></text>
    <line class="cls-11" x1="364.05" y1="526.95" x2="353.53" y2="526.95"/>
    <line class="cls-11" x1="364.05" y1="548" x2="353.53" y2="548"/>
    <line class="cls-11" x1="364.05" y1="569.04" x2="353.53" y2="569.04"/>
    <line class="cls-11" x1="364.05" y1="590.08" x2="353.53" y2="590.08"/>
    <line class="cls-11" x1="406.13" y1="548" x2="416.66" y2="548"/>
    <polygon class="cls-12" points="58.92 64 51.56 71.37 36.83 71.37 36.83 56.64 51.56 56.64 58.92 64"/>
    <text class="cls-3" transform="translate(17.19 68.54)"><tspan x="0" y="0">clk</tspan></text>
    <line class="cls-9" x1="101.01" y1="187.11" x2="101.01" y2="340.72"/>
    <line class="cls-9" x1="101.01" y1="274.44" x2="311.44" y2="274.44"/>
    <line class="cls-9" x1="311.44" y1="463.82" x2="563.96" y2="463.82"/>
    <rect class="cls-5" x="560.8" y="460.67" width="7.37" height="7.37"/>
    <rect class="cls-5" x="97.85" y="271.28" width="7.37" height="7.37"/>
    <line class="cls-9" x1="311.44" y1="60.85" x2="311.44" y2="551.15"/>
    <rect class="cls-5" x="308.28" y="271.28" width="7.37" height="7.37"/>
    <rect class="cls-5" x="308.28" y="460.67" width="7.37" height="7.37"/>
    <polyline class="cls-9" points="563.96 551.15 563.96 85.05 585 85.05"/>
    <line class="cls-10" x1="101.01" y1="190.26" x2="122.05" y2="190.26"/>
    <line class="cls-10" x1="101.01" y1="232.35" x2="122.05" y2="232.35"/>
    <line class="cls-10" x1="101.01" y1="253.39" x2="122.05" y2="253.39"/>
    <line class="cls-10" x1="311.44" y1="400.69" x2="343" y2="400.69"/>
    <line class="cls-10" x1="427.18" y1="400.69" x2="563.96" y2="400.69"/>
    <line class="cls-10" x1="427.18" y1="263.91" x2="563.96" y2="263.91"/>
    <line class="cls-10" x1="532.39" y1="95.57" x2="563.96" y2="95.57"/>
    <line class="cls-10" x1="101.01" y1="295.48" x2="122.05" y2="295.48"/>
    <line class="cls-10" x1="101.01" y1="316.52" x2="122.05" y2="316.52"/>
    <line class="cls-10" x1="101.01" y1="337.57" x2="122.05" y2="337.57"/>
    <line class="cls-10" x1="311.44" y1="64" x2="343" y2="64"/>
    <line class="cls-10" x1="311.44" y1="263.91" x2="343" y2="263.91"/>
    <line class="cls-10" x1="311.44" y1="548" x2="343" y2="548"/>
    <line class="cls-10" x1="427.18" y1="548" x2="563.96" y2="548"/>
    <polyline points="565.01 542.74 565.01 553.26 553.44 548"/>
    <polyline points="565.01 395.43 565.01 405.96 553.44 400.69"/>
    <polyline points="565.01 258.65 565.01 269.17 553.44 263.91"/>
    <polyline points="565.01 90.31 565.01 100.83 553.44 95.57"/>
    <polyline points="99.96 185 99.96 195.52 111.53 190.26"/>
    <polyline points="99.96 227.09 99.96 237.61 111.53 232.35"/>
    <polyline points="99.96 248.13 99.96 258.65 111.53 253.39"/>
    <polyline points="99.96 290.22 99.96 300.74 111.53 295.48"/>
    <polyline points="99.96 311.26 99.96 321.78 111.53 316.52"/>
    <polyline points="99.96 332.3 99.96 342.83 111.53 337.57"/>
    <polyline points="310.39 58.74 310.39 69.26 321.96 64"/>
    <polyline points="310.39 258.65 310.39 269.17 321.96 263.91"/>
    <polyline points="310.39 395.43 310.39 405.96 321.96 400.69"/>
    <polyline points="310.39 542.74 310.39 553.26 321.96 548"/>
    <polyline class="cls-10" points="185.18 179.74 227.27 179.74 227.27 106.09 343 106.09"/>
    <polyline class="cls-10" points="185.18 232.35 269.35 232.35 269.35 284.96 343 284.96"/>
    <polyline class="cls-10" points="185.18 327.04 227.27 327.04 227.27 569.04 343 569.04"/>
    <polyline class="cls-10" points="58.92 64 290.4 64 290.4 526.95 343 526.95"/>
    <line class="cls-10" x1="290.4" y1="85.05" x2="343" y2="85.05"/>
    <line class="cls-10" x1="290.4" y1="242.87" x2="343" y2="242.87"/>
    <line class="cls-10" x1="290.4" y1="379.65" x2="343" y2="379.65"/>
    <rect class="cls-5" x="288.29" y="82.94" width="5.26" height="5.26"/>
    <rect class="cls-5" x="288.29" y="240.77" width="5.26" height="5.26"/>
    <rect class="cls-5" x="288.29" y="377.55" width="5.26" height="5.26"/>
    <line class="cls-10" x1="58.92" y1="400.69" x2="248.31" y2="400.69"/>
    <line class="cls-10" x1="248.31" y1="442.78" x2="343" y2="442.78"/>
    <rect class="cls-5" x="246.21" y="303.9" width="5.26" height="5.26"/>
    <rect class="cls-5" x="246.21" y="398.59" width="5.26" height="5.26"/>
    <rect class="cls-5" x="246.21" y="440.68" width="5.26" height="5.26"/>
    <polyline class="cls-10" points="343 169.22 248.31 169.22 248.31 590.08 343 590.08"/>
    <line class="cls-10" x1="248.31" y1="306" x2="343" y2="306"/>
    <polyline class="cls-10" points="58.92 169.22 79.96 169.22 79.96 379.65 269.35 379.65 269.35 421.74 343 421.74"/>
    <line class="cls-10" x1="79.96" y1="169.22" x2="122.05" y2="169.22"/>
    <line class="cls-10" x1="79.96" y1="211.31" x2="122.05" y2="211.31"/>
    <line class="cls-10" x1="79.96" y1="358.61" x2="122.05" y2="358.61"/>
    <rect class="cls-5" x="77.86" y="167.12" width="5.26" height="5.26"/>
    <rect class="cls-5" x="77.86" y="209.2" width="5.26" height="5.26"/>
    <rect class="cls-5" x="77.86" y="356.5" width="5.26" height="5.26"/>
    <line class="cls-10" x1="364.05" y1="85.05" x2="406.13" y2="85.05"/>
    <polyline class="cls-10" points="364.05 169.22 437.7 169.22 437.7 158.7"/>
    <line class="cls-10" x1="364.05" y1="106.09" x2="406.13" y2="106.09"/>
    <line class="cls-10" x1="364.05" y1="64" x2="406.13" y2="64"/>
    <line class="cls-10" x1="490.31" y1="95.57" x2="511.35" y2="95.57"/>
  </g>
</svg>