<?xml version="1.0" encoding="UTF-8"?>
<svg id="Capa_1" xmlns="http://www.w3.org/2000/svg" xmlns:xlink="http://www.w3.org/1999/xlink" viewBox="0 0 792 191.02">
  <defs>
    <style>
      .cls-1 {
        opacity: .41;
      }

      .cls-2, .cls-3 {
        fill: #2d2d2d;
      }

      .cls-4 {
        fill: #fff;
      }

      .cls-5, .cls-6 {
        font-size: 4.9px;
      }

      .cls-5, .cls-6, .cls-7, .cls-3, .cls-8 {
        font-family: ArialMT, Arial;
      }

      .cls-6, .cls-7 {
        fill: #06476f;
      }

      .cls-9, .cls-10, .cls-11, .cls-12, .cls-13, .cls-14, .cls-15, .cls-16, .cls-17, .cls-18 {
        fill: none;
      }

      .cls-7, .cls-3, .cls-8 {
        font-size: 5.88px;
      }

      .cls-10 {
        stroke-width: .98px;
      }

      .cls-10, .cls-14, .cls-17 {
        stroke: #2d2d2d;
      }

      .cls-11, .cls-13, .cls-14, .cls-18 {
        stroke-width: 1.47px;
      }

      .cls-11, .cls-15 {
        stroke: #06476f;
      }

      .cls-12, .cls-13 {
        stroke: #000;
      }

      .cls-12, .cls-15, .cls-16, .cls-17 {
        stroke-width: .49px;
      }

      .cls-16, .cls-18 {
        stroke: blue;
      }

      .cls-19 {
        fill: #73acac;
      }

      .cls-20 {
        fill: #477777;
      }

      .cls-21 {
        clip-path: url(#clippath);
      }
    </style>
    <clipPath id="clippath">
      <rect class="cls-9" width="792" height="191.02"/>
    </clipPath>
  </defs>
  <g class="cls-21">
    <rect class="cls-4" width="791.51" height="191.51"/>
    <polygon class="cls-16" points="45.06 19.59 41.63 23.02 34.78 23.02 34.78 16.16 41.63 16.16 45.06 19.59"/>
    <text class="cls-8" transform="translate(25.63 21.7)"><tspan x="0" y="0">clk</tspan></text>
    <polygon class="cls-16" points="45.06 29.39 41.63 32.82 34.78 32.82 34.78 25.96 41.63 25.96 45.06 29.39"/>
    <text class="cls-8" transform="translate(19.74 31.5)"><tspan x="0" y="0">Load</tspan></text>
    <polygon class="cls-16" points="45.06 44.08 41.63 47.51 34.78 47.51 34.78 40.65 41.63 40.65 45.06 44.08"/>
    <text class="cls-8" transform="translate(23.01 46.19)"><tspan x="0" y="0">ena</tspan></text>
    <polygon class="cls-16" points="45.06 53.88 41.63 57.31 34.78 57.31 34.78 50.45 41.63 50.45 45.06 53.88"/>
    <text class="cls-8" transform="translate(13.55 55.99)"><tspan x="0" y="0">UpDwn</tspan></text>
    <polygon class="cls-18" points="45.06 107.76 41.63 111.18 34.78 111.18 34.78 104.33 41.63 104.33 45.06 107.76"/>
    <text class="cls-8" transform="translate(7.33 109.87)"><tspan x="0" y="0">Data[3..0]</tspan></text>
    <polygon class="cls-16" points="45.06 117.55 41.63 120.98 34.78 120.98 34.78 114.12 41.63 114.12 45.06 117.55"/>
    <text class="cls-8" transform="translate(26.29 119.66)"><tspan x="0" y="0">rst</tspan></text>
    <polygon class="cls-1" points="135.67 51.43 135.67 58.78 147.92 58.78 149.39 58.78 150.86 58.29 151.84 57.8 152.82 56.82 154.29 55.35 154.78 54.37 155.27 52.9 155.27 51.43 155.27 49.96 154.78 48.49 154.29 47.51 153.31 46.53 151.84 45.06 150.86 44.57 149.39 44.08 147.92 44.08 135.67 44.08 135.67 51.43"/>
    <polygon class="cls-19" points="133.22 48.98 133.22 56.33 145.47 56.33 146.94 56.33 148.41 55.84 149.39 55.35 150.37 54.37 151.84 52.9 152.33 51.92 152.82 50.45 152.82 48.98 152.82 47.51 152.33 46.04 151.84 45.06 150.86 44.08 149.39 42.61 148.41 42.12 146.94 41.63 145.47 41.63 133.22 41.63 133.22 48.98"/>
    <polyline class="cls-17" points="133.22 48.98 133.22 56.33 145.47 56.33"/>
    <path class="cls-17" d="M145.47,41.63h0c4.06,0,7.35,3.29,7.35,7.35s-3.29,7.35-7.35,7.35"/>
    <polyline class="cls-17" points="145.47 41.63 133.22 41.63 133.22 48.98"/>
    <text class="cls-8" transform="translate(134.2 39.93)"><tspan x="0" y="0">count_next~0</tspan></text>
    <line class="cls-15" x1="128.33" y1="44.08" x2="133.22" y2="44.08"/>
    <path class="cls-15" d="M133.22,53.88c0-.81-.66-1.47-1.47-1.47s-1.47.66-1.47,1.47.66,1.47,1.47,1.47,1.47-.66,1.47-1.47"/>
    <line class="cls-15" x1="128.33" y1="53.88" x2="130.29" y2="53.88"/>
    <line class="cls-15" x1="157.71" y1="48.98" x2="152.82" y2="48.98"/>
    <line class="cls-17" x1="84.24" y1="73.47" x2="84.24" y2="71.51"/>
    <line class="cls-17" x1="80.33" y1="71.51" x2="88.16" y2="71.51"/>
    <path class="cls-1" d="M155.27,95.51c0-5.41-4.39-9.8-9.8-9.8s-9.8,4.39-9.8,9.8,4.39,9.8,9.8,9.8,9.8-4.39,9.8-9.8"/>
    <path class="cls-19" d="M152.82,93.06c0-5.41-4.39-9.8-9.8-9.8s-9.8,4.39-9.8,9.8,4.39,9.8,9.8,9.8,9.8-4.39,9.8-9.8"/>
    <path class="cls-17" d="M152.82,93.06c0-5.41-4.39-9.8-9.8-9.8s-9.8,4.39-9.8,9.8,4.39,9.8,9.8,9.8,9.8-4.39,9.8-9.8"/>
    <line class="cls-17" x1="133.22" y1="83.27" x2="136.16" y2="86.2"/>
    <line class="cls-17" x1="133.22" y1="102.86" x2="136.16" y2="99.92"/>
    <text class="cls-3" transform="translate(141.3 95.17)"><tspan x="0" y="0">+</tspan></text>
    <text class="cls-8" transform="translate(140.57 81.07)"><tspan x="0" y="0">Add0</tspan></text>
    <line class="cls-15" x1="128.33" y1="83.27" x2="133.22" y2="83.27"/>
    <text class="cls-6" transform="translate(123.81 81.76)"><tspan x="0" y="0">CIN</tspan></text>
    <text class="cls-7" transform="translate(110.85 81.56)"><tspan x="0" y="0">1&apos;h0</tspan></text>
    <line class="cls-11" x1="128.33" y1="93.06" x2="133.22" y2="93.06"/>
    <text class="cls-6" transform="translate(118.08 91.56)"><tspan x="0" y="0">A[4..0]</tspan></text>
    <line class="cls-11" x1="128.33" y1="102.86" x2="133.22" y2="102.86"/>
    <text class="cls-6" transform="translate(118.08 101.35)"><tspan x="0" y="0">B[4..0]</tspan></text>
    <text class="cls-7" transform="translate(102.19 101.15)"><tspan x="0" y="0">5&apos;h1d</tspan></text>
    <line class="cls-11" x1="157.71" y1="93.06" x2="152.82" y2="93.06"/>
    <text class="cls-6" transform="translate(155.75 91.56)"><tspan x="0" y="0">OUT[4..0]</tspan></text>
    <polygon class="cls-1" points="259.59 72.49 279.18 79.84 279.18 94.53 259.59 101.88 259.59 72.49"/>
    <polygon class="cls-20" points="257.63 70.53 277.22 77.88 277.22 92.57 257.63 99.92 257.63 70.53"/>
    <polygon class="cls-17" points="257.63 70.53 277.22 77.88 277.22 92.57 257.63 99.92 257.63 70.53"/>
    <polygon class="cls-19" points="255.67 68.57 275.27 75.92 275.27 90.61 255.67 97.96 255.67 68.57"/>
    <polygon class="cls-17" points="255.67 68.57 275.27 75.92 275.27 90.61 255.67 97.96 255.67 68.57"/>
    <text class="cls-8" transform="translate(267.43 70.29)"><tspan x="0" y="0">count_next~[4..1]</tspan></text>
    <line class="cls-11" x1="250.78" y1="78.37" x2="255.67" y2="78.37"/>
    <text class="cls-6" transform="translate(251.97 76.86)"><tspan x="0" y="0">0</tspan></text>
    <line class="cls-11" x1="250.78" y1="88.16" x2="255.67" y2="88.16"/>
    <text class="cls-6" transform="translate(251.97 86.66)"><tspan x="0" y="0">1</tspan></text>
    <line class="cls-11" x1="265.47" y1="68.57" x2="265.47" y2="72.49"/>
    <line class="cls-11" x1="280.16" y1="83.27" x2="275.27" y2="83.27"/>
    <polygon class="cls-1" points="258.12 149.39 258.12 156.73 270.37 156.73 271.84 156.73 273.31 156.24 274.29 155.76 275.27 154.78 276.73 153.31 277.22 152.33 277.71 150.86 277.71 149.39 277.71 147.92 277.22 146.45 276.73 145.47 275.76 144.49 274.29 143.02 273.31 142.53 271.84 142.04 270.37 142.04 258.12 142.04 258.12 149.39"/>
    <polygon class="cls-19" points="255.67 146.94 255.67 154.29 267.92 154.29 269.39 154.29 270.86 153.8 271.84 153.31 272.82 152.33 274.29 150.86 274.78 149.88 275.27 148.41 275.27 146.94 275.27 145.47 274.78 144 274.29 143.02 273.31 142.04 271.84 140.57 270.86 140.08 269.39 139.59 267.92 139.59 255.67 139.59 255.67 146.94"/>
    <polyline class="cls-17" points="255.67 146.94 255.67 154.29 267.92 154.29"/>
    <path class="cls-17" d="M267.92,139.59h0c4.06,0,7.35,3.29,7.35,7.35s-3.29,7.35-7.35,7.35"/>
    <polyline class="cls-17" points="267.92 139.59 255.67 139.59 255.67 146.94"/>
    <text class="cls-8" transform="translate(256.65 137.89)"><tspan x="0" y="0">count_next~5</tspan></text>
    <line class="cls-15" x1="250.78" y1="142.04" x2="255.67" y2="142.04"/>
    <line class="cls-15" x1="250.78" y1="151.84" x2="255.67" y2="151.84"/>
    <line class="cls-15" x1="280.16" y1="146.94" x2="275.27" y2="146.94"/>
    <path class="cls-1" d="M277.71,178.78c0-5.41-4.39-9.8-9.8-9.8s-9.8,4.39-9.8,9.8,4.39,9.8,9.8,9.8,9.8-4.39,9.8-9.8"/>
    <path class="cls-19" d="M275.27,176.33c0-5.41-4.39-9.8-9.8-9.8s-9.8,4.39-9.8,9.8,4.39,9.8,9.8,9.8,9.8-4.39,9.8-9.8"/>
    <path class="cls-17" d="M275.27,176.33c0-5.41-4.39-9.8-9.8-9.8s-9.8,4.39-9.8,9.8,4.39,9.8,9.8,9.8,9.8-4.39,9.8-9.8"/>
    <line class="cls-17" x1="255.67" y1="166.53" x2="258.61" y2="169.47"/>
    <line class="cls-17" x1="255.67" y1="186.12" x2="258.61" y2="183.18"/>
    <text class="cls-3" transform="translate(263.75 178.44)"><tspan x="0" y="0">+</tspan></text>
    <text class="cls-8" transform="translate(263.02 164.33)"><tspan x="0" y="0">Add1</tspan></text>
    <line class="cls-15" x1="250.78" y1="166.53" x2="255.67" y2="166.53"/>
    <text class="cls-6" transform="translate(246.26 165.03)"><tspan x="0" y="0">CIN</tspan></text>
    <text class="cls-7" transform="translate(233.3 164.82)"><tspan x="0" y="0">1&apos;h0</tspan></text>
    <line class="cls-11" x1="250.78" y1="176.33" x2="255.67" y2="176.33"/>
    <text class="cls-6" transform="translate(240.53 174.82)"><tspan x="0" y="0">A[3..0]</tspan></text>
    <line class="cls-11" x1="250.78" y1="186.12" x2="255.67" y2="186.12"/>
    <text class="cls-6" transform="translate(240.53 184.62)"><tspan x="0" y="0">B[3..0]</tspan></text>
    <text class="cls-7" transform="translate(227.91 184.42)"><tspan x="0" y="0">4&apos;h1</tspan></text>
    <line class="cls-11" x1="280.16" y1="176.33" x2="275.27" y2="176.33"/>
    <text class="cls-6" transform="translate(278.2 174.82)"><tspan x="0" y="0">OUT[3..0]</tspan></text>
    <polygon class="cls-1" points="356.08 41.63 356.08 48.98 368.33 48.98 369.8 48.98 371.27 48.49 372.25 48 373.22 47.02 374.69 45.55 375.18 44.57 375.67 43.1 375.67 41.63 375.67 40.16 375.18 38.69 374.69 37.71 373.71 36.73 372.25 35.27 371.27 34.78 369.8 34.29 368.33 34.29 356.08 34.29 356.08 41.63"/>
    <polygon class="cls-19" points="353.63 39.18 353.63 46.53 365.88 46.53 367.35 46.53 368.82 46.04 369.8 45.55 370.78 44.57 372.25 43.1 372.73 42.12 373.22 40.65 373.22 39.18 373.22 37.71 372.73 36.24 372.25 35.27 371.27 34.29 369.8 32.82 368.82 32.33 367.35 31.84 365.88 31.84 353.63 31.84 353.63 39.18"/>
    <polyline class="cls-17" points="353.63 39.18 353.63 46.53 365.88 46.53"/>
    <path class="cls-17" d="M365.88,31.84h0c4.06,0,7.35,3.29,7.35,7.35s-3.29,7.35-7.35,7.35"/>
    <polyline class="cls-17" points="365.88 31.84 353.63 31.84 353.63 39.18"/>
    <text class="cls-8" transform="translate(354.61 30.13)"><tspan x="0" y="0">count_next~10</tspan></text>
    <line class="cls-15" x1="348.73" y1="44.08" x2="353.63" y2="44.08"/>
    <line class="cls-15" x1="348.73" y1="34.29" x2="353.63" y2="34.29"/>
    <line class="cls-15" x1="378.12" y1="39.18" x2="373.22" y2="39.18"/>
    <polygon class="cls-1" points="357.55 150.86 377.14 158.2 377.14 172.9 357.55 180.25 357.55 150.86"/>
    <polygon class="cls-20" points="355.59 148.9 375.18 156.24 375.18 170.94 355.59 178.29 355.59 148.9"/>
    <polygon class="cls-17" points="355.59 148.9 375.18 156.24 375.18 170.94 355.59 178.29 355.59 148.9"/>
    <polygon class="cls-19" points="353.63 146.94 373.22 154.29 373.22 168.98 353.63 176.33 353.63 146.94"/>
    <polygon class="cls-17" points="353.63 146.94 373.22 154.29 373.22 168.98 353.63 176.33 353.63 146.94"/>
    <text class="cls-8" transform="translate(365.39 148.66)"><tspan x="0" y="0">count_next~[9..6]</tspan></text>
    <line class="cls-11" x1="348.73" y1="156.73" x2="353.63" y2="156.73"/>
    <text class="cls-6" transform="translate(349.93 155.23)"><tspan x="0" y="0">0</tspan></text>
    <line class="cls-11" x1="348.73" y1="166.53" x2="353.63" y2="166.53"/>
    <text class="cls-6" transform="translate(349.93 165.03)"><tspan x="0" y="0">1</tspan></text>
    <line class="cls-11" x1="363.43" y1="146.94" x2="363.43" y2="150.86"/>
    <line class="cls-11" x1="378.12" y1="161.63" x2="373.22" y2="161.63"/>
    <polygon class="cls-1" points="455.51 82.29 475.1 89.63 475.1 104.33 455.51 111.67 455.51 82.29"/>
    <polygon class="cls-20" points="453.55 80.33 473.14 87.67 473.14 102.37 453.55 109.71 453.55 80.33"/>
    <polygon class="cls-17" points="453.55 80.33 473.14 87.67 473.14 102.37 453.55 109.71 453.55 80.33"/>
    <polygon class="cls-19" points="451.59 78.37 471.18 85.71 471.18 100.41 451.59 107.76 451.59 78.37"/>
    <polygon class="cls-17" points="451.59 78.37 471.18 85.71 471.18 100.41 451.59 107.76 451.59 78.37"/>
    <text class="cls-8" transform="translate(463.35 80.09)"><tspan x="0" y="0">count_next~[14..11]</tspan></text>
    <line class="cls-11" x1="446.69" y1="88.16" x2="451.59" y2="88.16"/>
    <text class="cls-6" transform="translate(447.89 86.66)"><tspan x="0" y="0">0</tspan></text>
    <line class="cls-11" x1="446.69" y1="97.96" x2="451.59" y2="97.96"/>
    <text class="cls-6" transform="translate(447.89 96.46)"><tspan x="0" y="0">1</tspan></text>
    <line class="cls-11" x1="461.39" y1="78.37" x2="461.39" y2="82.29"/>
    <line class="cls-11" x1="476.08" y1="93.06" x2="471.18" y2="93.06"/>
    <polygon class="cls-1" points="577.96 92.08 597.55 99.43 597.55 114.12 577.96 121.47 577.96 92.08"/>
    <polygon class="cls-20" points="576 90.12 595.59 97.47 595.59 112.16 576 119.51 576 90.12"/>
    <polygon class="cls-17" points="576 90.12 595.59 97.47 595.59 112.16 576 119.51 576 90.12"/>
    <polygon class="cls-19" points="574.04 88.16 593.63 95.51 593.63 110.2 574.04 117.55 574.04 88.16"/>
    <polygon class="cls-17" points="574.04 88.16 593.63 95.51 593.63 110.2 574.04 117.55 574.04 88.16"/>
    <text class="cls-8" transform="translate(585.8 89.88)"><tspan x="0" y="0">count_next[3..0]</tspan></text>
    <line class="cls-11" x1="569.14" y1="97.96" x2="574.04" y2="97.96"/>
    <text class="cls-6" transform="translate(570.34 96.46)"><tspan x="0" y="0">0</tspan></text>
    <line class="cls-11" x1="569.14" y1="107.76" x2="574.04" y2="107.76"/>
    <text class="cls-6" transform="translate(570.34 106.25)"><tspan x="0" y="0">1</tspan></text>
    <text class="cls-7" transform="translate(557.55 106.05)"><tspan x="0" y="0">4&apos;h0</tspan></text>
    <line class="cls-11" x1="583.84" y1="88.16" x2="583.84" y2="92.08"/>
    <line class="cls-11" x1="598.53" y1="102.86" x2="593.63" y2="102.86"/>
    <rect class="cls-1" x="685.71" y="23.51" width="29.39" height="48.98"/>
    <rect class="cls-20" x="683.76" y="21.55" width="29.39" height="48.98"/>
    <rect class="cls-17" x="683.76" y="21.55" width="29.39" height="48.98"/>
    <rect class="cls-19" x="681.8" y="19.59" width="29.39" height="48.98"/>
    <rect class="cls-17" x="681.8" y="19.59" width="29.39" height="48.98"/>
    <polyline class="cls-17" points="681.8 40.65 685.22 39.18 681.8 37.71"/>
    <text class="cls-8" transform="translate(684.07 17.4)"><tspan x="0" y="0">reg1[3..0]</tspan></text>
    <line class="cls-11" x1="676.9" y1="29.39" x2="681.8" y2="29.39"/>
    <text class="cls-6" transform="translate(682.77 31.15)"><tspan x="0" y="0">D</tspan></text>
    <line class="cls-11" x1="676.9" y1="39.18" x2="681.8" y2="39.18"/>
    <text class="cls-6" transform="translate(686.2 40.94)"><tspan x="0" y="0">CLK</tspan></text>
    <line class="cls-11" x1="691.59" y1="73.47" x2="691.59" y2="68.57"/>
    <text class="cls-6" transform="translate(690.12 66.58)"><tspan x="0" y="0">CLRN</tspan></text>
    <line class="cls-11" x1="676.9" y1="48.98" x2="681.8" y2="48.98"/>
    <text class="cls-6" transform="translate(682.77 50.74)"><tspan x="0" y="0">ENA</tspan></text>
    <line class="cls-11" x1="676.9" y1="58.78" x2="681.8" y2="58.78"/>
    <text class="cls-6" transform="translate(682.77 60.53)"><tspan x="0" y="0">SCLR</tspan></text>
    <text class="cls-7" transform="translate(669.71 57.07)"><tspan x="0" y="0">4&apos;h0</tspan></text>
    <line class="cls-11" x1="716.08" y1="44.08" x2="711.18" y2="44.08"/>
    <text class="cls-6" transform="translate(706.39 45.84)"><tspan x="0" y="0">Q</tspan></text>
    <polygon class="cls-18" points="735.67 9.8 735.67 6.37 742.53 6.37 745.96 9.8 742.53 13.22 735.67 13.22 735.67 9.8"/>
    <text class="cls-8" transform="translate(749.88 11.91)"><tspan x="0" y="0">counter[3..0]</tspan></text>
    <line class="cls-17" x1="84.24" y1="73.47" x2="84.24" y2="90.61"/>
    <line class="cls-12" x1="84.24" y1="90.61" x2="86.69" y2="93.06"/>
    <line class="cls-10" x1="86.69" y1="93.06" x2="128.33" y2="93.06"/>
    <polyline class="cls-14" points="280.16 176.33 329.14 176.33 329.14 166.53 348.73 166.53"/>
    <polyline class="cls-14" points="157.71 93.06 211.59 93.06 211.59 88.16 250.78 88.16"/>
    <polyline class="cls-17" points="157.71 48.98 211.59 48.98 211.59 58.78 265.47 58.78 265.47 68.57"/>
    <polyline class="cls-17" points="280.16 146.94 338.94 146.94 338.94 137.14 363.43 137.14 363.43 146.94"/>
    <polyline class="cls-17" points="378.12 39.18 427.1 39.18 427.1 68.57 461.39 68.57 461.39 78.37"/>
    <polyline class="cls-17" points="45.06 19.59 657.31 19.59 657.31 39.18 676.9 39.18"/>
    <polyline class="cls-17" points="45.06 117.55 544.65 117.55 544.65 78.37 691.59 78.37 691.59 73.47"/>
    <rect class="cls-2" x="582.86" y="77.39" width="2.45" height="2.45"/>
    <line class="cls-17" x1="583.84" y1="78.37" x2="583.84" y2="88.16"/>
    <polyline class="cls-17" points="45.06 44.08 64.65 44.08 64.65 127.35 192 127.35 192 142.04 250.78 142.04"/>
    <line class="cls-17" x1="192" y1="127.35" x2="338.94" y2="127.35"/>
    <rect class="cls-2" x="337.96" y="126.37" width="2.45" height="2.45"/>
    <line class="cls-17" x1="64.65" y1="44.08" x2="128.33" y2="44.08"/>
    <rect class="cls-2" x="63.67" y="43.1" width="2.45" height="2.45"/>
    <rect class="cls-2" x="191.02" y="126.37" width="2.45" height="2.45"/>
    <polyline class="cls-17" points="348.73 44.08 338.94 44.08 338.94 127.35 657.31 127.35 657.31 48.98 676.9 48.98"/>
    <polyline class="cls-17" points="45.06 53.88 54.86 53.88 54.86 151.84 250.78 151.84"/>
    <line class="cls-17" x1="54.86" y1="53.88" x2="128.33" y2="53.88"/>
    <rect class="cls-2" x="53.88" y="52.9" width="2.45" height="2.45"/>
    <polyline class="cls-17" points="45.06 29.39 338.94 29.39 338.94 34.29 348.73 34.29"/>
    <polyline class="cls-14" points="45.06 107.76 436.9 107.76 436.9 97.96 446.69 97.96"/>
    <polyline class="cls-14" points="598.53 102.86 647.51 102.86 647.51 29.39 676.9 29.39"/>
    <line class="cls-14" x1="128.33" y1="93.06" x2="76.9" y2="93.06"/>
    <line class="cls-13" x1="76.9" y1="93.06" x2="74.45" y2="90.61"/>
    <polyline class="cls-14" points="74.45 90.61 74.45 63.67 201.8 63.67"/>
    <rect class="cls-2" x="200.33" y="76.9" width="3.43" height="3.43"/>
    <rect class="cls-2" x="200.33" y="62.2" width="3.43" height="3.43"/>
    <polyline class="cls-14" points="250.78 176.33 201.8 176.33 201.8 4.9 725.88 4.9 725.88 44.08 716.08 44.08"/>
    <line class="cls-14" x1="725.88" y1="9.8" x2="735.67" y2="9.8"/>
    <rect class="cls-2" x="724.41" y="8.33" width="3.43" height="3.43"/>
    <line class="cls-14" x1="201.8" y1="78.37" x2="250.78" y2="78.37"/>
    <polyline class="cls-14" points="280.16 83.27 329.14 83.27 329.14 156.73 348.73 156.73"/>
    <polyline class="cls-14" points="378.12 161.63 427.1 161.63 427.1 88.16 446.69 88.16"/>
    <polyline class="cls-14" points="476.08 93.06 534.86 93.06 534.86 97.96 569.14 97.96"/>
    <text class="cls-5" transform="translate(78.45 90.61) rotate(-90)"><tspan x="0" y="0">3:0</tspan></text>
  </g>
</svg>