<?xml version="1.0" encoding="UTF-8"?>
<svg id="Capa_1" xmlns="http://www.w3.org/2000/svg" xmlns:xlink="http://www.w3.org/1999/xlink" viewBox="0 0 792 324.9">
  <defs>
    <style>
      .cls-1, .cls-2, .cls-3, .cls-4, .cls-5, .cls-6, .cls-7, .cls-8, .cls-9 {
        fill: none;
      }

      .cls-1, .cls-2, .cls-6, .cls-7 {
        stroke-width: .29px;
      }

      .cls-1, .cls-5, .cls-9 {
        stroke: #2d2d2d;
      }

      .cls-2 {
        stroke: #000;
      }

      .cls-10 {
        opacity: .41;
      }

      .cls-3, .cls-6 {
        stroke: blue;
      }

      .cls-3, .cls-8, .cls-9 {
        stroke-width: .86px;
      }

      .cls-11, .cls-12 {
        fill: #2d2d2d;
      }

      .cls-13 {
        fill: #fff;
      }

      .cls-5 {
        stroke-width: .57px;
      }

      .cls-12, .cls-14, .cls-15, .cls-16, .cls-17 {
        font-family: ArialMT, Arial;
      }

      .cls-12, .cls-15, .cls-16 {
        font-size: 3.45px;
      }

      .cls-14, .cls-15 {
        fill: #06476f;
      }

      .cls-14, .cls-17 {
        font-size: 2.87px;
      }

      .cls-7, .cls-8 {
        stroke: #06476f;
      }

      .cls-18 {
        fill: #b3a9fe;
      }

      .cls-19 {
        fill: #73acac;
      }

      .cls-20 {
        fill: #477777;
      }

      .cls-21 {
        fill: #dce6dc;
      }

      .cls-22 {
        clip-path: url(#clippath);
      }
    </style>
    <clipPath id="clippath">
      <rect class="cls-4" width="792" height="324.61"/>
    </clipPath>
  </defs>
  <g class="cls-22">
    <rect class="cls-13" width="791.71" height="324.9"/>
    <polygon class="cls-10" points="86.47 12.93 466.81 12.93 467.67 13.21 468.54 13.5 468.82 14.36 469.11 15.23 469.11 306.52 468.82 307.38 468.54 308.24 467.67 308.53 466.81 308.81 86.47 308.81 85.61 308.53 84.74 308.24 84.46 307.38 84.17 306.52 84.17 15.23 84.46 14.36 84.74 13.5 85.61 13.21 86.47 12.93"/>
    <polygon class="cls-21" points="85.03 11.49 465.38 11.49 466.24 11.78 467.1 12.07 467.39 12.93 467.67 13.79 467.67 305.08 467.39 305.94 467.1 306.8 466.24 307.09 465.38 307.38 85.03 307.38 84.17 307.09 83.31 306.8 83.02 305.94 82.73 305.08 82.73 13.79 83.02 12.93 83.31 12.07 84.17 11.78 85.03 11.49"/>
    <line class="cls-1" x1="85.03" y1="11.49" x2="465.38" y2="11.49"/>
    <path class="cls-1" d="M467.67,13.79v-.1c-.03-1.24-1.05-2.23-2.3-2.2"/>
    <line class="cls-1" x1="467.67" y1="13.79" x2="467.67" y2="305.08"/>
    <path class="cls-1" d="M465.38,307.38h.09c1.24-.03,2.23-1.05,2.2-2.3"/>
    <line class="cls-1" x1="465.38" y1="307.38" x2="85.03" y2="307.38"/>
    <path class="cls-1" d="M82.73,305.08s0,.06,0,.09c.03,1.24,1.06,2.23,2.3,2.2"/>
    <line class="cls-1" x1="82.73" y1="305.08" x2="82.73" y2="13.79"/>
    <path class="cls-1" d="M85.03,11.49s-.06,0-.1,0c-1.24.03-2.23,1.06-2.2,2.3"/>
    <line class="cls-9" x1="84.17" y1="14.65" x2="87.62" y2="14.65"/>
    <rect class="cls-1" x="83.6" y="12.35" width="4.6" height="4.6"/>
    <text class="cls-16" transform="translate(259.11 10.2)"><tspan x="0" y="0">FIFO_ctrl:control_fifo</tspan></text>
    <line class="cls-7" x1="79.86" y1="215.45" x2="82.73" y2="215.45"/>
    <text class="cls-14" transform="translate(78.65 214.28)"><tspan x="0" y="0">clk</tspan></text>
    <line class="cls-7" x1="79.86" y1="201.09" x2="82.73" y2="201.09"/>
    <text class="cls-14" transform="translate(73.22 199.92)"><tspan x="0" y="0">rd_ena</tspan></text>
    <line class="cls-7" x1="79.86" y1="221.2" x2="82.73" y2="221.2"/>
    <text class="cls-14" transform="translate(78.97 220.03)"><tspan x="0" y="0">rst</tspan></text>
    <line class="cls-7" x1="79.86" y1="206.83" x2="82.73" y2="206.83"/>
    <text class="cls-14" transform="translate(72.74 205.67)"><tspan x="0" y="0">wr_ena</tspan></text>
    <line class="cls-7" x1="470.55" y1="106.29" x2="467.67" y2="106.29"/>
    <text class="cls-14" transform="translate(469.4 105.12)"><tspan x="0" y="0">empty</tspan></text>
    <line class="cls-7" x1="470.55" y1="146.51" x2="467.67" y2="146.51"/>
    <text class="cls-14" transform="translate(469.4 145.34)"><tspan x="0" y="0">full</tspan></text>
    <line class="cls-8" x1="470.55" y1="209.71" x2="467.67" y2="209.71"/>
    <text class="cls-14" transform="translate(469.4 208.54)"><tspan x="0" y="0">w_addr[2..0]</tspan></text>
    <line class="cls-8" x1="470.55" y1="60.33" x2="467.67" y2="60.33"/>
    <text class="cls-14" transform="translate(469.4 59.16)"><tspan x="0" y="0">r_addr[2..0]</tspan></text>
    <line class="cls-7" x1="85.61" y1="215.45" x2="82.73" y2="215.45"/>
    <line class="cls-7" x1="85.61" y1="201.09" x2="82.73" y2="201.09"/>
    <line class="cls-7" x1="85.61" y1="221.2" x2="82.73" y2="221.2"/>
    <line class="cls-7" x1="85.61" y1="206.83" x2="82.73" y2="206.83"/>
    <line class="cls-7" x1="464.8" y1="106.29" x2="467.67" y2="106.29"/>
    <line class="cls-7" x1="464.8" y1="146.51" x2="467.67" y2="146.51"/>
    <line class="cls-8" x1="464.8" y1="209.71" x2="467.67" y2="209.71"/>
    <line class="cls-8" x1="464.8" y1="60.33" x2="467.67" y2="60.33"/>
    <polygon class="cls-10" points="563.33 25.57 710.99 25.57 711.85 25.85 712.71 26.14 713 27 713.29 27.87 713.29 91.06 713 91.93 712.71 92.79 711.85 93.08 710.99 93.36 563.33 93.36 562.47 93.08 561.61 92.79 561.32 91.93 561.04 91.06 561.04 27.87 561.32 27 561.61 26.14 562.47 25.85 563.33 25.57"/>
    <polygon class="cls-21" points="561.9 24.13 709.55 24.13 710.42 24.42 711.28 24.71 711.57 25.57 711.85 26.43 711.85 89.63 711.57 90.49 711.28 91.35 710.42 91.64 709.55 91.93 561.9 91.93 561.04 91.64 560.17 91.35 559.89 90.49 559.6 89.63 559.6 26.43 559.89 25.57 560.17 24.71 561.04 24.42 561.9 24.13"/>
    <line class="cls-1" x1="561.9" y1="24.13" x2="709.55" y2="24.13"/>
    <path class="cls-1" d="M711.85,26.43v-.1c-.03-1.24-1.05-2.23-2.3-2.2"/>
    <line class="cls-1" x1="711.85" y1="26.43" x2="711.85" y2="89.63"/>
    <path class="cls-1" d="M709.55,91.93s.06,0,.09,0c1.24-.03,2.23-1.06,2.2-2.3"/>
    <line class="cls-1" x1="709.55" y1="91.93" x2="561.9" y2="91.93"/>
    <path class="cls-1" d="M559.6,89.63v.1c.03,1.24,1.05,2.23,2.3,2.2"/>
    <line class="cls-1" x1="559.6" y1="89.63" x2="559.6" y2="26.43"/>
    <path class="cls-1" d="M561.9,24.13s-.06,0-.09,0c-1.24.03-2.23,1.06-2.2,2.3"/>
    <line class="cls-9" x1="561.04" y1="27.29" x2="564.48" y2="27.29"/>
    <rect class="cls-1" x="560.46" y="24.99" width="4.6" height="4.6"/>
    <text class="cls-16" transform="translate(620.11 22.84)"><tspan x="0" y="0">RegFile:RegisterFile</tspan></text>
    <line class="cls-7" x1="556.73" y1="45.96" x2="559.6" y2="45.96"/>
    <text class="cls-14" transform="translate(555.52 44.79)"><tspan x="0" y="0">clk</tspan></text>
    <line class="cls-7" x1="556.73" y1="89.05" x2="559.6" y2="89.05"/>
    <text class="cls-14" transform="translate(555.35 87.88)"><tspan x="0" y="0">full</tspan></text>
    <line class="cls-7" x1="556.73" y1="34.47" x2="559.6" y2="34.47"/>
    <text class="cls-14" transform="translate(550.08 33.3)"><tspan x="0" y="0">rd_ena</tspan></text>
    <line class="cls-7" x1="556.73" y1="83.31" x2="559.6" y2="83.31"/>
    <text class="cls-14" transform="translate(549.61 82.14)"><tspan x="0" y="0">wr_ena</tspan></text>
    <line class="cls-8" x1="556.73" y1="57.45" x2="559.6" y2="57.45"/>
    <text class="cls-14" transform="translate(539.39 56.29)"><tspan x="0" y="0">data_write[3..0]</tspan></text>
    <line class="cls-8" x1="556.73" y1="74.69" x2="559.6" y2="74.69"/>
    <text class="cls-14" transform="translate(543.22 73.52)"><tspan x="0" y="0">w_addr[2..0]</tspan></text>
    <line class="cls-8" x1="556.73" y1="68.94" x2="559.6" y2="68.94"/>
    <text class="cls-14" transform="translate(544.33 67.78)"><tspan x="0" y="0">r_addr[2..0]</tspan></text>
    <line class="cls-8" x1="714.73" y1="48.84" x2="711.85" y2="48.84"/>
    <text class="cls-14" transform="translate(713.58 47.67)"><tspan x="0" y="0">data_read[3..0]</tspan></text>
    <line class="cls-7" x1="562.47" y1="45.96" x2="559.6" y2="45.96"/>
    <line class="cls-7" x1="562.47" y1="89.05" x2="559.6" y2="89.05"/>
    <line class="cls-7" x1="562.47" y1="34.47" x2="559.6" y2="34.47"/>
    <line class="cls-7" x1="562.47" y1="83.31" x2="559.6" y2="83.31"/>
    <line class="cls-8" x1="562.47" y1="57.45" x2="559.6" y2="57.45"/>
    <line class="cls-8" x1="562.47" y1="74.69" x2="559.6" y2="74.69"/>
    <line class="cls-8" x1="562.47" y1="68.94" x2="559.6" y2="68.94"/>
    <line class="cls-8" x1="708.98" y1="48.84" x2="711.85" y2="48.84"/>
    <path class="cls-10" d="M190.46,113.47c0-3.17-2.57-5.75-5.75-5.75s-5.75,2.57-5.75,5.75,2.57,5.75,5.75,5.75,5.75-2.57,5.75-5.75"/>
    <path class="cls-19" d="M189.02,112.03c0-3.17-2.57-5.75-5.75-5.75s-5.75,2.57-5.75,5.75,2.57,5.75,5.75,5.75,5.75-2.57,5.75-5.75"/>
    <path class="cls-1" d="M189.02,112.03c0-3.17-2.57-5.75-5.75-5.75s-5.75,2.57-5.75,5.75,2.57,5.75,5.75,5.75,5.75-2.57,5.75-5.75"/>
    <line class="cls-1" x1="177.53" y1="106.29" x2="179.26" y2="108.01"/>
    <line class="cls-1" x1="177.53" y1="117.78" x2="179.26" y2="116.06"/>
    <text class="cls-12" transform="translate(182.27 113.27)"><tspan x="0" y="0">+</tspan></text>
    <text class="cls-16" transform="translate(181.84 105)"><tspan x="0" y="0">Add1</tspan></text>
    <line class="cls-7" x1="174.66" y1="106.29" x2="177.53" y2="106.29"/>
    <text class="cls-14" transform="translate(172.01 105.41)"><tspan x="0" y="0">CIN</tspan></text>
    <text class="cls-15" transform="translate(164.41 105.29)"><tspan x="0" y="0">1&apos;h0</tspan></text>
    <line class="cls-8" x1="174.66" y1="112.03" x2="177.53" y2="112.03"/>
    <text class="cls-14" transform="translate(168.65 111.15)"><tspan x="0" y="0">A[2..0]</tspan></text>
    <line class="cls-8" x1="174.66" y1="117.78" x2="177.53" y2="117.78"/>
    <text class="cls-14" transform="translate(168.65 116.9)"><tspan x="0" y="0">B[2..0]</tspan></text>
    <text class="cls-15" transform="translate(161.25 116.78)"><tspan x="0" y="0">3&apos;h1</tspan></text>
    <line class="cls-8" x1="191.9" y1="112.03" x2="189.02" y2="112.03"/>
    <text class="cls-14" transform="translate(190.75 111.15)"><tspan x="0" y="0">OUT[2..0]</tspan></text>
    <path class="cls-10" d="M265.15,113.47c0-3.17-2.57-5.75-5.75-5.75s-5.75,2.57-5.75,5.75,2.57,5.75,5.75,5.75,5.75-2.57,5.75-5.75"/>
    <path class="cls-19" d="M263.71,112.03c0-3.17-2.57-5.75-5.75-5.75s-5.75,2.57-5.75,5.75,2.57,5.75,5.75,5.75,5.75-2.57,5.75-5.75"/>
    <path class="cls-1" d="M263.71,112.03c0-3.17-2.57-5.75-5.75-5.75s-5.75,2.57-5.75,5.75,2.57,5.75,5.75,5.75,5.75-2.57,5.75-5.75"/>
    <line class="cls-1" x1="252.22" y1="109.16" x2="252.8" y2="109.45"/>
    <line class="cls-1" x1="252.22" y1="114.91" x2="252.8" y2="114.62"/>
    <text class="cls-12" transform="translate(256.96 113.27)"><tspan x="0" y="0">=</tspan></text>
    <text class="cls-16" transform="translate(256.53 105)"><tspan x="0" y="0">Equal0</tspan></text>
    <line class="cls-8" x1="249.35" y1="109.16" x2="252.22" y2="109.16"/>
    <text class="cls-14" transform="translate(243.34 108.28)"><tspan x="0" y="0">A[2..0]</tspan></text>
    <line class="cls-8" x1="249.35" y1="114.91" x2="252.22" y2="114.91"/>
    <text class="cls-14" transform="translate(243.34 114.03)"><tspan x="0" y="0">B[2..0]</tspan></text>
    <line class="cls-7" x1="266.59" y1="112.03" x2="263.71" y2="112.03"/>
    <text class="cls-14" transform="translate(265.44 111.15)"><tspan x="0" y="0">OUT</tspan></text>
    <path class="cls-10" d="M190.46,133.58c0-3.17-2.57-5.75-5.75-5.75s-5.75,2.57-5.75,5.75,2.57,5.75,5.75,5.75,5.75-2.57,5.75-5.75"/>
    <path class="cls-19" d="M189.02,132.14c0-3.17-2.57-5.75-5.75-5.75s-5.75,2.57-5.75,5.75,2.57,5.75,5.75,5.75,5.75-2.57,5.75-5.75"/>
    <path class="cls-1" d="M189.02,132.14c0-3.17-2.57-5.75-5.75-5.75s-5.75,2.57-5.75,5.75,2.57,5.75,5.75,5.75,5.75-2.57,5.75-5.75"/>
    <line class="cls-1" x1="177.53" y1="129.27" x2="178.11" y2="129.56"/>
    <line class="cls-1" x1="177.53" y1="135.02" x2="178.11" y2="134.73"/>
    <text class="cls-12" transform="translate(182.27 133.38)"><tspan x="0" y="0">=</tspan></text>
    <text class="cls-16" transform="translate(181.84 125.11)"><tspan x="0" y="0">Equal1</tspan></text>
    <line class="cls-8" x1="174.66" y1="129.27" x2="177.53" y2="129.27"/>
    <text class="cls-14" transform="translate(168.65 128.39)"><tspan x="0" y="0">A[2..0]</tspan></text>
    <line class="cls-8" x1="174.66" y1="135.02" x2="177.53" y2="135.02"/>
    <text class="cls-14" transform="translate(168.65 134.13)"><tspan x="0" y="0">B[2..0]</tspan></text>
    <line class="cls-7" x1="191.9" y1="132.14" x2="189.02" y2="132.14"/>
    <text class="cls-14" transform="translate(190.75 131.26)"><tspan x="0" y="0">OUT</tspan></text>
    <polygon class="cls-10" points="339.84 288.71 351.33 293.01 351.33 301.63 339.84 305.94 339.84 288.71"/>
    <polygon class="cls-19" points="338.4 287.27 349.89 291.58 349.89 300.2 338.4 304.51 338.4 287.27"/>
    <polygon class="cls-1" points="338.4 287.27 349.89 291.58 349.89 300.2 338.4 304.51 338.4 287.27"/>
    <text class="cls-16" transform="translate(339.93 285.98)"><tspan x="0" y="0">Mux0</tspan></text>
    <line class="cls-8" x1="335.53" y1="293.01" x2="338.4" y2="293.01"/>
    <text class="cls-14" transform="translate(326.01 292.13)"><tspan x="0" y="0">SEL[1..0]</tspan></text>
    <line class="cls-8" x1="335.53" y1="298.76" x2="338.4" y2="298.76"/>
    <text class="cls-14" transform="translate(323.78 297.88)"><tspan x="0" y="0">DATA[3..0]</tspan></text>
    <line class="cls-7" x1="352.77" y1="295.89" x2="349.89" y2="295.89"/>
    <text class="cls-14" transform="translate(351.62 295)"><tspan x="0" y="0">OUT</tspan></text>
    <polygon class="cls-10" points="339.84 265.72 351.33 270.03 351.33 278.65 339.84 282.96 339.84 265.72"/>
    <polygon class="cls-19" points="338.4 264.29 349.89 268.6 349.89 277.21 338.4 281.52 338.4 264.29"/>
    <polygon class="cls-1" points="338.4 264.29 349.89 268.6 349.89 277.21 338.4 281.52 338.4 264.29"/>
    <text class="cls-16" transform="translate(339.93 263)"><tspan x="0" y="0">Mux1</tspan></text>
    <line class="cls-8" x1="335.53" y1="270.03" x2="338.4" y2="270.03"/>
    <text class="cls-14" transform="translate(326.01 269.15)"><tspan x="0" y="0">SEL[1..0]</tspan></text>
    <line class="cls-8" x1="335.53" y1="275.78" x2="338.4" y2="275.78"/>
    <text class="cls-14" transform="translate(323.78 274.9)"><tspan x="0" y="0">DATA[3..0]</tspan></text>
    <line class="cls-7" x1="352.77" y1="272.91" x2="349.89" y2="272.91"/>
    <text class="cls-14" transform="translate(351.62 272.02)"><tspan x="0" y="0">OUT</tspan></text>
    <polygon class="cls-10" points="339.84 242.74 351.33 247.05 351.33 255.67 339.84 259.98 339.84 242.74"/>
    <polygon class="cls-19" points="338.4 241.31 349.89 245.61 349.89 254.23 338.4 258.54 338.4 241.31"/>
    <polygon class="cls-1" points="338.4 241.31 349.89 245.61 349.89 254.23 338.4 258.54 338.4 241.31"/>
    <text class="cls-16" transform="translate(339.93 240.02)"><tspan x="0" y="0">Mux2</tspan></text>
    <line class="cls-8" x1="335.53" y1="247.05" x2="338.4" y2="247.05"/>
    <text class="cls-14" transform="translate(326.01 246.17)"><tspan x="0" y="0">SEL[1..0]</tspan></text>
    <line class="cls-8" x1="335.53" y1="252.8" x2="338.4" y2="252.8"/>
    <text class="cls-14" transform="translate(323.78 251.92)"><tspan x="0" y="0">DATA[3..0]</tspan></text>
    <line class="cls-7" x1="352.77" y1="249.92" x2="349.89" y2="249.92"/>
    <text class="cls-14" transform="translate(351.62 249.04)"><tspan x="0" y="0">OUT</tspan></text>
    <polygon class="cls-10" points="339.84 18.67 351.33 22.98 351.33 31.6 339.84 35.91 339.84 18.67"/>
    <polygon class="cls-19" points="338.4 17.24 349.89 21.55 349.89 30.16 338.4 34.47 338.4 17.24"/>
    <polygon class="cls-1" points="338.4 17.24 349.89 21.55 349.89 30.16 338.4 34.47 338.4 17.24"/>
    <text class="cls-16" transform="translate(339.93 15.95)"><tspan x="0" y="0">Mux3</tspan></text>
    <line class="cls-8" x1="335.53" y1="22.98" x2="338.4" y2="22.98"/>
    <text class="cls-14" transform="translate(326.01 22.1)"><tspan x="0" y="0">SEL[1..0]</tspan></text>
    <line class="cls-8" x1="335.53" y1="28.73" x2="338.4" y2="28.73"/>
    <text class="cls-14" transform="translate(323.78 27.84)"><tspan x="0" y="0">DATA[3..0]</tspan></text>
    <line class="cls-7" x1="352.77" y1="25.85" x2="349.89" y2="25.85"/>
    <text class="cls-14" transform="translate(351.62 24.97)"><tspan x="0" y="0">OUT</tspan></text>
    <polygon class="cls-10" points="339.84 41.65 351.33 45.96 351.33 54.58 339.84 58.89 339.84 41.65"/>
    <polygon class="cls-19" points="338.4 40.22 349.89 44.53 349.89 53.14 338.4 57.45 338.4 40.22"/>
    <polygon class="cls-1" points="338.4 40.22 349.89 44.53 349.89 53.14 338.4 57.45 338.4 40.22"/>
    <text class="cls-16" transform="translate(339.93 38.93)"><tspan x="0" y="0">Mux4</tspan></text>
    <line class="cls-8" x1="335.53" y1="45.96" x2="338.4" y2="45.96"/>
    <text class="cls-14" transform="translate(326.01 45.08)"><tspan x="0" y="0">SEL[1..0]</tspan></text>
    <line class="cls-8" x1="335.53" y1="51.71" x2="338.4" y2="51.71"/>
    <text class="cls-14" transform="translate(323.78 50.83)"><tspan x="0" y="0">DATA[3..0]</tspan></text>
    <line class="cls-7" x1="352.77" y1="48.84" x2="349.89" y2="48.84"/>
    <text class="cls-14" transform="translate(351.62 47.95)"><tspan x="0" y="0">OUT</tspan></text>
    <polygon class="cls-10" points="339.84 64.64 351.33 68.94 351.33 77.56 339.84 81.87 339.84 64.64"/>
    <polygon class="cls-19" points="338.4 63.2 349.89 67.51 349.89 76.13 338.4 80.44 338.4 63.2"/>
    <polygon class="cls-1" points="338.4 63.2 349.89 67.51 349.89 76.13 338.4 80.44 338.4 63.2"/>
    <text class="cls-16" transform="translate(339.93 61.91)"><tspan x="0" y="0">Mux5</tspan></text>
    <line class="cls-8" x1="335.53" y1="68.94" x2="338.4" y2="68.94"/>
    <text class="cls-14" transform="translate(326.01 68.06)"><tspan x="0" y="0">SEL[1..0]</tspan></text>
    <line class="cls-8" x1="335.53" y1="74.69" x2="338.4" y2="74.69"/>
    <text class="cls-14" transform="translate(323.78 73.81)"><tspan x="0" y="0">DATA[3..0]</tspan></text>
    <line class="cls-7" x1="352.77" y1="71.82" x2="349.89" y2="71.82"/>
    <text class="cls-14" transform="translate(351.62 70.94)"><tspan x="0" y="0">OUT</tspan></text>
    <polygon class="cls-10" points="253.66 196.78 265.15 201.09 265.15 209.71 253.66 214.02 253.66 196.78"/>
    <polygon class="cls-19" points="252.22 195.34 263.71 199.65 263.71 208.27 252.22 212.58 252.22 195.34"/>
    <polygon class="cls-1" points="252.22 195.34 263.71 199.65 263.71 208.27 252.22 212.58 252.22 195.34"/>
    <text class="cls-16" transform="translate(253.75 194.05)"><tspan x="0" y="0">Mux6</tspan></text>
    <line class="cls-8" x1="249.35" y1="201.09" x2="252.22" y2="201.09"/>
    <text class="cls-14" transform="translate(239.83 200.21)"><tspan x="0" y="0">SEL[1..0]</tspan></text>
    <line class="cls-8" x1="249.35" y1="206.83" x2="252.22" y2="206.83"/>
    <text class="cls-14" transform="translate(237.6 205.95)"><tspan x="0" y="0">DATA[3..0]</tspan></text>
    <line class="cls-7" x1="266.59" y1="203.96" x2="263.71" y2="203.96"/>
    <text class="cls-14" transform="translate(265.44 203.08)"><tspan x="0" y="0">OUT</tspan></text>
    <polygon class="cls-10" points="339.84 93.36 351.33 97.67 351.33 106.29 339.84 110.6 339.84 93.36"/>
    <polygon class="cls-19" points="338.4 91.93 349.89 96.24 349.89 104.85 338.4 109.16 338.4 91.93"/>
    <polygon class="cls-1" points="338.4 91.93 349.89 96.24 349.89 104.85 338.4 109.16 338.4 91.93"/>
    <text class="cls-16" transform="translate(339.93 90.64)"><tspan x="0" y="0">Mux7</tspan></text>
    <line class="cls-8" x1="335.53" y1="97.67" x2="338.4" y2="97.67"/>
    <text class="cls-14" transform="translate(326.01 96.79)"><tspan x="0" y="0">SEL[1..0]</tspan></text>
    <line class="cls-8" x1="335.53" y1="103.42" x2="338.4" y2="103.42"/>
    <text class="cls-14" transform="translate(323.78 102.54)"><tspan x="0" y="0">DATA[3..0]</tspan></text>
    <line class="cls-7" x1="352.77" y1="100.54" x2="349.89" y2="100.54"/>
    <text class="cls-14" transform="translate(351.62 99.66)"><tspan x="0" y="0">OUT</tspan></text>
    <polygon class="cls-10" points="339.84 119.22 351.33 123.53 351.33 132.14 339.84 136.45 339.84 119.22"/>
    <polygon class="cls-19" points="338.4 117.78 349.89 122.09 349.89 130.71 338.4 135.02 338.4 117.78"/>
    <polygon class="cls-1" points="338.4 117.78 349.89 122.09 349.89 130.71 338.4 135.02 338.4 117.78"/>
    <text class="cls-16" transform="translate(345.3 118.79)"><tspan x="0" y="0">empty_aux~0</tspan></text>
    <line class="cls-7" x1="335.53" y1="123.53" x2="338.4" y2="123.53"/>
    <text class="cls-14" transform="translate(336.23 122.64)"><tspan x="0" y="0">0</tspan></text>
    <line class="cls-7" x1="335.53" y1="129.27" x2="338.4" y2="129.27"/>
    <text class="cls-14" transform="translate(336.23 128.39)"><tspan x="0" y="0">1</tspan></text>
    <text class="cls-15" transform="translate(328.73 128.27)"><tspan x="0" y="0">1&apos;h1</tspan></text>
    <line class="cls-7" x1="344.15" y1="117.78" x2="344.15" y2="120.08"/>
    <line class="cls-7" x1="352.77" y1="126.4" x2="349.89" y2="126.4"/>
    <polygon class="cls-10" points="417.4 127.83 428.89 132.14 428.89 140.76 417.4 145.07 417.4 127.83"/>
    <polygon class="cls-19" points="415.97 126.4 427.46 130.71 427.46 139.33 415.97 143.63 415.97 126.4"/>
    <polygon class="cls-1" points="415.97 126.4 427.46 130.71 427.46 139.33 415.97 143.63 415.97 126.4"/>
    <text class="cls-16" transform="translate(422.86 127.41)"><tspan x="0" y="0">empty_aux~1</tspan></text>
    <line class="cls-7" x1="413.09" y1="132.14" x2="415.97" y2="132.14"/>
    <text class="cls-14" transform="translate(413.79 131.26)"><tspan x="0" y="0">0</tspan></text>
    <text class="cls-15" transform="translate(406.29 131.14)"><tspan x="0" y="0">1&apos;h1</tspan></text>
    <line class="cls-7" x1="413.09" y1="137.89" x2="415.97" y2="137.89"/>
    <text class="cls-14" transform="translate(413.79 137.01)"><tspan x="0" y="0">1</tspan></text>
    <path class="cls-7" d="M422.57,127.83c0-.48-.38-.86-.86-.86s-.86.39-.86.86.38.86.86.86.86-.39.86-.86"/>
    <line class="cls-7" x1="421.71" y1="126.4" x2="421.71" y2="126.97"/>
    <line class="cls-7" x1="430.33" y1="135.02" x2="427.46" y2="135.02"/>
    <polygon class="cls-10" points="417.4 153.69 428.89 158 428.89 166.62 417.4 170.92 417.4 153.69"/>
    <polygon class="cls-19" points="415.97 152.25 427.46 156.56 427.46 165.18 415.97 169.49 415.97 152.25"/>
    <polygon class="cls-1" points="415.97 152.25 427.46 156.56 427.46 165.18 415.97 169.49 415.97 152.25"/>
    <text class="cls-16" transform="translate(422.86 153.26)"><tspan x="0" y="0">empty_aux~2</tspan></text>
    <line class="cls-7" x1="413.09" y1="158" x2="415.97" y2="158"/>
    <text class="cls-14" transform="translate(413.79 157.12)"><tspan x="0" y="0">0</tspan></text>
    <line class="cls-7" x1="413.09" y1="163.74" x2="415.97" y2="163.74"/>
    <text class="cls-14" transform="translate(413.79 162.86)"><tspan x="0" y="0">1</tspan></text>
    <text class="cls-15" transform="translate(406.29 162.74)"><tspan x="0" y="0">1&apos;h0</tspan></text>
    <path class="cls-7" d="M422.57,153.69c0-.48-.38-.86-.86-.86s-.86.39-.86.86.38.86.86.86.86-.39.86-.86"/>
    <line class="cls-7" x1="421.71" y1="152.25" x2="421.71" y2="152.83"/>
    <line class="cls-7" x1="430.33" y1="160.87" x2="427.46" y2="160.87"/>
    <rect class="cls-10" x="417.4" y="96.24" width="17.24" height="22.98"/>
    <rect class="cls-19" x="415.97" y="94.8" width="17.24" height="22.98"/>
    <rect class="cls-1" x="415.97" y="94.8" width="17.24" height="22.98"/>
    <polyline class="cls-1" points="415.97 107.15 417.98 106.29 415.97 105.43"/>
    <text class="cls-16" transform="translate(424.58 93.51)"><tspan x="0" y="0">empty_buff</tspan></text>
    <line class="cls-7" x1="413.09" y1="100.54" x2="415.97" y2="100.54"/>
    <text class="cls-14" transform="translate(416.54 101.58)"><tspan x="0" y="0">D</tspan></text>
    <line class="cls-7" x1="413.09" y1="106.29" x2="415.97" y2="106.29"/>
    <text class="cls-14" transform="translate(418.55 107.32)"><tspan x="0" y="0">CLK</tspan></text>
    <line class="cls-7" x1="421.71" y1="91.93" x2="421.71" y2="94.8"/>
    <text class="cls-14" transform="translate(420.85 97.44)"><tspan x="0" y="0">PRE</tspan></text>
    <line class="cls-7" x1="413.09" y1="112.03" x2="415.97" y2="112.03"/>
    <text class="cls-14" transform="translate(416.54 113.07)"><tspan x="0" y="0">SCLR</tspan></text>
    <text class="cls-15" transform="translate(408.88 111.03)"><tspan x="0" y="0">1&apos;h0</tspan></text>
    <line class="cls-7" x1="436.07" y1="106.29" x2="433.2" y2="106.29"/>
    <text class="cls-14" transform="translate(430.39 107.32)"><tspan x="0" y="0">Q</tspan></text>
    <polygon class="cls-10" points="339.84 145.07 351.33 149.38 351.33 158 339.84 162.31 339.84 145.07"/>
    <polygon class="cls-19" points="338.4 143.63 349.89 147.94 349.89 156.56 338.4 160.87 338.4 143.63"/>
    <polygon class="cls-1" points="338.4 143.63 349.89 147.94 349.89 156.56 338.4 160.87 338.4 143.63"/>
    <text class="cls-16" transform="translate(345.3 144.64)"><tspan x="0" y="0">full_aux~0</tspan></text>
    <line class="cls-7" x1="335.53" y1="149.38" x2="338.4" y2="149.38"/>
    <text class="cls-14" transform="translate(336.23 148.5)"><tspan x="0" y="0">0</tspan></text>
    <line class="cls-7" x1="335.53" y1="155.13" x2="338.4" y2="155.13"/>
    <text class="cls-14" transform="translate(336.23 154.24)"><tspan x="0" y="0">1</tspan></text>
    <text class="cls-15" transform="translate(328.73 154.13)"><tspan x="0" y="0">1&apos;h0</tspan></text>
    <path class="cls-7" d="M345.01,145.07c0-.48-.38-.86-.86-.86s-.86.39-.86.86.38.86.86.86.86-.39.86-.86"/>
    <line class="cls-7" x1="344.15" y1="143.63" x2="344.15" y2="144.21"/>
    <line class="cls-7" x1="352.77" y1="152.25" x2="349.89" y2="152.25"/>
    <polygon class="cls-10" points="253.66 139.33 265.15 143.63 265.15 152.25 253.66 156.56 253.66 139.33"/>
    <polygon class="cls-19" points="252.22 137.89 263.71 142.2 263.71 150.82 252.22 155.13 252.22 137.89"/>
    <polygon class="cls-1" points="252.22 137.89 263.71 142.2 263.71 150.82 252.22 155.13 252.22 137.89"/>
    <text class="cls-16" transform="translate(259.12 138.9)"><tspan x="0" y="0">full_aux~1</tspan></text>
    <line class="cls-7" x1="249.35" y1="143.63" x2="252.22" y2="143.63"/>
    <text class="cls-14" transform="translate(250.05 142.75)"><tspan x="0" y="0">0</tspan></text>
    <line class="cls-7" x1="249.35" y1="149.38" x2="252.22" y2="149.38"/>
    <text class="cls-14" transform="translate(250.05 148.5)"><tspan x="0" y="0">1</tspan></text>
    <text class="cls-15" transform="translate(242.55 148.38)"><tspan x="0" y="0">1&apos;h1</tspan></text>
    <line class="cls-7" x1="257.97" y1="137.89" x2="257.97" y2="140.19"/>
    <line class="cls-7" x1="266.59" y1="146.51" x2="263.71" y2="146.51"/>
    <polygon class="cls-10" points="339.84 170.92 351.33 175.23 351.33 183.85 339.84 188.16 339.84 170.92"/>
    <polygon class="cls-19" points="338.4 169.49 349.89 173.8 349.89 182.42 338.4 186.72 338.4 169.49"/>
    <polygon class="cls-1" points="338.4 169.49 349.89 173.8 349.89 182.42 338.4 186.72 338.4 169.49"/>
    <text class="cls-16" transform="translate(345.3 170.5)"><tspan x="0" y="0">full_aux~2</tspan></text>
    <line class="cls-7" x1="335.53" y1="175.23" x2="338.4" y2="175.23"/>
    <text class="cls-14" transform="translate(336.23 174.35)"><tspan x="0" y="0">0</tspan></text>
    <text class="cls-15" transform="translate(328.73 174.23)"><tspan x="0" y="0">1&apos;h1</tspan></text>
    <line class="cls-7" x1="335.53" y1="180.98" x2="338.4" y2="180.98"/>
    <text class="cls-14" transform="translate(336.23 180.1)"><tspan x="0" y="0">1</tspan></text>
    <path class="cls-7" d="M345.01,170.92c0-.48-.38-.86-.86-.86s-.86.39-.86.86.38.86.86.86.86-.39.86-.86"/>
    <line class="cls-7" x1="344.15" y1="169.49" x2="344.15" y2="170.06"/>
    <line class="cls-7" x1="352.77" y1="178.11" x2="349.89" y2="178.11"/>
    <rect class="cls-10" x="339.84" y="193.91" width="17.24" height="22.98"/>
    <rect class="cls-19" x="338.4" y="192.47" width="17.24" height="22.98"/>
    <rect class="cls-1" x="338.4" y="192.47" width="17.24" height="22.98"/>
    <polyline class="cls-1" points="338.4 204.82 340.41 203.96 338.4 203.1"/>
    <text class="cls-16" transform="translate(340.98 191.18)"><tspan x="0" y="0">full_buff</tspan></text>
    <line class="cls-7" x1="335.53" y1="198.22" x2="338.4" y2="198.22"/>
    <text class="cls-14" transform="translate(338.98 199.25)"><tspan x="0" y="0">D</tspan></text>
    <line class="cls-7" x1="335.53" y1="203.96" x2="338.4" y2="203.96"/>
    <text class="cls-14" transform="translate(340.99 204.99)"><tspan x="0" y="0">CLK</tspan></text>
    <line class="cls-7" x1="344.15" y1="218.32" x2="344.15" y2="215.45"/>
    <text class="cls-14" transform="translate(343.29 214.28)"><tspan x="0" y="0">CLRN</tspan></text>
    <line class="cls-7" x1="335.53" y1="209.71" x2="338.4" y2="209.71"/>
    <text class="cls-14" transform="translate(338.98 210.74)"><tspan x="0" y="0">SCLR</tspan></text>
    <text class="cls-15" transform="translate(331.31 208.71)"><tspan x="0" y="0">1&apos;h0</tspan></text>
    <line class="cls-7" x1="358.51" y1="203.96" x2="355.64" y2="203.96"/>
    <text class="cls-14" transform="translate(352.83 204.99)"><tspan x="0" y="0">Q</tspan></text>
    <polygon class="cls-10" points="254.52 76.99 266.01 81.3 266.01 89.92 254.52 94.22 254.52 76.99"/>
    <polygon class="cls-20" points="253.37 75.84 264.86 80.15 264.86 88.77 253.37 93.08 253.37 75.84"/>
    <polygon class="cls-1" points="253.37 75.84 264.86 80.15 264.86 88.77 253.37 93.08 253.37 75.84"/>
    <polygon class="cls-19" points="252.22 74.69 263.71 79 263.71 87.62 252.22 91.93 252.22 74.69"/>
    <polygon class="cls-1" points="252.22 74.69 263.71 79 263.71 87.62 252.22 91.93 252.22 74.69"/>
    <text class="cls-16" transform="translate(259.12 75.7)"><tspan x="0" y="0">rdnxt~[2..0]</tspan></text>
    <line class="cls-8" x1="249.35" y1="80.44" x2="252.22" y2="80.44"/>
    <text class="cls-14" transform="translate(250.05 79.55)"><tspan x="0" y="0">0</tspan></text>
    <line class="cls-8" x1="249.35" y1="86.18" x2="252.22" y2="86.18"/>
    <text class="cls-14" transform="translate(250.05 85.3)"><tspan x="0" y="0">1</tspan></text>
    <path class="cls-8" d="M258.83,76.13c0-.48-.39-.86-.86-.86s-.86.39-.86.86.39.86.86.86.86-.39.86-.86"/>
    <line class="cls-8" x1="257.97" y1="74.69" x2="257.97" y2="75.26"/>
    <line class="cls-8" x1="266.59" y1="83.31" x2="263.71" y2="83.31"/>
    <rect class="cls-10" x="418.26" y="51.13" width="17.24" height="22.98"/>
    <rect class="cls-20" x="417.11" y="49.98" width="17.24" height="22.98"/>
    <rect class="cls-1" x="417.11" y="49.98" width="17.24" height="22.98"/>
    <rect class="cls-19" x="415.97" y="48.84" width="17.24" height="22.98"/>
    <rect class="cls-1" x="415.97" y="48.84" width="17.24" height="22.98"/>
    <polyline class="cls-1" points="415.97 61.19 417.98 60.33 415.97 59.46"/>
    <text class="cls-16" transform="translate(417.21 47.55)"><tspan x="0" y="0">rdptr[2..0]</tspan></text>
    <line class="cls-8" x1="413.09" y1="54.58" x2="415.97" y2="54.58"/>
    <text class="cls-14" transform="translate(416.54 55.61)"><tspan x="0" y="0">D</tspan></text>
    <line class="cls-8" x1="413.09" y1="60.33" x2="415.97" y2="60.33"/>
    <text class="cls-14" transform="translate(418.55 61.36)"><tspan x="0" y="0">CLK</tspan></text>
    <line class="cls-8" x1="421.71" y1="74.69" x2="421.71" y2="71.82"/>
    <text class="cls-14" transform="translate(420.85 70.65)"><tspan x="0" y="0">CLRN</tspan></text>
    <line class="cls-8" x1="413.09" y1="66.07" x2="415.97" y2="66.07"/>
    <text class="cls-14" transform="translate(416.54 67.1)"><tspan x="0" y="0">SCLR</tspan></text>
    <text class="cls-15" transform="translate(408.88 65.07)"><tspan x="0" y="0">3&apos;h0</tspan></text>
    <line class="cls-8" x1="436.07" y1="60.33" x2="433.2" y2="60.33"/>
    <text class="cls-14" transform="translate(430.39 61.36)"><tspan x="0" y="0">Q</tspan></text>
    <polygon class="cls-10" points="254.52 166.04 266.01 170.35 266.01 178.97 254.52 183.28 254.52 166.04"/>
    <polygon class="cls-20" points="253.37 164.89 264.86 169.2 264.86 177.82 253.37 182.13 253.37 164.89"/>
    <polygon class="cls-1" points="253.37 164.89 264.86 169.2 264.86 177.82 253.37 182.13 253.37 164.89"/>
    <polygon class="cls-19" points="252.22 163.74 263.71 168.05 263.71 176.67 252.22 180.98 252.22 163.74"/>
    <polygon class="cls-1" points="252.22 163.74 263.71 168.05 263.71 176.67 252.22 180.98 252.22 163.74"/>
    <text class="cls-16" transform="translate(259.12 164.75)"><tspan x="0" y="0">wrnxt~[2..0]</tspan></text>
    <line class="cls-8" x1="249.35" y1="169.49" x2="252.22" y2="169.49"/>
    <text class="cls-14" transform="translate(250.05 168.61)"><tspan x="0" y="0">0</tspan></text>
    <line class="cls-8" x1="249.35" y1="175.23" x2="252.22" y2="175.23"/>
    <text class="cls-14" transform="translate(250.05 174.35)"><tspan x="0" y="0">1</tspan></text>
    <path class="cls-8" d="M258.83,165.18c0-.48-.39-.86-.86-.86s-.86.39-.86.86.39.86.86.86.86-.39.86-.86"/>
    <line class="cls-8" x1="257.97" y1="163.74" x2="257.97" y2="164.32"/>
    <line class="cls-8" x1="266.59" y1="172.36" x2="263.71" y2="172.36"/>
    <rect class="cls-10" x="418.26" y="200.51" width="17.24" height="22.98"/>
    <rect class="cls-20" x="417.11" y="199.36" width="17.24" height="22.98"/>
    <rect class="cls-1" x="417.11" y="199.36" width="17.24" height="22.98"/>
    <rect class="cls-19" x="415.97" y="198.22" width="17.24" height="22.98"/>
    <rect class="cls-1" x="415.97" y="198.22" width="17.24" height="22.98"/>
    <polyline class="cls-1" points="415.97 210.57 417.98 209.71 415.97 208.84"/>
    <text class="cls-16" transform="translate(416.92 196.93)"><tspan x="0" y="0">wrptr[2..0]</tspan></text>
    <line class="cls-8" x1="413.09" y1="203.96" x2="415.97" y2="203.96"/>
    <text class="cls-14" transform="translate(416.54 204.99)"><tspan x="0" y="0">D</tspan></text>
    <line class="cls-8" x1="413.09" y1="209.71" x2="415.97" y2="209.71"/>
    <text class="cls-14" transform="translate(418.55 210.74)"><tspan x="0" y="0">CLK</tspan></text>
    <line class="cls-8" x1="421.71" y1="224.07" x2="421.71" y2="221.2"/>
    <text class="cls-14" transform="translate(420.85 220.03)"><tspan x="0" y="0">CLRN</tspan></text>
    <line class="cls-8" x1="413.09" y1="215.45" x2="415.97" y2="215.45"/>
    <text class="cls-14" transform="translate(416.54 216.48)"><tspan x="0" y="0">SCLR</tspan></text>
    <text class="cls-15" transform="translate(408.88 214.45)"><tspan x="0" y="0">3&apos;h0</tspan></text>
    <line class="cls-8" x1="436.07" y1="209.71" x2="433.2" y2="209.71"/>
    <text class="cls-14" transform="translate(430.39 210.74)"><tspan x="0" y="0">Q</tspan></text>
    <polygon class="cls-6" points="36.77 34.47 34.76 36.48 30.74 36.48 30.74 32.46 34.76 32.46 36.77 34.47"/>
    <text class="cls-16" transform="translate(25.76 35.71)"><tspan x="0" y="0">rst</tspan></text>
    <polygon class="cls-10" points="572.53 87.62 572.53 91.93 579.71 91.93 580.57 91.93 581.43 91.64 582.01 91.35 582.58 90.78 583.44 89.92 583.73 89.34 584.02 88.48 584.02 87.62 584.02 86.76 583.73 85.89 583.44 85.32 582.87 84.74 582.01 83.88 581.43 83.6 580.57 83.31 579.71 83.31 572.53 83.31 572.53 87.62"/>
    <polygon class="cls-19" points="571.09 86.18 571.09 90.49 578.27 90.49 579.13 90.49 580 90.2 580.57 89.92 581.15 89.34 582.01 88.48 582.29 87.9 582.58 87.04 582.58 86.18 582.58 85.32 582.29 84.46 582.01 83.88 581.43 83.31 580.57 82.45 580 82.16 579.13 81.87 578.27 81.87 571.09 81.87 571.09 86.18"/>
    <polyline class="cls-1" points="571.09 86.18 571.09 90.49 578.27 90.49"/>
    <path class="cls-1" d="M578.27,81.87h0c2.38,0,4.31,1.93,4.31,4.31s-1.93,4.31-4.31,4.31"/>
    <polyline class="cls-1" points="578.27 81.87 571.09 81.87 571.09 86.18"/>
    <text class="cls-16" transform="translate(571.66 80.87)"><tspan x="0" y="0">Wr_aux</tspan></text>
    <line class="cls-7" x1="568.22" y1="83.31" x2="571.09" y2="83.31"/>
    <path class="cls-7" d="M571.09,89.05c0-.48-.38-.86-.86-.86s-.86.39-.86.86.38.86.86.86.86-.39.86-.86"/>
    <line class="cls-7" x1="568.22" y1="89.05" x2="569.37" y2="89.05"/>
    <line class="cls-7" x1="585.45" y1="86.18" x2="582.58" y2="86.18"/>
    <polygon class="cls-10" points="668.19 42.52 679.68 46.82 679.68 55.44 668.19 59.75 668.19 42.52"/>
    <polygon class="cls-20" points="667.04 41.37 678.53 45.68 678.53 54.29 667.04 58.6 667.04 41.37"/>
    <polygon class="cls-1" points="667.04 41.37 678.53 45.68 678.53 54.29 667.04 58.6 667.04 41.37"/>
    <polygon class="cls-19" points="665.89 40.22 677.38 44.53 677.38 53.14 665.89 57.45 665.89 40.22"/>
    <polygon class="cls-1" points="665.89 40.22 677.38 44.53 677.38 53.14 665.89 57.45 665.89 40.22"/>
    <text class="cls-16" transform="translate(672.78 41.23)"><tspan x="0" y="0">data_read~[3..0]</tspan></text>
    <line class="cls-8" x1="663.02" y1="45.96" x2="665.89" y2="45.96"/>
    <text class="cls-14" transform="translate(663.72 45.08)"><tspan x="0" y="0">0</tspan></text>
    <text class="cls-15" transform="translate(656.21 44.96)"><tspan x="0" y="0">4&apos;h0</tspan></text>
    <line class="cls-8" x1="663.02" y1="51.71" x2="665.89" y2="51.71"/>
    <text class="cls-14" transform="translate(663.72 50.83)"><tspan x="0" y="0">1</tspan></text>
    <line class="cls-8" x1="671.63" y1="40.22" x2="671.63" y2="42.52"/>
    <line class="cls-8" x1="680.25" y1="48.84" x2="677.38" y2="48.84"/>
    <rect class="cls-10" x="607" y="44.53" width="34.47" height="40.22"/>
    <rect class="cls-18" x="605.56" y="43.09" width="34.47" height="40.22"/>
    <rect class="cls-1" x="605.56" y="43.09" width="34.47" height="40.22"/>
    <text class="cls-16" transform="translate(617.15 41.8)"><tspan x="0" y="0">reg_file</tspan></text>
    <text class="cls-12" transform="translate(613.22 87.51)"><tspan x="0" y="0">SYNC_RAM</tspan></text>
    <line class="cls-7" x1="602.69" y1="80.44" x2="605.56" y2="80.44"/>
    <text class="cls-14" transform="translate(606.14 81.47)"><tspan x="0" y="0">WE</tspan></text>
    <line class="cls-7" x1="602.69" y1="45.96" x2="605.56" y2="45.96"/>
    <text class="cls-14" transform="translate(606.14 46.99)"><tspan x="0" y="0">CLK0</tspan></text>
    <line class="cls-7" x1="602.69" y1="63.2" x2="605.56" y2="63.2"/>
    <text class="cls-14" transform="translate(606.14 64.23)"><tspan x="0" y="0">ENA1</tspan></text>
    <text class="cls-15" transform="translate(598.47 62.2)"><tspan x="0" y="0">1&apos;h1</tspan></text>
    <line class="cls-7" x1="602.69" y1="51.71" x2="605.56" y2="51.71"/>
    <text class="cls-14" transform="translate(606.14 52.74)"><tspan x="0" y="0">CLR1</tspan></text>
    <text class="cls-15" transform="translate(598.47 50.71)"><tspan x="0" y="0">1&apos;h0</tspan></text>
    <line class="cls-8" x1="602.69" y1="57.45" x2="605.56" y2="57.45"/>
    <text class="cls-14" transform="translate(606.14 58.49)"><tspan x="0" y="0">DATAIN[3..0]</tspan></text>
    <line class="cls-8" x1="602.69" y1="74.69" x2="605.56" y2="74.69"/>
    <text class="cls-14" transform="translate(606.14 75.72)"><tspan x="0" y="0">WADDR[2..0]</tspan></text>
    <line class="cls-8" x1="602.69" y1="68.94" x2="605.56" y2="68.94"/>
    <text class="cls-14" transform="translate(606.14 69.98)"><tspan x="0" y="0">RADDR[2..0]</tspan></text>
    <line class="cls-8" x1="642.91" y1="63.2" x2="640.04" y2="63.2"/>
    <text class="cls-14" transform="translate(619.35 64.23)"><tspan x="0" y="0">DATAOUT[3..0]</tspan></text>
    <polygon class="cls-6" points="36.77 8.62 34.76 10.63 30.74 10.63 30.74 6.61 34.76 6.61 36.77 8.62"/>
    <text class="cls-16" transform="translate(25.38 9.86)"><tspan x="0" y="0">clk</tspan></text>
    <polygon class="cls-3" points="754.94 57.45 754.94 55.44 758.96 55.44 760.98 57.45 758.96 59.46 754.94 59.46 754.94 57.45"/>
    <text class="cls-16" transform="translate(763.27 58.69)"><tspan x="0" y="0">data_read[3..0]</tspan></text>
    <polygon class="cls-3" points="36.77 45.96 34.76 47.97 30.74 47.97 30.74 43.95 34.76 43.95 36.77 45.96"/>
    <text class="cls-16" transform="translate(6.02 47.2)"><tspan x="0" y="0">data_write[3..0]</tspan></text>
    <polygon class="cls-6" points="754.94 17.24 754.94 15.23 758.96 15.23 760.98 17.24 758.96 19.25 754.94 19.25 754.94 17.24"/>
    <text class="cls-16" transform="translate(763.27 18.47)"><tspan x="0" y="0">empty</tspan></text>
    <polygon class="cls-6" points="754.94 22.98 754.94 20.97 758.96 20.97 760.98 22.98 758.96 24.99 754.94 24.99 754.94 22.98"/>
    <text class="cls-16" transform="translate(763.27 24.22)"><tspan x="0" y="0">full</tspan></text>
    <polygon class="cls-6" points="36.77 28.73 34.76 30.74 30.74 30.74 30.74 26.72 34.76 26.72 36.77 28.73"/>
    <text class="cls-16" transform="translate(18.86 29.96)"><tspan x="0" y="0">rd_ena</tspan></text>
    <path class="cls-10" d="M130.13,162.31c0-3.17-2.57-5.75-5.75-5.75s-5.75,2.57-5.75,5.75,2.57,5.75,5.75,5.75,5.75-2.57,5.75-5.75"/>
    <path class="cls-19" d="M128.7,160.87c0-3.17-2.57-5.75-5.75-5.75s-5.75,2.57-5.75,5.75,2.57,5.75,5.75,5.75,5.75-2.57,5.75-5.75"/>
    <path class="cls-1" d="M128.7,160.87c0-3.17-2.57-5.75-5.75-5.75s-5.75,2.57-5.75,5.75,2.57,5.75,5.75,5.75,5.75-2.57,5.75-5.75"/>
    <line class="cls-1" x1="117.21" y1="155.13" x2="118.93" y2="156.85"/>
    <line class="cls-1" x1="117.21" y1="166.62" x2="118.93" y2="164.89"/>
    <text class="cls-12" transform="translate(121.94 162.11)"><tspan x="0" y="0">+</tspan></text>
    <text class="cls-16" transform="translate(121.51 153.84)"><tspan x="0" y="0">Add0</tspan></text>
    <line class="cls-7" x1="114.33" y1="155.13" x2="117.21" y2="155.13"/>
    <text class="cls-14" transform="translate(111.68 154.24)"><tspan x="0" y="0">CIN</tspan></text>
    <text class="cls-15" transform="translate(104.08 154.13)"><tspan x="0" y="0">1&apos;h0</tspan></text>
    <line class="cls-8" x1="114.33" y1="160.87" x2="117.21" y2="160.87"/>
    <text class="cls-14" transform="translate(108.33 159.99)"><tspan x="0" y="0">A[2..0]</tspan></text>
    <line class="cls-8" x1="114.33" y1="166.62" x2="117.21" y2="166.62"/>
    <text class="cls-14" transform="translate(108.33 165.73)"><tspan x="0" y="0">B[2..0]</tspan></text>
    <text class="cls-15" transform="translate(100.92 165.62)"><tspan x="0" y="0">3&apos;h1</tspan></text>
    <line class="cls-8" x1="131.57" y1="160.87" x2="128.7" y2="160.87"/>
    <text class="cls-14" transform="translate(130.42 159.99)"><tspan x="0" y="0">OUT[2..0]</tspan></text>
    <polygon class="cls-6" points="36.77 40.22 34.76 42.23 30.74 42.23 30.74 38.21 34.76 38.21 36.77 40.22"/>
    <text class="cls-16" transform="translate(18.29 41.46)"><tspan x="0" y="0">wr_ena</tspan></text>
    <line class="cls-9" x1="375.75" y1="24.99" x2="375.75" y2="72.68"/>
    <line class="cls-9" x1="375.75" y1="54.58" x2="413.09" y2="54.58"/>
    <rect class="cls-11" x="374.89" y="53.72" width="2.01" height="2.01"/>
    <line class="cls-1" x1="352.77" y1="25.85" x2="375.75" y2="25.85"/>
    <line class="cls-1" x1="352.77" y1="48.84" x2="375.75" y2="48.84"/>
    <line class="cls-1" x1="352.77" y1="71.82" x2="375.75" y2="71.82"/>
    <polyline points="376.04 24.42 376.04 27.29 372.88 25.85"/>
    <polyline points="376.04 47.4 376.04 50.27 372.88 48.84"/>
    <polyline points="376.04 70.38 376.04 73.25 372.88 71.82"/>
    <polyline class="cls-9" points="398.73 296.75 398.73 203.96 413.09 203.96"/>
    <line class="cls-1" x1="352.77" y1="295.89" x2="398.73" y2="295.89"/>
    <line class="cls-1" x1="352.77" y1="272.91" x2="398.73" y2="272.91"/>
    <line class="cls-1" x1="352.77" y1="249.92" x2="398.73" y2="249.92"/>
    <polyline points="399.02 294.45 399.02 297.32 395.86 295.89"/>
    <polyline points="399.02 271.47 399.02 274.34 395.86 272.91"/>
    <polyline points="399.02 248.49 399.02 251.36 395.86 249.92"/>
    <line class="cls-9" x1="91.35" y1="200.23" x2="91.35" y2="207.7"/>
    <polyline class="cls-9" points="91.35 201.09 217.75 201.09 217.75 226.94 303.93 226.94"/>
    <line class="cls-9" x1="303.93" y1="247.05" x2="335.53" y2="247.05"/>
    <line class="cls-9" x1="303.93" y1="270.03" x2="335.53" y2="270.03"/>
    <rect class="cls-11" x="303.07" y="45.1" width="2.01" height="2.01"/>
    <rect class="cls-11" x="303.07" y="68.08" width="2.01" height="2.01"/>
    <rect class="cls-11" x="303.07" y="96.81" width="2.01" height="2.01"/>
    <rect class="cls-11" x="303.07" y="226.08" width="2.01" height="2.01"/>
    <rect class="cls-11" x="303.07" y="246.19" width="2.01" height="2.01"/>
    <rect class="cls-11" x="303.07" y="269.17" width="2.01" height="2.01"/>
    <line class="cls-9" x1="217.75" y1="201.09" x2="249.35" y2="201.09"/>
    <rect class="cls-11" x="216.89" y="200.23" width="2.01" height="2.01"/>
    <polyline class="cls-9" points="335.53 22.98 303.93 22.98 303.93 293.01 335.53 293.01"/>
    <line class="cls-9" x1="303.93" y1="45.96" x2="335.53" y2="45.96"/>
    <line class="cls-9" x1="303.93" y1="68.94" x2="335.53" y2="68.94"/>
    <line class="cls-9" x1="303.93" y1="97.67" x2="335.53" y2="97.67"/>
    <line class="cls-1" x1="85.61" y1="201.09" x2="91.35" y2="201.09"/>
    <line class="cls-1" x1="85.61" y1="206.83" x2="91.35" y2="206.83"/>
    <polyline points="91.64 199.65 91.64 202.52 88.48 201.09"/>
    <polyline points="91.64 205.4 91.64 208.27 88.48 206.83"/>
    <polyline class="cls-9" points="229.24 142.77 229.24 206.83 249.35 206.83"/>
    <line class="cls-9" x1="229.24" y1="158" x2="315.42" y2="158"/>
    <rect class="cls-11" x="314.56" y="157.14" width="2.01" height="2.01"/>
    <polyline class="cls-9" points="387.24 204.82 387.24 146.51 459.06 146.51"/>
    <rect class="cls-11" x="228.38" y="157.14" width="2.01" height="2.01"/>
    <polyline class="cls-9" points="315.42 148.52 315.42 163.74 387.24 163.74"/>
    <rect class="cls-11" x="386.38" y="162.88" width="2.01" height="2.01"/>
    <line class="cls-9" x1="459.06" y1="145.65" x2="459.06" y2="147.37"/>
    <line class="cls-1" x1="229.24" y1="143.63" x2="249.35" y2="143.63"/>
    <line class="cls-1" x1="459.06" y1="146.51" x2="464.8" y2="146.51"/>
    <line class="cls-2" x1="256.53" y1="158" x2="257.97" y2="159.43"/>
    <line class="cls-1" x1="257.97" y1="159.43" x2="257.97" y2="163.74"/>
    <line class="cls-1" x1="352.77" y1="152.25" x2="387.24" y2="152.25"/>
    <line class="cls-2" x1="342.71" y1="163.74" x2="344.15" y2="165.18"/>
    <line class="cls-1" x1="344.15" y1="165.18" x2="344.15" y2="169.49"/>
    <line class="cls-1" x1="315.42" y1="149.38" x2="335.53" y2="149.38"/>
    <line class="cls-2" x1="420.27" y1="146.51" x2="421.71" y2="147.94"/>
    <line class="cls-1" x1="421.71" y1="147.94" x2="421.71" y2="152.25"/>
    <line class="cls-1" x1="358.51" y1="203.96" x2="387.24" y2="203.96"/>
    <line class="cls-1" x1="352.77" y1="178.11" x2="387.24" y2="178.11"/>
    <polyline points="315.13 147.94 315.13 150.82 318.29 149.38"/>
    <polyline points="458.77 145.07 458.77 147.94 461.93 146.51"/>
    <polyline points="228.95 142.2 228.95 145.07 232.11 143.63"/>
    <polyline points="387.53 202.52 387.53 205.4 384.37 203.96"/>
    <polyline points="387.53 176.67 387.53 179.54 384.37 178.11"/>
    <polyline points="387.53 150.82 387.53 153.69 384.37 152.25"/>
    <polyline class="cls-9" points="259.4 68.94 292.44 68.94 292.44 137.89 375.75 137.89"/>
    <rect class="cls-11" x="374.89" y="137.03" width="2.01" height="2.01"/>
    <line class="cls-9" x1="453.31" y1="105.43" x2="453.31" y2="161.73"/>
    <line class="cls-9" x1="292.44" y1="103.42" x2="335.53" y2="103.42"/>
    <rect class="cls-11" x="291.58" y="102.56" width="2.01" height="2.01"/>
    <polyline class="cls-9" points="375.75 158.86 375.75 120.65 453.31 120.65"/>
    <rect class="cls-11" x="452.45" y="119.79" width="2.01" height="2.01"/>
    <line class="cls-1" x1="257.97" y1="74.69" x2="257.97" y2="70.38"/>
    <line class="cls-2" x1="257.97" y1="70.38" x2="259.4" y2="68.94"/>
    <line class="cls-1" x1="436.07" y1="106.29" x2="453.31" y2="106.29"/>
    <line class="cls-1" x1="453.31" y1="106.29" x2="464.8" y2="106.29"/>
    <line class="cls-2" x1="342.71" y1="137.89" x2="344.15" y2="139.33"/>
    <line class="cls-1" x1="344.15" y1="139.33" x2="344.15" y2="143.63"/>
    <line class="cls-1" x1="292.44" y1="123.53" x2="335.53" y2="123.53"/>
    <line class="cls-1" x1="430.33" y1="135.02" x2="453.31" y2="135.02"/>
    <line class="cls-1" x1="430.33" y1="160.87" x2="453.31" y2="160.87"/>
    <line class="cls-2" x1="420.27" y1="120.65" x2="421.71" y2="122.09"/>
    <line class="cls-1" x1="421.71" y1="122.09" x2="421.71" y2="126.4"/>
    <line class="cls-1" x1="375.75" y1="158" x2="413.09" y2="158"/>
    <polyline points="375.46 156.56 375.46 159.43 378.62 158"/>
    <polyline points="292.15 122.09 292.15 124.96 295.31 123.53"/>
    <polyline points="453.6 104.85 453.6 107.73 450.44 106.29"/>
    <polyline points="453.02 104.85 453.02 107.73 456.18 106.29"/>
    <polyline points="453.6 133.58 453.6 136.45 450.44 135.02"/>
    <polyline points="453.6 159.43 453.6 162.31 450.44 160.87"/>
    <polyline class="cls-9" points="174.66 135.02 151.68 135.02 151.68 175.23 212 175.23 212 186.72 286.69 186.72 286.69 297.32"/>
    <line class="cls-9" x1="131.57" y1="160.87" x2="151.68" y2="160.87"/>
    <rect class="cls-11" x="150.82" y="160.01" width="2.01" height="2.01"/>
    <line class="cls-9" x1="212" y1="175.23" x2="249.35" y2="175.23"/>
    <rect class="cls-11" x="211.14" y="174.37" width="2.01" height="2.01"/>
    <line class="cls-2" x1="286.69" y1="297.32" x2="288.13" y2="298.76"/>
    <line class="cls-5" x1="288.13" y1="298.76" x2="335.53" y2="298.76"/>
    <line class="cls-2" x1="286.69" y1="251.36" x2="288.13" y2="252.8"/>
    <line class="cls-5" x1="288.13" y1="252.8" x2="335.53" y2="252.8"/>
    <line class="cls-2" x1="286.69" y1="274.34" x2="288.13" y2="275.78"/>
    <line class="cls-5" x1="288.13" y1="275.78" x2="335.53" y2="275.78"/>
    <polyline class="cls-9" points="249.35 114.91 217.75 114.91 217.75 63.2 315.42 63.2"/>
    <rect class="cls-11" x="314.56" y="62.34" width="2.01" height="2.01"/>
    <line class="cls-9" x1="191.9" y1="112.03" x2="217.75" y2="112.03"/>
    <line class="cls-9" x1="217.75" y1="86.18" x2="249.35" y2="86.18"/>
    <rect class="cls-11" x="216.89" y="111.17" width="2.01" height="2.01"/>
    <rect class="cls-11" x="216.89" y="85.32" width="2.01" height="2.01"/>
    <line class="cls-9" x1="315.42" y1="30.16" x2="315.42" y2="73.25"/>
    <line class="cls-5" x1="335.53" y1="28.73" x2="316.86" y2="28.73"/>
    <line class="cls-2" x1="316.86" y1="28.73" x2="315.42" y2="30.16"/>
    <line class="cls-2" x1="315.42" y1="73.25" x2="316.86" y2="74.69"/>
    <line class="cls-5" x1="316.86" y1="74.69" x2="335.53" y2="74.69"/>
    <line class="cls-2" x1="315.42" y1="50.27" x2="316.86" y2="51.71"/>
    <line class="cls-5" x1="316.86" y1="51.71" x2="335.53" y2="51.71"/>
    <polyline class="cls-1" points="266.59 112.03 344.15 112.03 344.15 117.78"/>
    <polyline class="cls-1" points="191.9 132.14 257.97 132.14 257.97 137.89"/>
    <polyline class="cls-1" points="266.59 203.96 309.68 203.96 309.68 198.22 335.53 198.22"/>
    <line class="cls-1" x1="352.77" y1="100.54" x2="413.09" y2="100.54"/>
    <polyline class="cls-1" points="352.77 126.4 387.24 126.4 387.24 137.89 413.09 137.89"/>
    <polyline class="cls-1" points="266.59 146.51 298.19 146.51 298.19 180.98 335.53 180.98"/>
    <line class="cls-1" x1="85.61" y1="215.45" x2="315.42" y2="215.45"/>
    <rect class="cls-11" x="314.85" y="214.88" width="1.44" height="1.44"/>
    <polyline class="cls-1" points="335.53 203.96 315.42 203.96 315.42 226.94 381.49 226.94 381.49 60.33 413.09 60.33"/>
    <line class="cls-1" x1="381.49" y1="209.71" x2="413.09" y2="209.71"/>
    <line class="cls-1" x1="381.49" y1="106.29" x2="413.09" y2="106.29"/>
    <rect class="cls-11" x="380.92" y="209.13" width="1.44" height="1.44"/>
    <rect class="cls-11" x="380.92" y="105.71" width="1.44" height="1.44"/>
    <line class="cls-1" x1="85.61" y1="221.2" x2="392.98" y2="221.2"/>
    <rect class="cls-11" x="392.41" y="220.62" width="1.44" height="1.44"/>
    <rect class="cls-11" x="343.57" y="220.62" width="1.44" height="1.44"/>
    <line class="cls-1" x1="344.15" y1="221.2" x2="344.15" y2="218.32"/>
    <polyline class="cls-1" points="421.71 74.69 421.71 77.56 392.98 77.56 392.98 226.94 421.71 226.94 421.71 224.07"/>
    <rect class="cls-11" x="421.14" y="76.99" width="1.44" height="1.44"/>
    <line class="cls-1" x1="421.71" y1="77.56" x2="421.71" y2="91.93"/>
    <polyline class="cls-9" points="114.33 160.87 91.35 160.87 91.35 169.49 223.5 169.49"/>
    <line class="cls-9" x1="223.5" y1="169.49" x2="249.35" y2="169.49"/>
    <rect class="cls-11" x="222.63" y="168.63" width="2.01" height="2.01"/>
    <polyline class="cls-9" points="249.35 109.16 223.5 109.16 223.5 232.69 298.19 232.69 298.19 297.32"/>
    <polyline class="cls-9" points="298.19 232.69 453.31 232.69 453.31 209.71 436.07 209.71"/>
    <line class="cls-9" x1="453.31" y1="209.71" x2="464.8" y2="209.71"/>
    <rect class="cls-11" x="452.45" y="208.84" width="2.01" height="2.01"/>
    <rect class="cls-11" x="297.32" y="231.83" width="2.01" height="2.01"/>
    <line class="cls-2" x1="298.19" y1="297.32" x2="299.62" y2="298.76"/>
    <line class="cls-5" x1="299.62" y1="298.76" x2="335.53" y2="298.76"/>
    <line class="cls-2" x1="298.19" y1="251.36" x2="299.62" y2="252.8"/>
    <line class="cls-5" x1="299.62" y1="252.8" x2="335.53" y2="252.8"/>
    <line class="cls-2" x1="298.19" y1="274.34" x2="299.62" y2="275.78"/>
    <line class="cls-5" x1="299.62" y1="275.78" x2="335.53" y2="275.78"/>
    <polyline class="cls-9" points="174.66 129.27 151.68 129.27 151.68 97.67 212 97.67"/>
    <rect class="cls-11" x="211.14" y="96.81" width="2.01" height="2.01"/>
    <line class="cls-9" x1="151.68" y1="112.03" x2="174.66" y2="112.03"/>
    <rect class="cls-11" x="150.82" y="111.17" width="2.01" height="2.01"/>
    <polyline class="cls-9" points="249.35 80.44 212 80.44 212 97.67 298.19 97.67 298.19 30.16"/>
    <polyline class="cls-9" points="298.19 83.31 453.31 83.31 453.31 60.33 436.07 60.33"/>
    <line class="cls-9" x1="453.31" y1="60.33" x2="464.8" y2="60.33"/>
    <rect class="cls-11" x="452.45" y="59.46" width="2.01" height="2.01"/>
    <rect class="cls-11" x="297.32" y="82.45" width="2.01" height="2.01"/>
    <line class="cls-2" x1="298.19" y1="30.16" x2="299.62" y2="28.73"/>
    <line class="cls-5" x1="299.62" y1="28.73" x2="335.53" y2="28.73"/>
    <line class="cls-2" x1="298.19" y1="73.25" x2="299.62" y2="74.69"/>
    <line class="cls-5" x1="299.62" y1="74.69" x2="335.53" y2="74.69"/>
    <line class="cls-2" x1="298.19" y1="50.27" x2="299.62" y2="51.71"/>
    <line class="cls-5" x1="299.62" y1="51.71" x2="335.53" y2="51.71"/>
    <polyline class="cls-9" points="266.59 83.31 286.69 83.31 286.69 30.16"/>
    <line class="cls-2" x1="286.69" y1="30.16" x2="288.13" y2="28.73"/>
    <line class="cls-5" x1="288.13" y1="28.73" x2="335.53" y2="28.73"/>
    <line class="cls-2" x1="286.69" y1="73.25" x2="288.13" y2="74.69"/>
    <line class="cls-5" x1="288.13" y1="74.69" x2="335.53" y2="74.69"/>
    <line class="cls-2" x1="286.69" y1="50.27" x2="288.13" y2="51.71"/>
    <line class="cls-5" x1="288.13" y1="51.71" x2="335.53" y2="51.71"/>
    <polyline class="cls-9" points="266.59 172.36 292.44 172.36 292.44 297.32"/>
    <line class="cls-2" x1="292.44" y1="297.32" x2="293.88" y2="298.76"/>
    <line class="cls-5" x1="293.88" y1="298.76" x2="335.53" y2="298.76"/>
    <line class="cls-2" x1="292.44" y1="251.36" x2="293.88" y2="252.8"/>
    <line class="cls-5" x1="293.88" y1="252.8" x2="335.53" y2="252.8"/>
    <line class="cls-2" x1="292.44" y1="274.34" x2="293.88" y2="275.78"/>
    <line class="cls-5" x1="293.88" y1="275.78" x2="335.53" y2="275.78"/>
    <polyline class="cls-1" points="79.86 215.45 65.5 215.45 65.5 2.87 505.02 2.87 505.02 45.96 556.73 45.96"/>
    <line class="cls-1" x1="36.77" y1="8.62" x2="65.5" y2="8.62"/>
    <rect class="cls-11" x="64.92" y="8.04" width="1.44" height="1.44"/>
    <polyline class="cls-1" points="36.77 34.47 59.75 34.47 59.75 221.2 79.86 221.2"/>
    <polyline class="cls-1" points="36.77 28.73 54.01 28.73 54.01 316 510.76 316 510.76 34.47 556.73 34.47"/>
    <line class="cls-1" x1="54.01" y1="201.09" x2="79.86" y2="201.09"/>
    <rect class="cls-11" x="53.43" y="200.51" width="1.44" height="1.44"/>
    <polyline class="cls-1" points="36.77 40.22 42.52 40.22 42.52 321.74 528 321.74 528 83.31 556.73 83.31"/>
    <line class="cls-1" x1="42.52" y1="206.83" x2="79.86" y2="206.83"/>
    <rect class="cls-11" x="41.94" y="206.26" width="1.44" height="1.44"/>
    <polyline class="cls-9" points="36.77 45.96 48.26 45.96 48.26 310.25 516.51 310.25 516.51 57.45 556.73 57.45"/>
    <polyline class="cls-9" points="642.91 63.2 648.65 63.2 648.65 51.71 663.02 51.71"/>
    <polyline class="cls-1" points="562.47 34.47 671.63 34.47 671.63 40.22"/>
    <line class="cls-1" x1="562.47" y1="83.31" x2="568.22" y2="83.31"/>
    <line class="cls-1" x1="562.47" y1="89.05" x2="568.22" y2="89.05"/>
    <polyline class="cls-1" points="585.45 86.18 591.2 86.18 591.2 80.44 602.69 80.44"/>
    <line class="cls-1" x1="562.47" y1="45.96" x2="602.69" y2="45.96"/>
    <line class="cls-9" x1="562.47" y1="57.45" x2="602.69" y2="57.45"/>
    <line class="cls-9" x1="562.47" y1="74.69" x2="602.69" y2="74.69"/>
    <line class="cls-9" x1="562.47" y1="68.94" x2="602.69" y2="68.94"/>
    <line class="cls-9" x1="680.25" y1="48.84" x2="708.98" y2="48.84"/>
    <polyline class="cls-9" points="714.73 48.84 749.2 48.84 749.2 57.45 754.94 57.45"/>
    <polyline class="cls-1" points="470.55 106.29 493.53 106.29 493.53 11.49 749.2 11.49 749.2 17.24 754.94 17.24"/>
    <polyline class="cls-1" points="470.55 146.51 499.27 146.51 499.27 17.24 743.45 17.24 743.45 22.98 754.94 22.98"/>
    <line class="cls-1" x1="499.27" y1="89.05" x2="556.73" y2="89.05"/>
    <rect class="cls-11" x="498.7" y="88.48" width="1.44" height="1.44"/>
    <polyline class="cls-9" points="470.55 60.33 505.02 60.33 505.02 68.94 556.73 68.94"/>
    <polyline class="cls-9" points="470.55 209.71 522.25 209.71 522.25 74.69 556.73 74.69"/>
    <text class="cls-17" transform="translate(289.04 297.32) rotate(-90)"><tspan x="0" y="0">DATA[3]168&lt;-2</tspan></text>
    <text class="cls-17" transform="translate(289.04 251.36) rotate(-90)"><tspan x="0" y="0">DATA[3]184&lt;-0</tspan></text>
    <text class="cls-17" transform="translate(289.04 274.34) rotate(-90)"><tspan x="0" y="0">DATA[3]176&lt;-1</tspan></text>
    <text class="cls-17" transform="translate(317.77 50.04) rotate(-90)"><tspan x="0" y="0">2-&gt;DATA[3]192</tspan></text>
    <text class="cls-17" transform="translate(317.77 73.25) rotate(-90)"><tspan x="0" y="0">DATA[3]208&lt;-0</tspan></text>
    <text class="cls-17" transform="translate(317.77 50.27) rotate(-90)"><tspan x="0" y="0">DATA[3]200&lt;-1</tspan></text>
    <text class="cls-17" transform="translate(300.53 297.32) rotate(-90)"><tspan x="0" y="0">2,2</tspan></text>
    <text class="cls-17" transform="translate(300.53 251.36) rotate(-90)"><tspan x="0" y="0">0,0</tspan></text>
    <text class="cls-17" transform="translate(300.53 274.34) rotate(-90)"><tspan x="0" y="0">1,1</tspan></text>
    <text class="cls-17" transform="translate(300.53 34.16) rotate(-90)"><tspan x="0" y="0">2,2</tspan></text>
    <text class="cls-17" transform="translate(300.53 73.25) rotate(-90)"><tspan x="0" y="0">0,0</tspan></text>
    <text class="cls-17" transform="translate(300.53 50.27) rotate(-90)"><tspan x="0" y="0">1,1</tspan></text>
    <text class="cls-17" transform="translate(289.04 50.04) rotate(-90)"><tspan x="0" y="0">0-&gt;DATA[1]190</tspan></text>
    <text class="cls-17" transform="translate(289.04 73.25) rotate(-90)"><tspan x="0" y="0">DATA[1]206&lt;-2</tspan></text>
    <text class="cls-17" transform="translate(289.04 50.27) rotate(-90)"><tspan x="0" y="0">DATA[1]198&lt;-1</tspan></text>
    <text class="cls-17" transform="translate(294.79 297.32) rotate(-90)"><tspan x="0" y="0">DATA[2]167&lt;-0</tspan></text>
    <text class="cls-17" transform="translate(294.79 251.36) rotate(-90)"><tspan x="0" y="0">DATA[2]183&lt;-2</tspan></text>
    <text class="cls-17" transform="translate(294.79 274.34) rotate(-90)"><tspan x="0" y="0">DATA[2]175&lt;-1</tspan></text>
  </g>
</svg>