<?xml version="1.0" encoding="UTF-8"?>
<svg id="Capa_1" xmlns="http://www.w3.org/2000/svg" xmlns:xlink="http://www.w3.org/1999/xlink" viewBox="0 0 792 255.78">
  <defs>
    <style>
      .cls-1 {
        opacity: .41;
      }

      .cls-2, .cls-3, .cls-4, .cls-5, .cls-6, .cls-7, .cls-8 {
        fill: none;
      }

      .cls-2, .cls-4, .cls-8 {
        stroke-width: .91px;
      }

      .cls-2, .cls-7 {
        stroke: #06476f;
      }

      .cls-9 {
        fill: #2d2d2d;
      }

      .cls-10 {
        fill: #fff;
      }

      .cls-11 {
        fill: #81bf5f;
      }

      .cls-4, .cls-5 {
        stroke: #2d2d2d;
      }

      .cls-5, .cls-6, .cls-7 {
        stroke-width: 2.74px;
      }

      .cls-6, .cls-8 {
        stroke: blue;
      }

      .cls-12 {
        font-size: 10.96px;
      }

      .cls-12, .cls-13 {
        font-family: ArialMT, Arial;
      }

      .cls-13 {
        fill: #06476f;
        font-size: 9.13px;
      }

      .cls-14 {
        clip-path: url(#clippath);
      }
    </style>
    <clipPath id="clippath">
      <rect class="cls-3" width="792" height="255.78"/>
    </clipPath>
  </defs>
  <g class="cls-14">
    <rect class="cls-10" width="791.09" height="256.69"/>
    <rect class="cls-1" x="231.11" y="30.15" width="54.81" height="93.18"/>
    <rect class="cls-11" x="226.55" y="25.58" width="54.81" height="93.18"/>
    <rect class="cls-4" x="226.55" y="25.58" width="54.81" height="93.18"/>
    <line class="cls-5" x1="236.6" y1="30.15" x2="236.6" y2="41.11"/>
    <line class="cls-5" x1="231.11" y1="35.63" x2="242.08" y2="35.63"/>
    <rect class="cls-4" x="229.29" y="28.32" width="14.62" height="14.62"/>
    <text class="cls-12" transform="translate(201.56 21.48)"><tspan x="0" y="0">FIFO_Ctrl:control_fifo</tspan></text>
    <line class="cls-2" x1="217.41" y1="91.35" x2="226.55" y2="91.35"/>
    <text class="cls-13" transform="translate(213.56 88.55)"><tspan x="0" y="0">clk</tspan></text>
    <line class="cls-2" x1="217.41" y1="54.81" x2="226.55" y2="54.81"/>
    <text class="cls-13" transform="translate(196.28 52.01)"><tspan x="0" y="0">rd_ena</tspan></text>
    <line class="cls-2" x1="217.41" y1="109.62" x2="226.55" y2="109.62"/>
    <text class="cls-13" transform="translate(214.57 106.82)"><tspan x="0" y="0">rst</tspan></text>
    <line class="cls-2" x1="217.41" y1="73.08" x2="226.55" y2="73.08"/>
    <text class="cls-13" transform="translate(194.77 70.28)"><tspan x="0" y="0">wr_ena</tspan></text>
    <line class="cls-2" x1="290.49" y1="73.08" x2="281.36" y2="73.08"/>
    <text class="cls-13" transform="translate(286.84 70.28)"><tspan x="0" y="0">empty</tspan></text>
    <line class="cls-2" x1="290.49" y1="91.35" x2="281.36" y2="91.35"/>
    <text class="cls-13" transform="translate(286.84 88.55)"><tspan x="0" y="0">full</tspan></text>
    <line class="cls-7" x1="290.49" y1="109.62" x2="281.36" y2="109.62"/>
    <text class="cls-13" transform="translate(286.84 106.82)"><tspan x="0" y="0">w_addr[2..0]</tspan></text>
    <line class="cls-7" x1="290.49" y1="54.81" x2="281.36" y2="54.81"/>
    <text class="cls-13" transform="translate(286.84 52.01)"><tspan x="0" y="0">r_addr[2..0]</tspan></text>
    <line class="cls-2" x1="235.68" y1="91.35" x2="226.55" y2="91.35"/>
    <line class="cls-2" x1="235.68" y1="54.81" x2="226.55" y2="54.81"/>
    <line class="cls-2" x1="235.68" y1="109.62" x2="226.55" y2="109.62"/>
    <line class="cls-2" x1="235.68" y1="73.08" x2="226.55" y2="73.08"/>
    <line class="cls-2" x1="272.22" y1="73.08" x2="281.36" y2="73.08"/>
    <line class="cls-2" x1="272.22" y1="91.35" x2="281.36" y2="91.35"/>
    <line class="cls-7" x1="272.22" y1="109.62" x2="281.36" y2="109.62"/>
    <line class="cls-7" x1="272.22" y1="54.81" x2="281.36" y2="54.81"/>
    <rect class="cls-1" x="523.43" y="103.22" width="54.81" height="147.99"/>
    <rect class="cls-11" x="518.87" y="98.66" width="54.81" height="147.99"/>
    <rect class="cls-4" x="518.87" y="98.66" width="54.81" height="147.99"/>
    <line class="cls-5" x1="528.91" y1="103.22" x2="528.91" y2="114.19"/>
    <line class="cls-5" x1="523.43" y1="108.71" x2="534.39" y2="108.71"/>
    <rect class="cls-4" x="521.61" y="101.4" width="14.62" height="14.62"/>
    <text class="cls-12" transform="translate(497.54 94.56)"><tspan x="0" y="0">RegFile:register_file</tspan></text>
    <line class="cls-2" x1="509.73" y1="127.89" x2="518.87" y2="127.89"/>
    <text class="cls-13" transform="translate(505.88 125.09)"><tspan x="0" y="0">clk</tspan></text>
    <line class="cls-2" x1="509.73" y1="164.43" x2="518.87" y2="164.43"/>
    <text class="cls-13" transform="translate(505.36 161.63)"><tspan x="0" y="0">full</tspan></text>
    <line class="cls-2" x1="509.73" y1="200.97" x2="518.87" y2="200.97"/>
    <text class="cls-13" transform="translate(488.6 198.17)"><tspan x="0" y="0">rd_ena</tspan></text>
    <line class="cls-2" x1="509.73" y1="237.51" x2="518.87" y2="237.51"/>
    <text class="cls-13" transform="translate(487.08 234.71)"><tspan x="0" y="0">wr_ena</tspan></text>
    <line class="cls-7" x1="509.73" y1="146.16" x2="518.87" y2="146.16"/>
    <text class="cls-13" transform="translate(454.58 143.36)"><tspan x="0" y="0">data_write[3..0]</tspan></text>
    <line class="cls-7" x1="509.73" y1="219.24" x2="518.87" y2="219.24"/>
    <text class="cls-13" transform="translate(466.77 216.43)"><tspan x="0" y="0">w_addr[2..0]</tspan></text>
    <line class="cls-7" x1="509.73" y1="182.7" x2="518.87" y2="182.7"/>
    <text class="cls-13" transform="translate(470.32 179.89)"><tspan x="0" y="0">r_addr[2..0]</tspan></text>
    <line class="cls-7" x1="582.81" y1="182.7" x2="573.68" y2="182.7"/>
    <text class="cls-13" transform="translate(579.16 179.89)"><tspan x="0" y="0">data_read[3..0]</tspan></text>
    <line class="cls-2" x1="528" y1="127.89" x2="518.87" y2="127.89"/>
    <line class="cls-2" x1="528" y1="164.43" x2="518.87" y2="164.43"/>
    <line class="cls-2" x1="528" y1="200.97" x2="518.87" y2="200.97"/>
    <line class="cls-2" x1="528" y1="237.51" x2="518.87" y2="237.51"/>
    <line class="cls-7" x1="528" y1="146.16" x2="518.87" y2="146.16"/>
    <line class="cls-7" x1="528" y1="219.24" x2="518.87" y2="219.24"/>
    <line class="cls-7" x1="528" y1="182.7" x2="518.87" y2="182.7"/>
    <line class="cls-7" x1="564.54" y1="182.7" x2="573.68" y2="182.7"/>
    <polygon class="cls-8" points="116.93 91.35 110.53 97.74 97.74 97.74 97.74 84.96 110.53 84.96 116.93 91.35"/>
    <text class="cls-12" transform="translate(80.69 95.29)"><tspan x="0" y="0">clk</tspan></text>
    <polygon class="cls-6" points="674.16 182.7 674.16 176.3 686.95 176.3 693.34 182.7 686.95 189.09 674.16 189.09 674.16 182.7"/>
    <text class="cls-12" transform="translate(700.65 186.63)"><tspan x="0" y="0">data_read[3..0]</tspan></text>
    <polygon class="cls-6" points="116.93 146.16 110.53 152.55 97.74 152.55 97.74 139.76 110.53 139.76 116.93 146.16"/>
    <text class="cls-12" transform="translate(19.14 150.09)"><tspan x="0" y="0">data_write[3..0]</tspan></text>
    <polygon class="cls-8" points="674.16 54.81 674.16 48.42 686.95 48.42 693.34 54.81 686.95 61.2 674.16 61.2 674.16 54.81"/>
    <text class="cls-12" transform="translate(700.65 58.75)"><tspan x="0" y="0">empty</tspan></text>
    <polygon class="cls-8" points="674.16 73.08 674.16 66.69 686.95 66.69 693.34 73.08 686.95 79.47 674.16 79.47 674.16 73.08"/>
    <text class="cls-12" transform="translate(700.65 77.01)"><tspan x="0" y="0">full</tspan></text>
    <polygon class="cls-8" points="116.93 54.81 110.53 61.2 97.74 61.2 97.74 48.42 110.53 48.42 116.93 54.81"/>
    <text class="cls-12" transform="translate(59.97 58.75)"><tspan x="0" y="0">rd_ena</tspan></text>
    <polygon class="cls-8" points="116.93 109.62 110.53 116.01 97.74 116.01 97.74 103.22 110.53 103.22 116.93 109.62"/>
    <text class="cls-12" transform="translate(81.91 113.56)"><tspan x="0" y="0">rst</tspan></text>
    <polygon class="cls-8" points="116.93 73.08 110.53 79.47 97.74 79.47 97.74 66.69 110.53 66.69 116.93 73.08"/>
    <text class="cls-12" transform="translate(58.15 77.01)"><tspan x="0" y="0">wr_ena</tspan></text>
    <polyline class="cls-4" points="116.93 91.35 153.47 91.35 153.47 127.89 509.73 127.89"/>
    <line class="cls-4" x1="153.47" y1="91.35" x2="217.41" y2="91.35"/>
    <rect class="cls-9" x="151.64" y="89.52" width="4.57" height="4.57"/>
    <line class="cls-4" x1="116.93" y1="109.62" x2="217.41" y2="109.62"/>
    <polyline class="cls-4" points="116.93 54.81 171.74 54.81 171.74 200.97 509.73 200.97"/>
    <line class="cls-4" x1="171.74" y1="54.81" x2="217.41" y2="54.81"/>
    <rect class="cls-9" x="169.91" y="52.98" width="4.57" height="4.57"/>
    <polyline class="cls-4" points="116.93 73.08 135.2 73.08 135.2 237.51 509.73 237.51"/>
    <line class="cls-4" x1="135.2" y1="73.08" x2="217.41" y2="73.08"/>
    <rect class="cls-9" x="133.37" y="71.25" width="4.57" height="4.57"/>
    <line class="cls-5" x1="116.93" y1="146.16" x2="509.73" y2="146.16"/>
    <line class="cls-5" x1="582.81" y1="182.7" x2="674.16" y2="182.7"/>
    <polyline class="cls-4" points="290.49 73.08 400.11 73.08 400.11 54.81 674.16 54.81"/>
    <polyline class="cls-4" points="509.73 164.43 418.38 164.43 418.38 73.08 674.16 73.08"/>
    <line class="cls-4" x1="290.49" y1="91.35" x2="418.38" y2="91.35"/>
    <rect class="cls-9" x="416.55" y="89.52" width="4.57" height="4.57"/>
    <polyline class="cls-5" points="290.49 54.81 381.84 54.81 381.84 182.7 509.73 182.7"/>
    <polyline class="cls-5" points="290.49 109.62 363.57 109.62 363.57 219.24 509.73 219.24"/>
  </g>
</svg>